{"glyphs":{"0":{"ha":814,"x_min":193,"x_max":785,"o":"m 576 867 q 673 846 632 867 q 736 796 715 825 q 768 728 757 768 q 783 665 780 689 q 785 614 785 640 q 776 484 785 557 q 739 320 766 411 q 671 155 712 229 q 561 31 631 81 q 404 -19 491 -19 q 306 2 347 -19 q 243 51 264 23 q 210 117 222 79 q 195 181 198 156 q 193 233 193 206 q 202 363 193 290 q 239 527 212 435 q 307 692 266 618 q 418 816 349 765 q 576 867 488 867 m 567 753 q 454 695 505 753 q 374 552 403 637 q 331 382 346 467 q 316 232 316 298 q 410 95 316 95 q 527 155 475 95 q 607 303 579 216 q 648 472 635 391 q 662 613 662 553 q 567 753 662 753 z "},"1":{"ha":814,"x_min":123,"x_max":720,"o":"m 267 742 l 575 867 l 655 867 l 496 111 l 720 111 l 697 0 l 123 0 l 148 111 l 376 111 l 505 716 l 293 631 l 267 742 z "},"2":{"ha":814,"x_min":87,"x_max":785,"o":"m 590 244 l 704 244 l 652 0 l 87 0 l 110 111 q 199 176 110 111 q 597 492 537 429 q 663 644 663 563 q 627 718 663 688 q 534 749 590 749 q 447 728 488 749 q 387 678 406 707 q 366 614 374 658 l 243 614 l 270 738 q 557 867 403 867 q 718 805 650 867 q 785 646 785 743 q 739 490 785 563 q 595 335 692 416 q 302 114 499 254 l 302 111 l 562 111 l 590 244 z "},"3":{"ha":814,"x_min":92,"x_max":743,"o":"m 92 62 l 159 165 q 369 98 281 98 q 521 157 461 98 q 581 290 581 217 q 555 359 581 334 q 503 389 529 384 q 452 393 477 395 l 370 391 l 395 505 q 452 507 435 506 q 492 513 468 507 q 534 529 515 518 q 596 589 572 552 q 620 669 620 627 q 591 728 620 708 q 522 747 563 747 q 434 730 476 747 q 301 663 392 713 l 259 768 q 354 820 320 803 q 437 852 388 837 q 532 867 486 867 q 684 812 624 867 q 743 682 743 757 q 625 458 743 540 q 704 296 704 396 q 604 77 704 174 q 359 -19 505 -19 q 151 37 273 -19 q 121 49 146 38 q 92 62 96 60 z "},"4":{"ha":814,"x_min":127,"x_max":735,"o":"m 728 867 l 617 327 l 735 327 l 713 224 l 594 224 l 570 111 l 692 111 l 663 0 l 250 0 l 278 111 l 452 111 l 479 224 l 127 224 l 149 331 l 594 867 l 728 867 m 277 327 l 499 327 l 582 701 l 579 704 l 277 327 z "},"5":{"ha":814,"x_min":100,"x_max":817,"o":"m 324 848 l 817 848 l 792 731 l 414 731 l 372 534 q 498 556 439 556 q 671 496 605 556 q 738 330 738 435 q 640 92 738 203 q 378 -19 541 -19 q 100 56 250 -19 l 164 160 q 380 100 286 100 q 553 170 494 100 q 612 320 612 240 q 580 408 612 373 q 481 442 548 442 q 293 374 395 442 l 232 412 l 324 848 z "},"6":{"ha":814,"x_min":176,"x_max":857,"o":"m 857 864 l 825 749 q 732 750 781 750 q 512 697 600 750 q 355 495 425 644 l 358 492 q 507 537 427 537 q 660 478 598 537 q 722 312 722 419 q 626 82 722 183 q 407 -19 530 -19 q 241 52 307 -19 q 176 241 176 122 q 187 348 176 289 q 221 479 198 407 q 287 618 244 552 q 388 742 330 685 q 534 833 446 799 q 727 867 621 867 q 787 865 730 867 q 857 864 845 864 m 302 292 q 298 250 298 255 q 310 177 298 208 q 336 132 321 146 q 369 109 350 117 q 397 99 388 100 q 415 98 407 98 q 545 163 492 98 q 598 307 598 229 q 595 336 598 320 q 584 372 593 351 q 554 407 575 393 q 502 420 533 420 q 393 387 450 420 q 302 292 336 354 z "},"7":{"ha":814,"x_min":275,"x_max":894,"o":"m 326 848 l 894 848 l 873 749 l 456 0 l 316 0 l 736 731 l 419 731 l 395 614 l 275 614 l 326 848 z "},"8":{"ha":814,"x_min":165,"x_max":802,"o":"m 323 438 q 263 585 263 495 q 358 782 263 697 q 576 867 453 867 q 741 806 681 867 q 802 665 802 745 q 661 429 802 528 q 732 277 732 365 q 637 73 732 165 q 403 -19 543 -19 q 227 43 289 -19 q 165 194 165 106 q 210 333 165 267 q 317 435 255 399 q 323 438 321 437 m 568 753 q 439 703 492 753 q 387 586 387 652 q 414 516 387 548 q 495 484 441 484 q 621 536 563 484 q 678 655 678 589 q 648 727 678 701 q 568 753 617 753 m 487 373 q 346 319 403 373 q 289 199 289 264 q 325 122 289 149 q 411 95 361 95 q 548 146 487 95 q 609 267 609 198 q 594 326 609 302 q 555 359 579 350 q 515 370 530 368 q 487 373 500 373 z "},"9":{"ha":814,"x_min":109,"x_max":789,"o":"m 109 -16 l 141 99 q 233 98 184 98 q 454 151 366 98 q 610 353 541 203 l 608 355 q 458 311 538 311 q 306 370 368 311 q 244 536 244 429 q 340 766 244 665 q 559 867 435 867 q 724 796 659 867 q 789 606 789 726 q 779 500 789 559 q 745 368 768 441 q 679 229 722 296 q 578 106 636 163 q 432 15 519 49 q 239 -19 345 -19 q 178 -18 236 -19 q 109 -16 121 -16 m 663 556 q 667 598 667 593 q 656 671 667 640 q 630 716 644 701 q 597 739 616 731 q 568 749 578 747 q 551 750 559 750 q 420 684 473 750 q 368 541 368 618 q 370 512 368 528 q 382 475 373 496 q 412 441 391 454 q 464 427 433 427 q 572 460 515 427 q 663 556 629 494 z "},"\f":{"ha":864,"x_min":0,"x_max":0,"o":""}," ":{"ha":864,"x_min":0,"x_max":0,"o":""},"!":{"ha":814,"x_min":289,"x_max":525,"o":"m 490 802 l 463 254 l 351 254 l 326 802 l 490 802 m 323 160 q 341 176 323 160 q 407 191 358 191 q 490 160 456 191 q 525 85 525 129 q 491 9 525 41 q 407 -22 457 -22 q 323 9 357 -22 q 289 85 289 41 q 323 160 289 129 z "},"\"":{"ha":814,"x_min":275,"x_max":802,"o":"m 349 791 l 529 791 l 423 369 l 275 369 l 349 791 m 623 791 l 802 791 l 697 369 l 548 369 l 623 791 z "},"#":{"ha":814,"x_min":107,"x_max":911,"o":"m 420 892 l 538 892 l 465 624 l 671 624 l 745 892 l 861 892 l 793 624 l 911 624 l 883 498 l 757 498 l 708 308 l 845 308 l 817 182 l 671 182 l 595 -99 l 479 -99 l 553 182 l 349 182 l 271 -99 l 155 -99 l 229 182 l 107 182 l 137 308 l 267 308 l 316 498 l 174 498 l 203 624 l 349 624 l 420 892 m 639 498 l 433 498 l 380 308 l 587 308 l 639 498 z "},"$":{"ha":814,"x_min":123,"x_max":830,"o":"m 543 911 l 639 911 l 613 770 q 694 716 663 753 l 730 803 l 830 783 q 757 560 783 673 l 659 543 q 651 627 662 608 q 589 655 640 647 l 543 437 q 612 414 586 425 q 669 382 637 403 q 716 332 701 362 q 731 260 731 301 q 684 132 731 187 q 577 50 637 76 q 457 22 517 24 l 412 -176 l 316 -176 l 361 22 q 294 41 317 30 q 247 75 271 52 l 218 0 l 123 31 q 165 140 153 98 q 186 254 176 182 l 286 275 q 283 212 283 254 q 309 152 283 165 q 384 136 335 138 l 426 350 q 372 368 393 359 q 317 397 350 377 q 265 450 283 416 q 247 529 247 484 q 326 698 247 621 q 517 776 404 774 l 543 911 m 446 461 l 494 659 q 406 615 441 647 q 370 537 370 583 q 446 461 370 481 m 521 323 l 480 136 q 540 151 514 138 q 578 176 566 163 q 597 207 590 190 q 606 233 605 224 q 608 248 608 241 q 592 291 608 277 q 541 316 576 305 q 521 323 524 323 z "},"%":{"ha":814,"x_min":163,"x_max":831,"o":"m 654 372 q 780 323 736 372 q 823 212 823 275 q 751 54 823 126 q 575 -19 678 -19 q 447 30 490 -19 q 404 140 404 79 q 477 298 404 225 q 654 372 549 372 m 639 279 q 545 239 582 279 q 507 152 507 198 q 528 95 507 117 q 589 73 549 73 q 682 114 644 73 q 720 201 720 155 q 698 258 720 237 q 639 279 675 279 m 412 860 q 538 812 492 860 q 583 700 583 765 q 511 543 583 616 q 334 469 439 469 q 206 517 250 469 q 163 628 163 566 q 237 787 163 715 q 412 860 311 860 m 397 768 q 304 727 342 768 q 266 640 266 686 q 290 581 266 601 q 349 562 315 562 q 442 602 404 562 q 480 688 480 642 q 457 746 480 724 q 397 768 434 768 m 811 574 l 831 503 l 202 275 l 183 345 l 811 574 z "},"&":{"ha":814,"x_min":149,"x_max":766,"o":"m 640 420 l 766 420 l 741 307 l 707 307 q 610 156 667 218 l 631 111 l 694 111 l 670 0 l 553 0 l 522 62 q 473 30 490 41 q 415 5 457 19 q 330 -9 373 -9 q 201 39 252 -9 q 149 170 149 87 q 153 211 149 190 q 173 275 157 232 q 233 361 189 317 q 346 437 278 404 l 342 446 q 335 461 338 456 q 312 562 312 524 q 382 707 312 651 q 538 762 453 762 q 628 746 574 762 q 659 739 648 739 q 700 747 675 739 q 724 758 716 755 q 733 762 727 760 q 741 765 739 765 l 670 557 q 631 603 646 589 q 591 631 617 617 q 533 646 564 646 q 460 621 490 646 q 431 570 431 597 q 468 454 431 533 l 553 270 q 640 420 608 338 m 473 167 l 393 336 q 308 271 343 312 q 273 178 273 229 q 277 147 273 161 q 300 120 282 133 q 346 107 317 107 q 473 167 407 107 z "},"'":{"ha":814,"x_min":423,"x_max":690,"o":"m 484 791 l 690 791 l 571 369 l 423 369 l 484 791 z "},"(":{"ha":814,"x_min":363,"x_max":665,"o":"m 540 903 l 665 903 q 603 783 624 826 q 552 667 582 741 q 509 526 522 594 q 495 389 495 458 q 524 199 495 298 q 580 41 552 100 q 665 -126 608 -18 l 540 -126 q 536 -120 538 -123 q 530 -113 533 -117 q 410 136 456 -3 q 363 389 363 274 q 413 650 363 513 q 519 875 463 788 q 536 898 522 878 l 540 903 z "},")":{"ha":814,"x_min":149,"x_max":450,"o":"m 275 -126 l 149 -126 l 159 -107 q 233 39 206 -18 q 290 198 260 96 q 319 389 319 300 q 291 576 319 479 q 235 732 263 673 q 149 903 208 792 l 275 903 q 279 898 275 898 q 413 616 376 750 q 450 389 450 481 q 372 50 450 233 q 275 -126 339 -23 z "},"*":{"ha":814,"x_min":237,"x_max":800,"o":"m 502 796 l 648 796 l 601 614 l 785 680 l 800 538 l 613 490 l 697 347 l 566 262 l 495 414 l 361 262 l 260 347 l 404 490 l 237 538 l 311 680 l 471 614 l 502 796 z "},"+":{"ha":814,"x_min":159,"x_max":826,"o":"m 433 750 l 552 750 l 552 483 l 826 483 l 826 363 l 552 363 l 552 96 l 433 96 l 433 363 l 159 363 l 159 483 l 433 483 l 433 750 z "},",":{"ha":814,"x_min":175,"x_max":570,"o":"m 372 228 l 570 228 l 324 -144 l 175 -144 l 372 228 z "},"-":{"ha":814,"x_min":345,"x_max":644,"o":"m 345 468 l 644 468 l 644 343 l 345 343 l 345 468 z "},".":{"ha":814,"x_min":294,"x_max":553,"o":"m 446 209 q 521 183 488 209 q 553 114 553 157 q 507 18 553 58 q 403 -22 460 -22 q 326 4 358 -22 q 294 73 294 30 q 342 169 294 129 q 446 209 389 209 z "},"/":{"ha":814,"x_min":60,"x_max":907,"o":"m 806 987 l 907 940 l 160 -174 l 60 -123 l 806 987 z "},":":{"ha":814,"x_min":294,"x_max":629,"o":"m 521 564 q 598 537 567 564 q 629 471 629 510 q 582 374 629 414 q 479 334 534 334 q 403 359 435 334 q 370 429 370 385 q 417 525 370 486 q 521 564 464 564 m 446 209 q 520 184 487 209 q 553 114 553 159 q 507 18 553 58 q 403 -22 460 -22 q 327 4 359 -22 q 294 73 294 30 q 342 170 294 130 q 446 209 389 209 z "},";":{"ha":814,"x_min":182,"x_max":631,"o":"m 377 229 l 575 229 l 330 -142 l 182 -142 l 377 229 m 524 568 q 600 541 568 568 q 631 473 631 514 q 584 378 631 418 q 480 338 537 338 q 403 364 434 338 q 372 433 372 391 q 418 528 372 488 q 524 568 464 568 z "},"<":{"ha":814,"x_min":94,"x_max":837,"o":"m 788 754 l 837 647 l 365 431 l 836 210 l 788 102 l 94 433 l 788 754 z "},"=":{"ha":814,"x_min":159,"x_max":830,"o":"m 159 602 l 830 602 l 830 483 l 159 483 l 159 602 m 159 365 l 830 365 l 830 245 l 159 245 l 159 365 z "},">":{"ha":814,"x_min":132,"x_max":873,"o":"m 180 754 l 873 433 l 180 102 l 132 210 l 604 431 l 132 647 l 180 754 z "},"?":{"ha":814,"x_min":254,"x_max":779,"o":"m 256 570 l 296 751 q 437 793 393 783 q 538 803 481 803 q 722 742 665 803 q 779 602 779 681 q 766 523 779 560 q 734 460 753 486 q 686 410 716 434 q 633 373 656 387 q 576 346 610 359 q 526 328 541 332 q 484 316 510 323 l 469 243 l 350 243 l 385 410 l 412 416 l 427 420 q 501 439 472 430 q 571 469 530 449 q 633 521 612 488 q 655 597 655 553 q 640 648 655 628 q 601 675 625 667 q 562 684 576 682 q 533 686 548 686 q 396 659 472 686 l 376 570 l 256 570 m 387 193 q 462 165 433 193 q 491 99 491 138 q 451 14 491 50 q 358 -22 411 -22 q 283 5 312 -22 q 254 72 254 33 q 294 157 254 121 q 387 193 334 193 z "},"@":{"ha":814,"x_min":95,"x_max":886,"o":"m 732 171 l 758 90 q 382 -16 559 -16 q 257 5 312 -16 q 173 58 202 27 q 125 130 144 90 q 100 202 106 171 q 95 263 95 233 q 125 448 95 355 q 214 622 156 541 q 370 753 273 703 q 587 803 468 803 q 809 728 732 803 q 886 540 886 652 q 806 291 886 403 q 609 179 726 179 q 510 237 540 179 q 369 175 438 175 q 306 203 334 175 q 278 279 278 231 q 368 497 278 384 q 557 610 458 610 q 621 575 594 610 l 635 604 l 732 604 l 621 374 q 595 305 595 323 q 606 281 595 292 q 633 271 616 271 q 741 351 690 271 q 791 524 791 430 q 765 627 791 585 q 699 686 739 669 q 627 708 658 703 q 566 713 597 713 q 364 647 452 713 q 235 486 277 581 q 194 290 194 391 q 406 76 194 76 q 527 91 465 76 q 627 122 589 106 q 732 171 665 138 m 397 270 q 498 349 444 270 q 553 480 553 427 q 529 515 553 515 q 432 435 487 515 q 377 302 377 355 q 397 270 377 270 z "},"A":{"ha":814,"x_min":-8,"x_max":833,"o":"m 296 791 l 621 791 l 754 111 l 833 111 l 808 0 l 484 0 l 509 111 l 629 111 l 606 243 l 302 243 l 221 111 l 340 111 l 316 0 l -8 0 l 16 111 l 92 111 l 444 680 l 271 680 l 296 791 m 586 357 l 534 614 l 372 357 l 586 357 z "},"B":{"ha":814,"x_min":37,"x_max":825,"o":"m 205 791 l 583 791 q 625 789 606 791 q 685 779 644 788 q 753 752 726 769 q 802 699 780 735 q 825 610 825 662 q 716 415 825 487 q 799 267 799 365 q 770 155 799 206 q 701 71 742 103 q 607 22 662 38 q 515 3 552 5 q 418 0 477 0 l 37 0 l 61 111 l 171 111 l 290 680 l 180 680 l 205 791 m 568 680 l 410 680 l 365 468 l 502 468 q 599 482 557 468 q 659 513 640 496 q 688 553 677 530 q 700 587 699 576 q 701 605 701 597 q 568 680 701 680 m 486 354 l 342 354 l 290 111 l 423 111 q 623 152 572 111 q 675 258 675 195 q 633 329 675 304 q 486 354 591 354 z "},"C":{"ha":814,"x_min":140,"x_max":928,"o":"m 825 798 l 928 772 q 853 479 865 635 l 746 486 q 753 568 753 556 q 736 634 753 606 q 692 674 719 662 q 642 691 666 686 q 595 696 618 696 q 362 578 461 696 q 263 296 263 460 q 469 95 263 95 q 580 111 528 95 q 661 144 632 127 q 746 201 689 161 l 810 102 q 724 44 758 65 q 616 1 689 23 q 464 -22 544 -22 q 220 67 300 -22 q 140 300 140 156 q 279 661 140 510 q 604 812 418 812 q 796 716 736 812 l 825 798 z "},"D":{"ha":814,"x_min":23,"x_max":853,"o":"m 191 791 l 538 791 q 751 745 686 791 q 824 654 795 715 q 853 513 853 594 q 846 429 853 477 q 804 288 840 380 q 708 127 769 197 q 381 0 595 0 l 23 0 l 47 111 l 152 111 l 271 680 l 167 680 l 191 791 m 530 680 l 392 680 l 273 111 l 392 111 q 618 202 544 111 q 702 357 677 273 q 727 500 727 441 q 674 650 727 605 q 530 680 640 680 z "},"E":{"ha":814,"x_min":54,"x_max":899,"o":"m 222 791 l 899 791 l 844 498 l 730 498 l 755 680 l 430 680 l 387 475 l 544 475 l 564 570 l 680 570 l 614 264 l 500 264 l 519 358 l 362 358 l 311 111 l 647 111 l 692 294 l 807 294 l 743 0 l 54 0 l 79 111 l 190 111 l 311 680 l 198 680 l 222 791 z "},"F":{"ha":814,"x_min":75,"x_max":909,"o":"m 243 791 l 909 791 l 856 498 l 745 498 l 766 680 l 444 680 l 400 475 l 557 475 l 578 571 l 693 571 l 628 266 l 513 266 l 533 358 l 376 358 l 324 111 l 495 111 l 471 0 l 75 0 l 99 111 l 206 111 l 324 680 l 218 680 l 243 791 z "},"G":{"ha":814,"x_min":115,"x_max":909,"o":"m 492 377 l 871 377 l 846 263 l 784 263 l 738 47 l 719 41 q 431 -22 551 -22 q 199 64 282 -22 q 115 293 115 149 q 176 541 115 422 q 344 736 236 661 q 578 812 452 812 q 772 711 700 812 l 799 796 l 909 773 q 838 491 846 631 l 726 472 q 728 547 728 518 q 712 625 728 593 q 669 671 696 656 q 619 692 643 686 q 571 699 595 699 q 339 576 437 699 q 241 296 241 453 q 450 95 241 95 q 636 133 537 95 l 663 263 l 468 263 l 492 377 z "},"H":{"ha":814,"x_min":30,"x_max":939,"o":"m 198 791 l 515 791 l 491 680 l 392 680 l 347 465 l 650 465 l 696 680 l 597 680 l 621 791 l 939 791 l 914 680 l 815 680 l 696 111 l 795 111 l 770 0 l 453 0 l 477 111 l 576 111 l 627 351 l 324 351 l 273 111 l 372 111 l 347 0 l 30 0 l 54 111 l 153 111 l 273 680 l 174 680 l 198 791 z "},"I":{"ha":814,"x_min":109,"x_max":856,"o":"m 277 791 l 856 791 l 831 680 l 602 680 l 483 111 l 712 111 l 688 0 l 109 0 l 133 111 l 362 111 l 483 680 l 252 680 l 277 791 z "},"J":{"ha":814,"x_min":83,"x_max":960,"o":"m 415 791 l 960 791 l 936 680 l 769 680 l 686 289 q 618 98 659 155 q 517 10 579 42 q 382 -22 454 -22 q 83 71 264 -22 l 138 396 l 258 396 l 231 237 q 224 178 224 210 q 273 117 224 140 q 377 95 323 95 q 463 109 429 95 q 518 155 498 123 q 548 216 538 187 q 568 300 557 245 l 648 680 l 391 680 l 415 791 z "},"K":{"ha":814,"x_min":58,"x_max":935,"o":"m 227 791 l 560 791 l 533 680 l 433 680 l 391 472 l 659 677 l 659 680 l 600 680 l 623 791 l 935 791 l 910 680 l 841 680 l 533 438 q 606 311 578 369 q 681 134 633 252 l 690 111 l 829 111 l 804 0 l 604 0 q 528 189 562 118 q 433 366 495 259 l 355 308 l 313 111 l 425 111 l 400 0 l 58 0 l 83 111 l 194 111 l 313 680 l 202 680 l 227 791 z "},"L":{"ha":814,"x_min":56,"x_max":840,"o":"m 224 791 l 636 791 l 612 680 l 450 680 l 330 111 l 648 111 l 719 377 l 840 377 l 742 0 l 56 0 l 80 111 l 210 111 l 330 680 l 199 680 l 224 791 z "},"M":{"ha":814,"x_min":-18,"x_max":970,"o":"m 160 791 l 423 791 l 479 393 l 495 393 l 709 791 l 970 791 l 945 680 l 863 680 l 762 111 l 842 111 l 818 0 l 479 0 l 502 111 l 642 111 l 722 570 l 697 570 l 502 205 l 395 205 l 336 585 l 312 585 l 197 111 l 336 111 l 312 0 l -18 0 l 7 111 l 79 111 l 218 680 l 136 680 l 160 791 z "},"N":{"ha":814,"x_min":16,"x_max":968,"o":"m 176 791 l 425 791 l 617 198 l 642 198 l 743 680 l 617 680 l 642 791 l 968 791 l 944 680 l 863 680 l 715 -16 l 571 -16 l 373 586 l 349 586 l 248 111 l 378 111 l 354 0 l 16 0 l 41 111 l 129 111 l 248 680 l 152 680 l 176 791 z "},"O":{"ha":814,"x_min":109,"x_max":859,"o":"m 109 304 q 163 534 109 419 q 326 731 218 650 q 563 812 433 812 q 688 789 633 812 q 773 732 742 766 q 825 654 804 699 q 852 570 845 609 q 859 495 859 532 q 802 254 859 372 q 637 57 745 136 q 403 -22 530 -22 q 271 5 328 -22 q 184 68 214 31 q 136 153 155 104 q 113 237 118 202 q 109 304 109 271 m 235 308 q 240 248 235 278 q 262 180 245 218 q 316 117 278 141 q 410 92 354 92 q 637 217 541 92 q 732 491 732 342 q 726 549 732 519 q 702 616 719 579 q 648 675 685 652 q 556 699 610 699 q 392 637 468 699 q 275 486 316 575 q 235 308 235 396 z "},"P":{"ha":814,"x_min":102,"x_max":879,"o":"m 269 791 l 587 791 q 810 736 747 791 q 879 576 879 678 q 850 461 879 518 q 776 365 821 404 q 679 312 735 330 q 578 292 623 294 q 442 289 533 289 l 387 289 l 351 111 l 543 111 l 518 0 l 102 0 l 126 111 l 232 111 l 351 680 l 244 680 l 269 791 m 579 680 l 469 680 l 411 403 l 452 403 q 611 411 557 403 q 696 448 665 419 q 755 575 755 502 q 741 635 755 612 q 694 667 726 658 q 641 677 663 675 q 579 680 618 680 z "},"Q":{"ha":814,"x_min":109,"x_max":859,"o":"m 681 -9 l 738 -100 q 562 -167 633 -167 q 445 -134 514 -167 q 363 -111 395 -111 q 263 -134 313 -111 q 220 -155 255 -137 q 179 -176 184 -174 l 141 -73 q 259 11 198 -46 q 155 111 201 34 q 109 285 109 189 q 243 654 109 496 q 566 812 377 812 q 662 797 614 812 q 755 747 709 781 q 830 648 802 713 q 859 496 859 583 q 832 333 859 416 q 757 176 806 250 q 629 51 708 102 q 453 -8 549 0 l 453 -11 q 518 -38 467 -15 q 574 -50 555 -50 q 662 -19 608 -50 l 681 -9 m 235 308 q 240 248 235 278 q 262 180 245 218 q 316 117 278 141 q 410 92 354 92 q 637 217 541 92 q 732 491 732 342 q 726 549 732 519 q 702 616 719 579 q 648 675 685 652 q 556 699 610 699 q 392 637 468 699 q 275 486 316 575 q 235 308 235 396 z "},"R":{"ha":814,"x_min":38,"x_max":814,"o":"m 206 791 l 562 791 q 604 790 589 791 q 648 786 618 789 q 697 777 678 783 q 739 757 716 770 q 777 724 762 743 q 800 675 791 705 q 810 608 810 646 q 777 487 810 544 q 692 395 743 430 q 582 347 650 368 q 682 111 652 199 l 814 111 l 789 0 l 582 0 q 450 338 541 151 l 336 338 l 289 111 l 408 111 l 381 0 l 38 0 l 62 111 l 170 111 l 289 680 l 182 680 l 206 791 m 553 680 l 408 680 l 359 452 l 452 452 q 624 487 576 452 q 689 605 689 536 q 682 642 689 627 q 666 664 675 656 q 635 675 656 671 q 600 679 614 678 q 553 680 586 680 z "},"S":{"ha":814,"x_min":66,"x_max":875,"o":"m 772 822 l 875 791 q 820 659 834 707 q 787 503 806 610 l 684 519 q 692 586 692 557 q 549 700 692 700 q 407 659 463 700 q 351 560 351 618 q 362 515 351 534 q 386 487 373 496 q 422 471 399 477 q 459 463 446 464 q 496 460 472 461 q 656 423 600 454 q 754 255 754 366 q 736 168 754 213 q 683 80 719 123 q 578 9 647 37 q 420 -19 510 -19 q 292 1 336 -19 q 205 65 248 22 l 178 -24 l 66 -7 q 114 134 102 84 q 137 277 126 183 l 241 277 q 248 183 241 201 q 422 102 281 102 q 576 146 521 102 q 631 251 631 191 q 622 290 631 274 q 602 314 613 305 q 565 328 590 323 q 523 336 540 334 q 471 340 506 338 q 311 391 366 350 q 250 465 273 419 q 228 559 228 511 q 315 737 228 658 q 544 817 403 817 q 732 735 670 817 l 772 822 z "},"T":{"ha":814,"x_min":140,"x_max":913,"o":"m 233 791 l 913 791 l 867 463 l 749 463 l 779 680 l 608 680 l 490 111 l 650 111 l 625 0 l 189 0 l 213 111 l 370 111 l 490 680 l 320 680 l 259 463 l 140 463 l 233 791 z "},"U":{"ha":814,"x_min":163,"x_max":960,"o":"m 187 791 l 536 791 l 511 680 l 378 680 l 304 328 q 286 197 286 244 q 303 140 286 163 q 347 110 320 118 q 389 100 374 102 q 418 98 403 98 q 499 106 464 98 q 558 133 534 114 q 597 168 582 152 q 625 218 613 184 q 641 270 636 251 q 654 328 646 289 l 727 680 l 594 680 l 618 791 l 960 791 l 937 680 l 844 680 l 766 311 q 716 147 742 202 q 647 58 690 92 q 410 -22 549 -22 q 237 33 308 -22 q 167 190 167 87 q 187 342 167 241 l 259 680 l 163 680 l 187 791 z "},"V":{"ha":814,"x_min":133,"x_max":981,"o":"m 157 791 l 492 791 l 467 680 l 353 680 l 438 170 l 742 680 l 623 680 l 647 791 l 981 791 l 956 680 l 869 680 l 467 0 l 346 0 l 233 680 l 133 680 l 157 791 z "},"W":{"ha":814,"x_min":127,"x_max":986,"o":"m 152 791 l 464 791 l 439 680 l 309 680 l 278 273 l 281 270 l 499 639 l 582 639 l 633 264 l 636 264 l 780 680 l 651 680 l 675 791 l 986 791 l 962 680 l 898 680 l 658 0 l 551 0 l 492 422 l 490 422 l 251 0 l 141 0 l 194 680 l 127 680 l 152 791 z "},"X":{"ha":814,"x_min":22,"x_max":920,"o":"m 216 791 l 525 791 l 499 680 l 416 680 l 506 503 l 669 680 l 601 680 l 625 791 l 920 791 l 895 680 l 819 680 l 557 410 l 716 111 l 802 111 l 777 0 l 457 0 l 481 111 l 579 111 l 472 320 l 273 111 l 381 111 l 357 0 l 22 0 l 46 111 l 122 111 l 416 419 l 279 680 l 191 680 l 216 791 z "},"Y":{"ha":814,"x_min":164,"x_max":947,"o":"m 187 791 l 500 791 l 476 680 l 393 680 l 490 430 l 690 680 l 613 680 l 639 791 l 947 791 l 922 680 l 831 680 l 524 298 l 484 111 l 639 111 l 613 0 l 187 0 l 209 111 l 366 111 l 407 311 l 263 680 l 164 680 l 187 791 z "},"Z":{"ha":814,"x_min":90,"x_max":848,"o":"m 266 791 l 848 791 l 827 696 l 277 111 l 618 111 l 663 327 l 779 327 l 709 0 l 90 0 l 110 100 l 654 680 l 358 680 l 317 486 l 201 486 l 266 791 z "},"[":{"ha":814,"x_min":393,"x_max":675,"o":"m 393 911 l 675 911 l 675 791 l 511 791 l 511 -5 l 675 -5 l 675 -123 l 393 -123 l 393 911 z "},"\\":{"ha":814,"x_min":293,"x_max":680,"o":"m 404 997 l 680 -136 l 568 -182 l 293 952 l 404 997 z "},"]":{"ha":814,"x_min":138,"x_max":420,"o":"m 420 -123 l 138 -123 l 138 -5 l 302 -5 l 302 791 l 138 791 l 138 911 l 420 911 l 420 -123 z "},"^":{"ha":814,"x_min":174,"x_max":817,"o":"m 817 208 l 671 208 l 491 652 l 319 208 l 174 208 l 400 791 l 582 791 l 817 208 z "},"_":{"ha":814,"x_min":-65,"x_max":879,"o":"m -65 -102 l 879 -102 l 879 -170 l -65 -170 l -65 -102 z "},"`":{"ha":814,"x_min":358,"x_max":675,"o":"m 358 865 l 358 871 l 559 871 l 675 738 l 562 738 l 358 865 z "},"a":{"ha":814,"x_min":95,"x_max":780,"o":"m 726 408 l 663 111 l 780 111 l 755 0 l 518 0 l 529 49 q 296 -19 393 -19 q 151 33 206 -19 q 95 161 95 85 q 187 336 95 256 q 450 416 279 416 q 606 404 511 416 q 609 444 606 426 q 612 468 612 465 q 506 526 612 526 q 289 477 415 526 q 265 468 275 472 q 250 463 255 464 l 225 575 q 236 578 231 576 q 245 582 241 581 q 255 586 252 586 q 521 643 412 643 q 674 600 613 643 q 735 480 735 557 q 726 408 735 465 m 560 198 l 581 292 q 449 302 499 302 q 332 287 381 302 q 260 248 282 271 q 228 204 237 224 q 218 167 218 184 q 245 117 218 136 q 302 98 271 98 q 437 131 359 98 q 560 198 515 164 z "},"b":{"ha":814,"x_min":1,"x_max":815,"o":"m 168 865 l 411 879 l 342 553 q 548 621 444 621 q 736 551 658 621 q 815 361 815 480 q 699 103 815 218 q 434 -12 582 -12 q 239 65 312 -12 l 224 0 l 1 0 l 26 111 l 132 111 l 267 754 l 151 749 l 168 865 m 547 505 q 361 426 439 505 q 283 255 283 347 q 329 145 283 186 q 442 104 374 104 q 614 182 540 104 q 689 355 689 260 q 646 466 689 427 q 547 505 604 505 z "},"c":{"ha":814,"x_min":132,"x_max":838,"o":"m 743 642 l 838 623 q 785 369 791 511 l 677 354 q 680 426 680 404 q 538 519 680 519 q 334 437 412 519 q 256 252 256 354 q 277 168 256 202 q 328 121 297 134 q 380 102 358 107 q 419 98 401 98 q 705 209 526 98 l 755 107 q 656 48 694 69 q 546 4 618 27 q 407 -19 473 -19 q 278 7 338 -19 q 175 95 218 33 q 132 247 132 157 q 251 518 132 400 q 534 636 370 636 q 716 567 651 636 l 743 642 z "},"d":{"ha":814,"x_min":111,"x_max":871,"o":"m 540 849 l 871 879 l 709 111 l 819 111 l 795 0 l 566 0 l 576 52 q 374 -14 483 -14 q 182 63 252 -14 q 111 244 111 140 q 228 507 111 393 q 491 620 345 620 q 682 545 600 620 l 724 747 l 502 731 l 540 849 m 633 349 q 590 465 633 427 q 488 503 547 503 q 312 427 387 503 q 237 252 237 351 q 281 140 237 178 q 377 103 324 103 q 559 182 484 103 q 633 349 633 262 z "},"e":{"ha":814,"x_min":134,"x_max":817,"o":"m 739 189 l 773 79 q 426 -19 574 -19 q 212 52 290 -19 q 134 241 134 122 q 252 515 134 395 q 540 636 369 636 q 745 565 674 636 q 817 393 817 494 q 798 292 817 351 l 789 266 l 258 266 q 262 216 259 236 q 281 165 266 197 q 334 117 296 134 q 433 100 373 100 q 569 122 500 100 q 739 189 637 144 m 293 377 l 693 377 q 691 405 692 395 q 682 439 690 415 q 657 479 673 464 q 609 507 642 494 q 532 519 576 519 q 293 377 381 519 z "},"f":{"ha":814,"x_min":106,"x_max":879,"o":"m 233 601 l 370 601 l 382 656 q 406 736 393 704 q 448 802 419 768 q 527 854 476 837 q 652 872 578 872 q 879 848 764 872 l 819 732 q 627 758 684 758 q 566 751 589 758 q 530 724 543 745 q 512 690 517 704 q 499 639 507 677 l 491 601 l 734 601 l 709 487 l 467 487 l 388 111 l 627 111 l 602 0 l 106 0 l 130 111 l 269 111 l 346 487 l 209 487 l 233 601 z "},"g":{"ha":814,"x_min":103,"x_max":888,"o":"m 662 614 l 888 614 l 864 503 l 757 503 l 662 58 q 652 18 656 34 q 636 -29 648 1 q 610 -80 624 -60 q 569 -125 595 -100 q 510 -165 543 -151 q 429 -191 477 -180 q 323 -202 381 -202 q 179 -191 252 -202 l 205 -73 q 327 -85 269 -85 q 536 31 506 -85 l 547 73 q 357 15 454 15 q 174 85 244 15 q 103 262 103 156 q 216 512 103 401 q 477 623 328 623 q 648 555 568 623 l 662 614 m 365 132 q 534 205 464 132 q 604 372 604 278 q 566 467 604 429 q 471 506 528 506 q 302 433 376 506 q 229 271 229 361 q 268 170 229 209 q 365 132 307 132 z "},"h":{"ha":814,"x_min":28,"x_max":811,"o":"m 190 860 l 445 879 l 378 570 q 575 635 488 635 q 709 584 652 635 q 766 454 766 533 q 757 380 766 427 l 701 111 l 811 111 l 785 0 l 445 0 l 467 111 l 581 111 l 639 389 q 650 456 650 422 q 625 499 650 483 q 572 515 601 515 q 346 416 483 515 l 281 111 l 389 111 l 365 0 l 28 0 l 50 111 l 161 111 l 298 753 l 176 745 l 190 860 z "},"i":{"ha":814,"x_min":115,"x_max":716,"o":"m 283 614 l 597 614 l 490 111 l 716 111 l 692 0 l 115 0 l 140 111 l 370 111 l 453 503 l 259 503 l 283 614 m 477 732 l 515 911 l 659 911 l 623 732 l 477 732 z "},"j":{"ha":814,"x_min":30,"x_max":715,"o":"m 225 614 l 680 614 l 566 77 q 552 21 559 45 q 521 -48 545 -3 q 465 -123 496 -94 q 373 -175 433 -152 q 237 -198 313 -198 q 30 -168 152 -198 l 83 -56 q 260 -81 195 -81 q 351 -66 315 -81 q 407 -22 388 -52 q 433 29 426 7 q 449 88 441 52 l 532 503 l 201 503 l 225 614 m 532 732 l 570 911 l 715 911 l 677 732 l 532 732 z "},"k":{"ha":814,"x_min":4,"x_max":810,"o":"m 164 859 l 419 879 l 316 400 l 491 500 l 491 503 l 446 503 l 472 614 l 810 614 l 785 503 l 682 503 l 446 353 q 623 111 568 201 l 751 111 l 727 0 l 401 0 l 426 111 l 481 111 q 345 288 408 214 l 285 248 l 232 0 l 4 0 l 28 111 l 137 111 l 273 753 l 151 742 l 164 859 z "},"l":{"ha":814,"x_min":111,"x_max":711,"o":"m 294 834 l 639 856 l 481 111 l 711 111 l 686 0 l 111 0 l 136 111 l 365 111 l 496 734 l 282 719 l 294 834 z "},"m":{"ha":814,"x_min":-7,"x_max":840,"o":"m 123 614 l 315 614 l 307 576 q 433 631 378 631 q 540 566 503 631 q 696 631 627 631 q 799 591 758 631 q 840 495 840 552 q 823 381 840 463 l 766 111 l 830 111 l 806 0 l 624 0 l 707 385 l 713 423 q 720 475 720 460 q 711 501 720 488 q 678 514 701 514 q 559 442 631 514 l 490 111 l 571 111 l 547 0 l 349 0 l 431 391 q 444 467 444 456 q 434 498 444 481 q 403 514 425 514 q 281 442 357 514 l 212 111 l 307 111 l 281 0 l -7 0 l 18 111 l 98 111 l 178 503 l 98 503 l 123 614 z "},"n":{"ha":814,"x_min":22,"x_max":806,"o":"m 153 614 l 384 614 l 372 570 q 572 635 486 635 q 704 585 647 635 q 761 454 761 536 q 751 380 761 404 l 696 111 l 806 111 l 781 0 l 439 0 l 461 111 l 576 111 l 635 389 q 644 454 644 437 q 621 498 644 481 q 564 515 597 515 q 340 419 477 515 l 275 111 l 384 111 l 361 0 l 22 0 l 46 111 l 153 111 l 237 503 l 129 503 l 153 614 z "},"o":{"ha":814,"x_min":107,"x_max":823,"o":"m 530 643 q 743 572 662 643 q 823 376 823 500 q 794 237 823 307 q 713 110 765 167 q 578 17 661 53 q 401 -19 496 -19 q 190 50 273 -19 q 107 248 107 119 q 224 521 107 399 q 530 643 342 643 m 521 526 q 313 441 392 526 q 233 255 233 357 q 277 142 233 186 q 411 98 321 98 q 617 182 537 98 q 697 368 697 267 q 653 481 697 435 q 521 526 609 526 z "},"p":{"ha":814,"x_min":-39,"x_max":823,"o":"m 136 614 l 362 614 l 353 568 q 559 633 456 633 q 756 555 689 633 q 823 374 823 476 q 713 114 823 237 q 445 -9 604 -9 q 245 69 328 -9 l 212 -95 l 407 -95 l 384 -206 l -39 -206 l -15 -95 l 92 -95 l 218 503 l 111 503 l 136 614 m 555 517 q 366 439 445 517 q 286 259 286 361 q 335 149 286 191 q 444 107 384 107 q 622 189 544 107 q 700 369 700 270 q 662 475 700 434 q 555 517 624 517 z "},"q":{"ha":814,"x_min":106,"x_max":925,"o":"m 699 614 l 925 614 l 901 503 l 792 503 l 667 -90 l 776 -90 l 751 -201 l 330 -201 l 354 -90 l 549 -90 l 579 57 q 372 -11 483 -11 q 178 66 250 -11 q 106 251 106 144 q 224 514 106 397 q 492 631 342 631 q 685 553 610 631 l 699 614 m 373 106 q 559 181 477 106 q 642 362 642 256 q 595 473 642 433 q 481 514 548 514 q 306 433 382 514 q 229 262 229 351 q 269 151 229 195 q 373 106 308 106 z "},"r":{"ha":814,"x_min":77,"x_max":875,"o":"m 220 614 l 491 614 l 475 541 l 477 538 q 690 629 574 629 q 875 449 844 629 l 750 433 q 742 469 746 456 q 722 498 738 483 q 681 513 707 513 q 433 342 581 513 l 384 111 l 633 111 l 609 0 l 77 0 l 102 111 l 266 111 l 349 503 l 195 503 l 220 614 z "},"s":{"ha":814,"x_min":110,"x_max":800,"o":"m 705 646 l 800 632 q 750 404 754 499 l 644 404 q 647 435 647 415 q 616 498 647 480 q 499 519 576 519 q 379 491 426 519 q 332 429 332 463 q 364 388 332 400 q 481 370 396 376 q 553 366 530 368 q 621 353 576 363 q 687 328 665 343 q 728 283 709 313 q 746 213 746 254 q 652 51 746 117 q 434 -15 559 -15 q 237 49 315 -15 l 216 -20 l 110 -5 q 159 229 151 104 l 267 236 q 271 171 267 186 q 300 131 278 146 q 353 110 323 115 q 399 103 384 104 q 427 102 415 102 q 564 130 505 102 q 623 209 623 159 q 619 227 623 221 q 593 240 616 233 q 524 250 570 247 q 479 252 492 250 q 414 256 441 254 q 345 269 388 259 q 276 296 302 279 q 229 344 250 312 q 209 419 209 376 q 294 572 209 509 q 499 636 380 636 q 681 576 621 636 l 705 646 z "},"t":{"ha":814,"x_min":220,"x_max":755,"o":"m 374 791 l 492 791 l 453 598 l 743 598 l 720 484 l 429 484 l 378 256 q 362 156 362 175 q 445 98 362 98 q 555 115 496 98 q 755 187 614 132 l 755 64 q 442 -19 560 -19 q 296 28 349 -19 q 243 137 243 76 q 264 269 243 167 l 311 484 l 220 484 l 244 598 l 334 598 l 374 791 z "},"u":{"ha":814,"x_min":130,"x_max":787,"o":"m 153 614 l 381 614 l 300 237 q 292 171 292 189 q 309 123 292 148 q 365 98 326 98 q 579 202 471 98 l 643 503 l 532 503 l 556 614 l 787 614 l 681 111 l 787 111 l 762 0 l 537 0 l 548 41 q 362 -19 454 -19 q 267 2 307 -19 q 208 56 227 23 q 180 117 189 88 q 172 172 172 146 q 182 248 172 201 l 236 503 l 130 503 l 153 614 z "},"v":{"ha":814,"x_min":114,"x_max":924,"o":"m 138 614 l 472 614 l 448 503 l 354 503 l 437 167 l 663 503 l 579 503 l 604 614 l 924 614 l 899 503 l 796 503 l 453 0 l 354 0 l 225 503 l 114 503 l 138 614 z "},"w":{"ha":814,"x_min":90,"x_max":948,"o":"m 114 614 l 401 614 l 377 503 l 275 503 l 297 218 l 300 218 l 469 503 l 553 503 l 597 213 l 600 213 l 745 503 l 647 503 l 671 614 l 948 614 l 924 503 l 868 503 l 616 0 l 507 0 l 465 286 l 463 286 l 298 0 l 195 0 l 153 503 l 90 503 l 114 614 z "},"x":{"ha":814,"x_min":14,"x_max":884,"o":"m 164 614 l 472 614 l 448 503 l 399 503 l 477 401 l 605 500 l 605 503 l 556 503 l 581 614 l 884 614 l 860 503 l 774 503 l 545 316 l 707 111 l 811 111 l 787 0 l 465 0 l 490 111 l 551 111 l 453 241 l 301 111 l 359 111 l 335 0 l 14 0 l 38 111 l 129 111 l 384 326 l 244 503 l 140 503 l 164 614 z "},"y":{"ha":814,"x_min":129,"x_max":905,"o":"m 571 614 l 905 614 l 880 503 l 772 503 l 681 75 q 669 24 674 42 q 652 -28 665 7 q 625 -85 639 -64 q 583 -133 610 -106 q 523 -176 556 -160 q 441 -202 490 -191 q 332 -213 392 -213 q 172 -197 270 -213 l 199 -73 q 349 -96 289 -96 q 450 -83 410 -96 q 513 -39 491 -69 q 544 14 536 -8 q 563 81 552 37 q 384 20 469 20 q 236 79 293 20 q 179 239 179 137 q 186 301 179 247 l 229 503 l 129 503 l 152 614 l 476 614 l 452 503 l 350 503 l 304 285 q 298 240 298 256 q 327 161 298 186 q 397 137 355 137 q 600 255 477 137 l 652 503 l 547 503 l 571 614 z "},"z":{"ha":814,"x_min":114,"x_max":815,"o":"m 259 614 l 815 614 l 795 518 l 326 111 l 590 111 l 616 236 l 734 236 l 684 0 l 114 0 l 136 102 l 602 503 l 353 503 l 326 385 l 210 385 l 259 614 z "},"{":{"ha":814,"x_min":296,"x_max":644,"o":"m 644 906 l 644 791 q 592 790 608 791 q 553 785 576 789 q 521 774 530 781 q 504 753 511 766 q 496 718 496 739 q 513 617 496 701 l 522 570 q 530 506 530 513 q 476 391 530 445 q 530 274 530 332 q 513 164 530 255 q 496 64 496 80 q 505 28 496 42 q 522 6 513 14 q 555 -5 532 -1 q 594 -9 578 -8 q 644 -9 610 -9 l 644 -123 q 502 -113 552 -127 q 409 -45 442 -95 q 376 64 376 4 q 395 190 376 103 q 407 275 407 251 q 296 334 407 327 l 296 449 q 349 455 330 452 q 387 472 368 458 q 407 510 407 486 q 406 530 407 518 q 403 552 404 541 q 399 572 401 563 q 396 586 397 581 l 395 593 q 376 715 376 681 q 385 779 376 747 q 418 840 395 810 q 486 889 441 871 q 594 907 532 907 q 614 907 598 907 q 644 906 631 906 z "},"|":{"ha":814,"x_min":427,"x_max":562,"o":"m 562 913 l 562 -250 l 427 -250 l 427 913 l 562 913 z "},"}":{"ha":814,"x_min":170,"x_max":518,"o":"m 518 449 l 518 334 q 467 329 487 332 q 427 311 448 326 q 407 273 407 297 q 419 190 407 239 q 438 68 438 102 q 400 -51 438 -5 q 312 -113 362 -96 q 170 -123 260 -127 l 170 -9 q 220 -9 203 -9 q 259 -5 236 -8 q 292 6 282 -1 q 309 28 301 14 q 317 64 317 42 q 292 213 317 94 q 283 275 283 270 q 338 393 283 335 q 283 509 283 452 q 301 614 283 532 q 317 719 317 704 q 310 753 317 739 q 293 774 302 766 q 260 785 283 781 q 222 790 237 789 q 170 791 206 791 l 170 907 q 312 895 266 910 q 404 829 369 878 q 438 719 438 781 q 419 594 438 680 q 407 507 407 540 q 417 478 407 490 q 448 461 427 467 q 481 454 468 456 q 518 449 494 452 z "},"~":{"ha":814,"x_min":206,"x_max":808,"o":"m 728 559 l 808 468 l 803 460 q 762 397 780 420 q 708 348 745 373 q 629 323 671 323 q 615 323 621 323 q 600 326 609 324 q 587 330 591 328 q 570 336 582 331 q 552 342 557 340 q 528 352 547 345 q 500 363 510 359 q 391 400 411 400 q 343 380 363 400 q 296 311 323 359 l 288 293 l 206 387 l 212 395 q 253 461 236 437 q 308 512 270 486 q 391 538 346 538 q 534 496 438 538 q 629 461 613 461 q 665 475 648 461 q 694 505 682 490 q 728 559 705 521 z "},"¡":{"ha":814,"x_min":313,"x_max":666,"o":"m 479 -180 l 313 -180 l 456 368 l 568 368 l 479 -180 m 533 430 q 458 456 487 430 q 429 524 429 483 q 469 607 429 571 q 563 643 509 643 q 637 616 608 643 q 666 549 666 590 q 626 466 666 502 q 533 430 586 430 z "},"¢":{"ha":814,"x_min":210,"x_max":821,"o":"m 544 856 l 639 856 l 601 674 q 688 624 647 662 l 713 701 l 821 674 q 778 557 788 594 q 766 457 768 519 l 665 431 q 652 526 670 500 q 576 562 635 551 l 506 237 q 707 326 606 259 l 746 221 q 481 111 604 126 l 442 -73 l 346 -73 l 388 122 q 267 188 323 129 q 210 343 210 247 q 298 562 210 465 q 506 674 385 658 l 544 856 m 412 235 l 481 553 q 366 471 406 533 q 326 350 326 410 q 334 296 326 319 q 360 260 343 273 q 387 244 377 248 q 412 235 396 240 z "},"£":{"ha":814,"x_min":153,"x_max":822,"o":"m 210 517 l 317 517 q 316 542 317 519 q 315 576 315 564 q 390 785 315 708 q 585 863 465 863 q 707 831 650 863 q 714 849 711 841 q 719 861 718 857 l 822 849 q 803 693 803 746 q 804 654 803 678 q 804 614 804 629 l 694 614 q 692 659 693 644 q 684 693 690 673 q 667 723 678 713 q 635 739 655 732 q 585 746 614 746 q 434 576 434 746 q 437 517 434 552 l 732 517 l 707 403 l 450 403 q 369 149 454 281 q 500 125 427 153 q 563 109 540 109 q 607 120 587 109 q 637 144 627 132 q 665 183 647 157 l 753 103 q 710 52 727 69 q 652 13 693 34 q 560 -8 610 -8 q 469 9 517 -8 q 377 35 410 35 q 312 23 342 35 q 210 -27 282 11 l 153 75 q 331 403 335 218 l 184 403 l 210 517 z "},"¤":{"ha":814,"x_min":161,"x_max":827,"o":"m 715 262 l 827 152 l 743 71 l 633 179 q 495 138 563 138 q 355 179 429 138 l 245 71 l 161 152 l 274 262 l 256 294 q 235 389 235 338 q 256 503 235 460 l 274 534 l 161 644 l 245 726 l 355 618 l 385 633 q 486 658 426 658 q 605 633 557 658 l 633 618 l 743 726 l 827 644 l 716 536 q 755 389 761 472 q 715 262 751 308 m 640 399 q 601 499 640 456 q 495 543 562 543 q 389 498 427 543 q 350 399 350 454 q 390 296 350 339 q 495 254 430 254 q 600 296 559 254 q 640 399 640 339 z "},"¥":{"ha":814,"x_min":179,"x_max":959,"o":"m 507 187 l 488 111 l 648 111 l 624 0 l 194 0 l 217 111 l 370 111 l 391 187 l 194 187 l 217 274 l 408 274 l 422 339 l 225 339 l 248 426 l 435 426 l 274 719 l 179 719 l 203 830 l 514 830 l 488 719 l 408 719 l 522 496 l 716 719 l 624 719 l 648 830 l 959 830 l 935 719 l 844 719 l 564 426 l 746 426 l 723 339 l 540 339 l 522 274 l 716 274 l 692 187 l 507 187 z "},"¦":{"ha":814,"x_min":427,"x_max":562,"o":"m 562 913 l 562 404 l 427 404 l 427 913 l 562 913 m 562 259 l 562 -250 l 427 -250 l 427 259 l 562 259 z "},"§":{"ha":814,"x_min":132,"x_max":823,"o":"m 823 791 l 774 560 l 652 560 l 677 671 l 566 671 q 476 609 476 671 q 499 564 476 587 l 652 425 q 719 353 697 385 q 741 277 741 320 q 606 111 741 163 q 612 66 612 73 q 600 12 612 41 q 564 -47 589 -16 q 489 -99 538 -79 q 373 -119 439 -119 l 132 -119 l 183 123 l 304 123 l 277 0 l 389 0 q 460 16 431 0 q 488 64 488 33 q 460 111 488 87 l 313 248 q 252 316 273 285 q 232 393 232 347 q 264 482 232 439 q 359 553 296 525 q 353 604 353 578 q 363 656 353 628 q 395 717 373 685 q 465 770 418 749 q 578 791 513 791 l 823 791 m 564 339 l 434 460 q 355 397 355 439 q 393 339 355 373 l 534 209 q 590 229 570 214 q 614 254 610 244 q 617 270 617 263 q 564 339 617 290 z "},"¨":{"ha":814,"x_min":385,"x_max":753,"o":"m 385 723 l 420 879 l 552 879 l 517 723 l 385 723 m 586 723 l 621 879 l 753 879 l 718 723 l 586 723 z "},"©":{"ha":814,"x_min":92,"x_max":888,"o":"m 705 595 l 678 467 l 618 467 q 621 492 621 475 q 552 568 621 568 q 439 507 484 568 q 395 365 395 446 q 418 286 395 320 q 494 252 441 252 q 612 323 563 252 l 659 302 q 574 218 629 248 q 452 187 518 187 q 320 235 362 187 q 278 357 278 283 q 355 546 278 463 q 551 629 431 629 q 705 595 628 629 m 490 812 q 771 696 654 812 q 888 415 888 581 q 772 135 888 252 q 490 18 655 18 q 209 134 326 18 q 92 415 92 251 q 210 696 92 581 q 490 812 327 812 m 715 641 q 668 687 715 641 q 490 734 621 734 q 264 641 358 734 q 171 415 171 548 q 265 190 171 283 q 490 96 359 96 q 715 190 621 96 q 810 415 810 283 q 715 641 810 548 z "},"ª":{"ha":814,"x_min":279,"x_max":708,"o":"m 422 705 l 407 773 q 480 799 467 796 q 571 814 529 814 q 653 791 623 814 q 684 728 684 768 l 680 690 l 648 543 l 708 543 l 693 471 l 559 471 l 564 496 q 446 461 506 461 q 342 555 350 461 q 399 658 346 618 q 534 697 453 697 q 606 692 563 697 l 608 709 q 555 741 608 741 q 422 705 507 741 m 585 593 l 590 620 q 525 624 559 624 q 450 610 479 624 q 420 570 422 595 q 464 536 425 536 q 585 593 517 536 m 294 414 l 696 414 l 680 340 l 279 340 l 294 414 z "},"«":{"ha":814,"x_min":130,"x_max":848,"o":"m 793 597 l 848 503 l 562 326 l 770 145 l 685 52 l 393 326 l 793 597 m 544 628 l 605 538 l 297 326 l 509 111 l 415 24 l 130 326 l 544 628 z "},"¬":{"ha":814,"x_min":193,"x_max":808,"o":"m 193 627 l 808 627 l 808 221 l 689 221 l 689 507 l 193 507 l 193 627 z "},"®":{"ha":814,"x_min":92,"x_max":888,"o":"m 368 643 l 555 643 q 597 641 581 643 q 641 631 614 639 q 682 603 667 624 q 696 549 696 582 q 670 476 696 517 q 589 419 644 435 q 629 334 613 399 q 652 266 644 271 q 684 262 658 262 l 674 216 l 621 216 q 556 231 571 216 q 528 312 541 247 q 502 393 513 385 q 463 397 496 397 l 438 286 q 437 271 437 279 q 443 263 437 264 q 479 262 449 262 l 472 216 l 275 216 l 285 262 q 326 265 319 262 q 338 286 334 269 l 399 572 q 395 591 401 589 q 357 594 389 594 l 368 643 m 502 589 l 472 449 q 510 451 495 449 q 547 461 525 453 q 582 490 570 469 q 594 545 594 511 q 540 591 594 591 q 502 589 511 591 m 490 812 q 771 696 654 812 q 888 415 888 581 q 772 135 888 252 q 490 18 655 18 q 209 134 326 18 q 92 415 92 251 q 210 696 92 581 q 490 812 327 812 m 715 641 q 668 687 715 641 q 490 734 621 734 q 264 641 358 734 q 171 415 171 548 q 265 190 171 283 q 490 96 359 96 q 715 190 621 96 q 810 415 810 283 q 715 641 810 548 z "},"¯":{"ha":814,"x_min":321,"x_max":811,"o":"m 346 861 l 811 861 l 785 746 l 321 746 l 346 861 z "},"°":{"ha":814,"x_min":282,"x_max":707,"o":"m 282 655 q 344 805 282 743 q 494 867 406 867 q 644 805 582 867 q 707 655 707 743 q 644 505 707 567 q 494 442 582 442 q 344 504 406 442 q 282 655 282 566 m 392 655 q 422 582 392 612 q 494 552 452 552 q 567 582 537 552 q 597 655 597 612 q 567 727 597 697 q 494 757 537 757 q 421 727 450 757 q 392 655 392 697 z "},"±":{"ha":814,"x_min":159,"x_max":826,"o":"m 433 815 l 552 815 l 552 560 l 826 560 l 826 441 l 552 441 l 552 186 l 433 186 l 433 441 l 159 441 l 159 560 l 433 560 l 433 815 m 159 151 l 826 151 l 826 31 l 159 31 l 159 151 z "},"²":{"ha":814,"x_min":214,"x_max":644,"o":"m 521 498 l 595 498 l 563 345 l 214 345 l 229 415 l 248 429 q 452 581 248 429 q 522 640 505 623 q 549 677 540 658 q 560 723 560 701 q 538 770 560 750 q 487 791 517 791 q 406 757 439 791 q 387 708 393 743 l 307 708 l 323 785 q 507 867 410 867 q 604 831 566 867 q 644 738 642 795 q 614 639 639 675 q 562 579 589 602 q 441 486 486 517 l 353 423 l 353 420 l 505 420 l 521 498 z "},"³":{"ha":814,"x_min":217,"x_max":618,"o":"m 342 738 l 315 802 q 419 854 384 841 q 492 867 454 867 q 583 837 548 867 q 618 757 617 807 q 601 683 616 711 q 551 624 586 655 q 595 529 595 589 q 530 392 595 450 q 378 334 465 334 q 251 366 327 334 l 217 381 l 263 453 q 396 410 345 410 q 479 441 445 410 q 513 518 513 473 q 491 563 513 547 q 430 578 469 579 l 385 576 l 401 654 q 469 659 450 655 q 506 678 488 663 q 536 741 536 704 q 518 777 536 762 q 475 791 500 791 q 377 757 441 791 l 342 738 z "},"´":{"ha":814,"x_min":433,"x_max":789,"o":"m 789 865 l 553 738 l 433 738 l 600 871 l 789 871 l 789 865 z "},"µ":{"ha":814,"x_min":98,"x_max":800,"o":"m 163 614 l 385 614 l 313 281 q 301 194 301 208 q 336 121 301 152 q 419 91 372 91 q 544 141 491 91 q 616 281 597 191 l 663 503 l 555 503 l 578 614 l 800 614 l 692 111 l 800 111 l 777 0 l 555 0 l 571 62 l 568 65 q 408 -20 515 -20 q 330 -3 361 -20 q 290 28 298 14 q 271 65 281 42 l 269 65 l 210 -208 l 98 -208 l 250 503 l 140 503 l 163 614 z "},"¶":{"ha":814,"x_min":163,"x_max":856,"o":"m 769 723 l 606 -39 l 680 -39 l 665 -107 l 488 -107 l 665 723 l 571 723 l 393 -107 l 202 -107 l 216 -39 l 305 -39 l 393 363 q 163 530 163 350 q 251 726 163 647 q 333 771 285 755 q 414 789 381 787 q 509 791 448 791 l 856 791 l 842 723 l 769 723 m 404 425 l 468 723 q 377 625 396 720 l 355 519 q 350 481 350 500 q 363 437 350 448 q 404 425 376 427 z "},"·":{"ha":814,"x_min":366,"x_max":625,"o":"m 518 540 q 593 514 560 540 q 625 445 625 488 q 578 349 625 389 q 475 309 532 309 q 398 335 430 309 q 366 404 366 361 q 414 500 366 460 q 518 540 461 540 z "},"¸":{"ha":814,"x_min":214,"x_max":538,"o":"m 469 9 l 458 -24 q 538 -113 538 -47 q 503 -192 538 -153 q 387 -231 467 -231 q 228 -208 320 -231 q 214 -203 218 -208 l 248 -111 q 392 -136 343 -136 q 423 -126 423 -136 q 380 -110 423 -117 q 366 -109 377 -110 q 354 -107 355 -107 q 332 -104 338 -107 l 369 9 l 469 9 z "},"¹":{"ha":814,"x_min":236,"x_max":606,"o":"m 319 788 l 515 867 l 564 867 l 469 420 l 606 420 l 590 345 l 236 345 l 252 420 l 391 420 l 464 770 l 336 719 l 319 788 z "},"º":{"ha":814,"x_min":279,"x_max":734,"o":"m 581 814 q 704 764 670 807 q 734 675 730 732 q 674 533 728 591 q 505 461 609 461 q 381 510 422 461 q 353 601 354 543 q 411 741 357 682 q 480 792 444 776 q 581 814 517 808 m 566 741 q 464 697 498 735 q 431 614 435 665 q 519 534 434 534 q 614 569 576 534 q 655 661 651 604 q 632 719 652 700 q 566 741 612 738 m 294 414 l 694 414 l 680 340 l 279 340 l 294 414 z "},"»":{"ha":814,"x_min":98,"x_max":812,"o":"m 260 597 l 551 326 l 146 52 l 98 149 l 382 326 l 172 503 l 260 597 m 525 628 l 812 326 l 404 24 l 345 111 l 647 326 l 430 543 l 525 628 z "},"¼":{"ha":814,"x_min":42,"x_max":1008,"o":"m 840 412 l 769 83 l 840 83 l 823 5 l 751 5 l 743 -33 l 815 -33 l 799 -107 l 543 -107 l 559 -33 l 665 -33 l 673 5 l 463 5 l 479 80 l 751 412 l 840 412 m 689 83 l 730 266 l 727 269 l 578 83 l 689 83 m 168 803 l 338 872 l 392 872 l 297 429 l 404 429 l 388 351 l 91 351 l 107 429 l 217 429 l 290 772 l 186 730 l 168 803 m 954 891 l 1008 846 l 94 -127 l 42 -79 l 954 891 z "},"½":{"ha":814,"x_min":33,"x_max":1000,"o":"m 168 803 l 338 872 l 392 872 l 297 429 l 404 429 l 388 351 l 91 351 l 107 429 l 217 429 l 290 772 l 186 730 l 168 803 m 944 891 l 1000 846 l 85 -127 l 33 -79 l 944 891 m 749 45 l 825 45 l 792 -107 l 445 -107 l 460 -34 l 472 -26 l 515 5 l 609 76 q 726 167 674 123 q 791 274 791 222 q 770 317 791 300 q 719 334 750 334 q 656 315 684 334 q 623 269 628 296 l 621 260 l 620 252 l 538 252 l 556 335 q 732 412 637 412 q 833 374 792 412 q 873 279 873 335 q 814 145 873 206 q 696 43 762 94 q 593 -26 662 18 l 593 -28 l 732 -28 l 749 45 z "},"¾":{"ha":814,"x_min":27,"x_max":994,"o":"m 825 412 l 754 83 l 825 83 l 808 5 l 738 5 l 730 -33 l 800 -33 l 784 -107 l 528 -107 l 544 -33 l 650 -33 l 658 5 l 448 5 l 464 80 l 736 412 l 825 412 m 675 83 l 715 266 l 712 269 l 563 83 l 675 83 m 167 745 l 140 808 q 244 861 209 848 q 317 873 279 873 q 408 844 373 873 q 444 764 442 814 q 426 690 441 718 q 376 631 411 662 q 420 536 420 597 q 355 399 420 457 q 203 340 290 340 q 76 373 152 340 l 42 388 l 88 460 q 221 416 170 416 q 304 448 270 416 q 338 525 338 480 q 316 570 338 553 q 255 585 294 586 l 210 583 l 227 661 q 294 666 275 662 q 331 685 313 670 q 361 747 361 711 q 343 783 361 769 q 300 798 326 798 q 202 764 266 798 l 167 745 m 939 891 l 994 846 l 80 -127 l 27 -79 l 939 891 z "},"¿":{"ha":814,"x_min":163,"x_max":686,"o":"m 682 52 l 644 -130 q 549 -159 576 -152 q 481 -174 521 -167 q 401 -180 442 -180 q 286 -161 335 -180 q 211 -111 236 -142 q 174 -46 186 -79 q 163 20 163 -14 q 190 130 163 80 q 250 208 217 180 q 332 260 282 236 q 404 290 381 283 q 456 305 426 297 l 471 378 l 589 378 l 555 212 l 513 202 q 440 182 468 191 q 371 154 412 174 q 308 102 330 134 q 286 26 286 69 q 408 -64 286 -64 q 544 -38 467 -64 l 563 52 l 682 52 m 552 429 q 478 456 507 429 q 449 524 449 483 q 489 607 449 571 q 582 643 529 643 q 656 616 627 643 q 686 549 686 589 q 646 465 686 502 q 552 429 606 429 z "},"À":{"ha":814,"x_min":-8,"x_max":833,"o":"m 296 791 l 621 791 l 754 111 l 833 111 l 808 0 l 484 0 l 509 111 l 629 111 l 606 243 l 302 243 l 221 111 l 340 111 l 316 0 l -8 0 l 16 111 l 92 111 l 444 680 l 271 680 l 296 791 m 586 357 l 534 614 l 372 357 l 586 357 m 399 1042 l 399 1047 l 600 1047 l 716 914 l 602 914 l 399 1042 z "},"Á":{"ha":814,"x_min":-8,"x_max":833,"o":"m 296 791 l 621 791 l 754 111 l 833 111 l 808 0 l 484 0 l 509 111 l 629 111 l 606 243 l 302 243 l 221 111 l 340 111 l 316 0 l -8 0 l 16 111 l 92 111 l 444 680 l 271 680 l 296 791 m 586 357 l 534 614 l 372 357 l 586 357 m 830 1042 l 594 914 l 473 914 l 640 1047 l 830 1047 l 830 1042 z "},"Â":{"ha":814,"x_min":-8,"x_max":833,"o":"m 296 791 l 621 791 l 754 111 l 833 111 l 808 0 l 484 0 l 509 111 l 629 111 l 606 243 l 302 243 l 221 111 l 340 111 l 316 0 l -8 0 l 16 111 l 92 111 l 444 680 l 271 680 l 296 791 m 586 357 l 534 614 l 372 357 l 586 357 m 505 1061 l 621 1061 l 727 944 l 651 902 l 545 967 l 420 902 l 354 947 l 505 1061 z "},"Ã":{"ha":814,"x_min":-8,"x_max":859,"o":"m 296 791 l 621 791 l 754 111 l 833 111 l 808 0 l 484 0 l 509 111 l 629 111 l 606 243 l 302 243 l 221 111 l 340 111 l 316 0 l -8 0 l 16 111 l 92 111 l 444 680 l 271 680 l 296 791 m 586 357 l 534 614 l 372 357 l 586 357 m 768 1070 l 859 1042 q 832 998 842 1013 q 798 954 822 982 q 742 911 774 925 q 670 897 709 897 q 571 939 621 897 q 522 968 536 968 q 494 958 507 968 q 473 937 480 947 q 450 903 465 926 q 448 899 450 902 q 445 895 445 897 l 355 928 q 384 972 372 955 q 418 1016 396 990 q 471 1055 441 1042 q 536 1067 500 1067 q 637 1024 586 1067 q 690 996 670 996 q 764 1062 724 996 q 766 1066 764 1063 q 768 1070 768 1069 z "},"Ä":{"ha":814,"x_min":-8,"x_max":833,"o":"m 296 791 l 621 791 l 754 111 l 833 111 l 808 0 l 484 0 l 509 111 l 629 111 l 606 243 l 302 243 l 221 111 l 340 111 l 316 0 l -8 0 l 16 111 l 92 111 l 444 680 l 271 680 l 296 791 m 586 357 l 534 614 l 372 357 l 586 357 m 426 899 l 461 1055 l 593 1055 l 557 899 l 426 899 m 627 899 l 662 1055 l 793 1055 l 758 899 l 627 899 z "},"Å":{"ha":814,"x_min":-8,"x_max":833,"o":"m 296 791 l 621 791 l 754 111 l 833 111 l 808 0 l 484 0 l 509 111 l 629 111 l 606 243 l 302 243 l 221 111 l 340 111 l 316 0 l -8 0 l 16 111 l 92 111 l 444 680 l 271 680 l 296 791 m 586 357 l 534 614 l 372 357 l 586 357 m 696 996 q 660 910 696 945 q 574 875 624 875 q 488 910 524 875 q 453 996 453 945 q 488 1082 453 1046 q 574 1118 524 1118 q 660 1082 624 1118 q 696 996 696 1047 m 617 996 q 604 1027 617 1015 q 574 1039 591 1039 q 544 1026 556 1039 q 532 996 532 1013 q 544 966 532 978 q 574 954 556 954 q 604 966 591 954 q 617 996 617 978 z "},"Æ":{"ha":814,"x_min":-3,"x_max":972,"o":"m 347 791 l 972 791 l 917 498 l 817 498 l 845 680 l 637 680 l 591 452 l 643 452 l 665 545 l 761 545 l 693 252 l 597 252 l 618 347 l 571 347 l 518 111 l 724 111 l 769 296 l 871 296 l 808 0 l 382 0 l 438 236 l 281 236 l 209 111 l 311 111 l 286 0 l -3 0 l 22 111 l 99 111 l 438 680 l 323 680 l 347 791 m 457 339 l 529 654 l 526 656 l 347 339 l 457 339 z "},"Ç":{"ha":814,"x_min":140,"x_max":928,"o":"m 262 -220 l 296 -127 q 441 -152 381 -152 q 473 -133 473 -152 q 453 -115 473 -119 q 380 -104 446 -113 l 407 -23 q 208 76 275 -9 q 140 297 140 161 q 279 661 140 509 q 604 812 418 812 q 796 716 736 812 l 825 798 l 928 772 q 854 479 865 635 l 747 486 q 753 568 753 543 q 736 634 753 606 q 692 674 719 662 q 643 691 666 686 q 597 696 620 696 q 362 578 461 696 q 263 296 263 460 q 468 95 263 95 q 578 111 526 95 q 661 145 631 127 q 746 201 692 163 l 810 102 q 506 -22 647 -18 l 506 -24 q 587 -122 587 -39 q 547 -210 587 -174 q 435 -247 507 -247 q 262 -220 362 -247 z "},"È":{"ha":814,"x_min":54,"x_max":899,"o":"m 222 791 l 899 791 l 844 498 l 730 498 l 755 680 l 430 680 l 387 475 l 544 475 l 564 570 l 680 570 l 614 264 l 500 264 l 519 358 l 362 358 l 311 111 l 647 111 l 692 294 l 807 294 l 743 0 l 54 0 l 79 111 l 190 111 l 311 680 l 198 680 l 222 791 m 399 1082 l 399 1088 l 600 1088 l 716 955 l 602 955 l 399 1082 z "},"É":{"ha":814,"x_min":54,"x_max":899,"o":"m 222 791 l 899 791 l 844 498 l 730 498 l 755 680 l 430 680 l 387 475 l 544 475 l 564 570 l 680 570 l 614 264 l 500 264 l 519 358 l 362 358 l 311 111 l 647 111 l 692 294 l 807 294 l 743 0 l 54 0 l 79 111 l 190 111 l 311 680 l 198 680 l 222 791 m 830 1042 l 594 914 l 473 914 l 640 1047 l 830 1047 l 830 1042 z "},"Ê":{"ha":814,"x_min":54,"x_max":899,"o":"m 222 791 l 899 791 l 844 498 l 730 498 l 755 680 l 430 680 l 387 475 l 544 475 l 564 570 l 680 570 l 614 264 l 500 264 l 519 358 l 362 358 l 311 111 l 647 111 l 692 294 l 807 294 l 743 0 l 54 0 l 79 111 l 190 111 l 311 680 l 198 680 l 222 791 m 570 1061 l 686 1061 l 792 944 l 716 902 l 610 967 l 486 902 l 419 947 l 570 1061 z "},"Ë":{"ha":814,"x_min":54,"x_max":899,"o":"m 222 791 l 899 791 l 844 498 l 730 498 l 755 680 l 430 680 l 387 475 l 544 475 l 564 570 l 680 570 l 614 264 l 500 264 l 519 358 l 362 358 l 311 111 l 647 111 l 692 294 l 807 294 l 743 0 l 54 0 l 79 111 l 190 111 l 311 680 l 198 680 l 222 791 m 426 899 l 461 1055 l 593 1055 l 557 899 l 426 899 m 627 899 l 662 1055 l 793 1055 l 758 899 l 627 899 z "},"Ì":{"ha":814,"x_min":109,"x_max":856,"o":"m 277 791 l 856 791 l 831 680 l 602 680 l 483 111 l 712 111 l 688 0 l 109 0 l 133 111 l 362 111 l 483 680 l 252 680 l 277 791 m 399 1042 l 399 1047 l 600 1047 l 716 914 l 602 914 l 399 1042 z "},"Í":{"ha":814,"x_min":109,"x_max":856,"o":"m 277 791 l 856 791 l 831 680 l 602 680 l 483 111 l 712 111 l 688 0 l 109 0 l 133 111 l 362 111 l 483 680 l 252 680 l 277 791 m 830 1042 l 594 914 l 473 914 l 640 1047 l 830 1047 l 830 1042 z "},"Î":{"ha":814,"x_min":109,"x_max":856,"o":"m 277 791 l 856 791 l 831 680 l 602 680 l 483 111 l 712 111 l 688 0 l 109 0 l 133 111 l 362 111 l 483 680 l 252 680 l 277 791 m 570 1061 l 686 1061 l 792 944 l 716 902 l 610 967 l 486 902 l 419 947 l 570 1061 z "},"Ï":{"ha":814,"x_min":109,"x_max":856,"o":"m 277 791 l 856 791 l 831 680 l 602 680 l 483 111 l 712 111 l 688 0 l 109 0 l 133 111 l 362 111 l 483 680 l 252 680 l 277 791 m 426 899 l 461 1055 l 593 1055 l 557 899 l 426 899 m 627 899 l 662 1055 l 793 1055 l 758 899 l 627 899 z "},"Ð":{"ha":814,"x_min":23,"x_max":853,"o":"m 202 354 l 99 354 l 123 468 l 227 468 l 271 680 l 167 680 l 191 791 l 538 791 q 751 745 686 791 q 824 654 795 715 q 853 513 853 594 q 846 429 853 477 q 804 288 840 380 q 708 127 769 197 q 381 0 595 0 l 23 0 l 47 111 l 152 111 l 202 354 m 530 680 l 392 680 l 347 468 l 571 468 l 547 354 l 324 354 l 273 111 l 392 111 q 618 202 544 111 q 702 356 677 273 q 727 499 727 439 q 674 650 727 605 q 530 680 640 680 z "},"Ñ":{"ha":814,"x_min":16,"x_max":968,"o":"m 176 791 l 425 791 l 617 198 l 642 198 l 743 680 l 617 680 l 642 791 l 968 791 l 944 680 l 863 680 l 715 -16 l 571 -16 l 373 586 l 349 586 l 248 111 l 378 111 l 354 0 l 16 0 l 41 111 l 129 111 l 248 680 l 152 680 l 176 791 m 768 1070 l 859 1042 q 832 998 842 1013 q 798 954 822 982 q 742 911 774 925 q 670 897 709 897 q 571 939 621 897 q 522 968 536 968 q 494 958 507 968 q 473 937 480 947 q 450 903 465 926 q 448 899 450 902 q 445 895 445 897 l 355 928 q 384 972 372 955 q 418 1016 396 990 q 471 1055 441 1042 q 536 1067 500 1067 q 637 1024 586 1067 q 690 996 670 996 q 764 1062 724 996 q 766 1066 764 1063 q 768 1070 768 1069 z "},"Ò":{"ha":814,"x_min":109,"x_max":859,"o":"m 109 304 q 163 534 109 419 q 326 731 218 650 q 563 812 433 812 q 688 789 633 812 q 773 732 742 766 q 825 654 804 699 q 852 570 845 609 q 859 495 859 532 q 802 254 859 372 q 637 57 745 136 q 403 -22 530 -22 q 271 5 328 -22 q 184 68 214 31 q 136 153 155 104 q 113 237 118 202 q 109 304 109 271 m 235 308 q 240 248 235 278 q 262 180 245 218 q 316 117 278 141 q 410 92 354 92 q 637 217 541 92 q 732 491 732 342 q 726 549 732 519 q 702 616 719 579 q 648 675 685 652 q 556 699 610 699 q 392 637 468 699 q 275 486 316 575 q 235 308 235 396 m 439 1042 l 439 1047 l 640 1047 l 757 914 l 643 914 l 439 1042 z "},"Ó":{"ha":814,"x_min":109,"x_max":859,"o":"m 109 304 q 163 534 109 419 q 326 731 218 650 q 563 812 433 812 q 688 789 633 812 q 773 732 742 766 q 825 654 804 699 q 852 570 845 609 q 859 495 859 532 q 802 254 859 372 q 637 57 745 136 q 403 -22 530 -22 q 271 5 328 -22 q 184 68 214 31 q 136 153 155 104 q 113 237 118 202 q 109 304 109 271 m 235 308 q 240 248 235 278 q 262 180 245 218 q 316 117 278 141 q 410 92 354 92 q 637 217 541 92 q 732 491 732 342 q 726 549 732 519 q 702 616 719 579 q 648 675 685 652 q 556 699 610 699 q 392 637 468 699 q 275 486 316 575 q 235 308 235 396 m 830 1042 l 594 914 l 473 914 l 640 1047 l 830 1047 l 830 1042 z "},"Ô":{"ha":814,"x_min":109,"x_max":859,"o":"m 109 304 q 163 534 109 419 q 326 731 218 650 q 563 812 433 812 q 688 789 633 812 q 773 732 742 766 q 825 654 804 699 q 852 570 845 609 q 859 495 859 532 q 802 254 859 372 q 637 57 745 136 q 403 -22 530 -22 q 271 5 328 -22 q 184 68 214 31 q 136 153 155 104 q 113 237 118 202 q 109 304 109 271 m 235 308 q 240 248 235 278 q 262 180 245 218 q 316 117 278 141 q 410 92 354 92 q 637 217 541 92 q 732 491 732 342 q 726 549 732 519 q 702 616 719 579 q 648 675 685 652 q 556 699 610 699 q 392 637 468 699 q 275 486 316 575 q 235 308 235 396 m 570 1061 l 686 1061 l 792 944 l 716 902 l 610 967 l 486 902 l 419 947 l 570 1061 z "},"Õ":{"ha":814,"x_min":109,"x_max":859,"o":"m 109 304 q 163 534 109 419 q 326 731 218 650 q 563 812 433 812 q 688 789 633 812 q 773 732 742 766 q 825 654 804 699 q 852 570 845 609 q 859 495 859 532 q 802 254 859 372 q 637 57 745 136 q 403 -22 530 -22 q 271 5 328 -22 q 184 68 214 31 q 136 153 155 104 q 113 237 118 202 q 109 304 109 271 m 235 308 q 240 248 235 278 q 262 180 245 218 q 316 117 278 141 q 410 92 354 92 q 637 217 541 92 q 732 491 732 342 q 726 549 732 519 q 702 616 719 579 q 648 675 685 652 q 556 699 610 699 q 392 637 468 699 q 275 486 316 575 q 235 308 235 396 m 768 1070 l 859 1042 q 832 998 842 1013 q 798 954 822 982 q 742 911 774 925 q 670 897 709 897 q 571 939 621 897 q 522 968 536 968 q 494 958 507 968 q 473 937 480 947 q 450 903 465 926 q 448 899 450 902 q 445 895 445 897 l 355 928 q 384 972 372 955 q 418 1016 396 990 q 471 1055 441 1042 q 536 1067 500 1067 q 637 1024 586 1067 q 690 996 670 996 q 764 1062 724 996 q 766 1066 764 1063 q 768 1070 768 1069 z "},"Ö":{"ha":814,"x_min":109,"x_max":859,"o":"m 109 304 q 163 534 109 419 q 326 731 218 650 q 563 812 433 812 q 688 789 633 812 q 773 732 742 766 q 825 654 804 699 q 852 570 845 609 q 859 495 859 532 q 802 254 859 372 q 637 57 745 136 q 403 -22 530 -22 q 271 5 328 -22 q 184 68 214 31 q 136 153 155 104 q 113 237 118 202 q 109 304 109 271 m 235 308 q 240 248 235 278 q 262 180 245 218 q 316 117 278 141 q 410 92 354 92 q 637 217 541 92 q 732 491 732 342 q 726 549 732 519 q 702 616 719 579 q 648 675 685 652 q 556 699 610 699 q 392 637 468 699 q 275 486 316 575 q 235 308 235 396 m 426 899 l 461 1055 l 593 1055 l 557 899 l 426 899 m 627 899 l 662 1055 l 793 1055 l 758 899 l 627 899 z "},"×":{"ha":814,"x_min":217,"x_max":772,"o":"m 578 429 l 772 235 l 689 152 l 495 346 l 301 152 l 217 235 l 411 429 l 217 623 l 301 707 l 495 513 l 689 707 l 772 623 l 578 429 z "},"Ø":{"ha":814,"x_min":62,"x_max":902,"o":"m 216 37 l 138 -41 l 62 37 l 148 123 q 109 281 109 222 q 243 656 109 499 q 563 812 378 812 q 760 745 686 812 l 825 811 l 902 735 l 825 656 q 859 499 859 585 q 800 251 859 370 q 635 55 742 132 q 401 -22 529 -22 q 216 37 279 -22 m 724 555 l 304 126 q 410 92 351 92 q 636 216 540 92 q 732 491 732 339 q 724 555 732 510 m 245 237 l 663 662 q 556 699 625 699 q 333 577 431 699 q 235 312 235 456 q 245 237 235 270 z "},"Ù":{"ha":814,"x_min":163,"x_max":960,"o":"m 187 791 l 536 791 l 511 680 l 378 680 l 304 328 q 286 197 286 244 q 303 140 286 163 q 347 110 320 118 q 389 100 374 102 q 418 98 403 98 q 499 106 464 98 q 558 133 534 114 q 597 168 582 152 q 625 218 613 184 q 641 270 636 251 q 654 328 646 289 l 727 680 l 594 680 l 618 791 l 960 791 l 937 680 l 844 680 l 766 311 q 716 147 742 202 q 647 58 690 92 q 410 -22 549 -22 q 237 33 308 -22 q 167 190 167 87 q 187 342 167 241 l 259 680 l 163 680 l 187 791 m 399 1042 l 399 1047 l 600 1047 l 716 914 l 602 914 l 399 1042 z "},"Ú":{"ha":814,"x_min":163,"x_max":960,"o":"m 187 791 l 536 791 l 511 680 l 378 680 l 304 328 q 286 197 286 244 q 303 140 286 163 q 347 110 320 118 q 389 100 374 102 q 418 98 403 98 q 499 106 464 98 q 558 133 534 114 q 597 168 582 152 q 625 218 613 184 q 641 270 636 251 q 654 328 646 289 l 727 680 l 594 680 l 618 791 l 960 791 l 937 680 l 844 680 l 766 311 q 716 147 742 202 q 647 58 690 92 q 410 -22 549 -22 q 237 33 308 -22 q 167 190 167 87 q 187 342 167 241 l 259 680 l 163 680 l 187 791 m 830 1042 l 594 914 l 473 914 l 640 1047 l 830 1047 l 830 1042 z "},"Û":{"ha":814,"x_min":163,"x_max":960,"o":"m 187 791 l 536 791 l 511 680 l 378 680 l 304 328 q 286 197 286 244 q 303 140 286 163 q 347 110 320 118 q 389 100 374 102 q 418 98 403 98 q 499 106 464 98 q 558 133 534 114 q 597 168 582 152 q 625 218 613 184 q 641 270 636 251 q 654 328 646 289 l 727 680 l 594 680 l 618 791 l 960 791 l 937 680 l 844 680 l 766 311 q 716 147 742 202 q 647 58 690 92 q 410 -22 549 -22 q 237 33 308 -22 q 167 190 167 87 q 187 342 167 241 l 259 680 l 163 680 l 187 791 m 570 1061 l 686 1061 l 792 944 l 716 902 l 610 967 l 486 902 l 419 947 l 570 1061 z "},"Ü":{"ha":814,"x_min":163,"x_max":960,"o":"m 187 791 l 536 791 l 511 680 l 378 680 l 304 328 q 286 197 286 244 q 303 140 286 163 q 347 110 320 118 q 389 100 374 102 q 418 98 403 98 q 499 106 464 98 q 558 133 534 114 q 597 168 582 152 q 625 218 613 184 q 641 270 636 251 q 654 328 646 289 l 727 680 l 594 680 l 618 791 l 960 791 l 937 680 l 844 680 l 766 311 q 716 147 742 202 q 647 58 690 92 q 410 -22 549 -22 q 237 33 308 -22 q 167 190 167 87 q 187 342 167 241 l 259 680 l 163 680 l 187 791 m 426 899 l 461 1055 l 593 1055 l 557 899 l 426 899 m 627 899 l 662 1055 l 793 1055 l 758 899 l 627 899 z "},"Ý":{"ha":814,"x_min":164,"x_max":947,"o":"m 187 791 l 500 791 l 476 680 l 393 680 l 490 430 l 690 680 l 613 680 l 639 791 l 947 791 l 922 680 l 831 680 l 524 298 l 484 111 l 639 111 l 613 0 l 187 0 l 209 111 l 366 111 l 407 311 l 263 680 l 164 680 l 187 791 m 830 1042 l 594 914 l 473 914 l 640 1047 l 830 1047 l 830 1042 z "},"Þ":{"ha":814,"x_min":102,"x_max":838,"o":"m 454 624 l 549 624 q 606 623 585 624 q 667 618 627 623 q 732 602 707 613 q 784 572 757 590 q 825 523 811 555 q 838 449 838 491 q 736 240 838 317 q 632 193 696 209 q 526 176 568 178 q 401 174 484 174 l 354 174 l 345 111 l 537 111 l 513 0 l 102 0 l 126 111 l 232 111 l 354 680 l 245 680 l 270 791 l 655 791 l 631 680 l 464 680 l 454 624 m 540 536 l 434 536 l 376 266 l 422 266 q 529 267 495 266 q 604 279 563 269 q 669 313 644 290 q 722 435 722 362 q 705 493 722 471 q 656 524 689 515 q 602 534 624 532 q 540 536 579 536 z "},"ß":{"ha":814,"x_min":61,"x_max":774,"o":"m 84 111 l 165 111 l 269 601 q 281 652 274 628 q 310 724 288 677 q 362 805 332 772 q 446 864 392 838 q 566 890 499 890 q 715 838 656 890 q 774 700 774 787 q 738 581 774 637 q 627 486 701 524 q 757 281 757 416 q 680 75 757 170 q 480 -19 604 -19 q 335 7 410 -19 l 361 125 q 479 98 448 98 q 589 149 541 98 q 637 274 637 201 q 622 334 637 308 q 587 376 606 361 q 532 404 567 391 q 477 420 498 416 q 422 431 457 425 l 444 541 q 607 600 559 548 q 655 703 655 652 q 630 755 655 736 q 562 773 605 773 q 384 587 423 773 l 260 0 l 61 0 l 84 111 z "},"à":{"ha":814,"x_min":95,"x_max":780,"o":"m 726 408 l 663 111 l 780 111 l 755 0 l 518 0 l 529 49 q 296 -19 393 -19 q 151 33 206 -19 q 95 161 95 85 q 187 336 95 256 q 450 416 279 416 q 606 404 511 416 q 609 444 606 426 q 612 468 612 465 q 506 526 612 526 q 289 477 415 526 q 265 468 275 472 q 250 463 255 464 l 225 575 q 236 578 231 576 q 245 582 241 581 q 255 586 252 586 q 521 643 412 643 q 674 600 613 643 q 735 480 735 557 q 726 408 735 465 m 560 198 l 581 292 q 449 302 499 302 q 332 287 381 302 q 260 248 282 271 q 228 204 237 224 q 218 167 218 184 q 245 117 218 136 q 302 98 271 98 q 437 131 359 98 q 560 198 515 164 m 358 865 l 358 871 l 559 871 l 675 738 l 562 738 l 358 865 z "},"á":{"ha":814,"x_min":95,"x_max":789,"o":"m 726 408 l 663 111 l 780 111 l 755 0 l 518 0 l 529 49 q 296 -19 393 -19 q 151 33 206 -19 q 95 161 95 85 q 187 336 95 256 q 450 416 279 416 q 606 404 511 416 q 609 444 606 426 q 612 468 612 465 q 506 526 612 526 q 289 477 415 526 q 265 468 275 472 q 250 463 255 464 l 225 575 q 236 578 231 576 q 245 582 241 581 q 255 586 252 586 q 521 643 412 643 q 674 600 613 643 q 735 480 735 557 q 726 408 735 465 m 560 198 l 581 292 q 449 302 499 302 q 332 287 381 302 q 260 248 282 271 q 228 204 237 224 q 218 167 218 184 q 245 117 218 136 q 302 98 271 98 q 437 131 359 98 q 560 198 515 164 m 789 865 l 553 738 l 433 738 l 600 871 l 789 871 l 789 865 z "},"â":{"ha":814,"x_min":95,"x_max":780,"o":"m 726 408 l 663 111 l 780 111 l 755 0 l 518 0 l 529 49 q 296 -19 393 -19 q 151 33 206 -19 q 95 161 95 85 q 187 336 95 256 q 450 416 279 416 q 606 404 511 416 q 609 444 606 426 q 612 468 612 465 q 506 526 612 526 q 289 477 415 526 q 265 468 275 472 q 250 463 255 464 l 225 575 q 236 578 231 576 q 245 582 241 581 q 255 586 252 586 q 521 643 412 643 q 674 600 613 643 q 735 480 735 557 q 726 408 735 465 m 560 198 l 581 292 q 449 302 499 302 q 332 287 381 302 q 260 248 282 271 q 228 204 237 224 q 218 167 218 184 q 245 117 218 136 q 302 98 271 98 q 437 131 359 98 q 560 198 515 164 m 529 884 l 646 884 l 751 768 l 675 726 l 570 791 l 445 726 l 378 770 l 529 884 z "},"ã":{"ha":814,"x_min":95,"x_max":818,"o":"m 726 408 l 663 111 l 780 111 l 755 0 l 518 0 l 529 49 q 296 -19 393 -19 q 151 33 206 -19 q 95 161 95 85 q 187 336 95 256 q 450 416 279 416 q 606 404 511 416 q 609 444 606 426 q 612 468 612 465 q 506 526 612 526 q 289 477 415 526 q 265 468 275 472 q 250 463 255 464 l 225 575 q 236 578 231 576 q 245 582 241 581 q 255 586 252 586 q 521 643 412 643 q 674 600 613 643 q 735 480 735 557 q 726 408 735 465 m 560 198 l 581 292 q 449 302 499 302 q 332 287 381 302 q 260 248 282 271 q 228 204 237 224 q 218 167 218 184 q 245 117 218 136 q 302 98 271 98 q 437 131 359 98 q 560 198 515 164 m 727 894 l 818 865 q 791 821 802 837 q 758 777 781 806 q 701 734 734 749 q 629 720 669 720 q 530 762 581 720 q 481 792 495 792 q 453 781 467 792 q 432 760 439 770 q 410 727 425 750 q 407 723 410 726 q 404 719 404 720 l 315 751 q 343 796 331 779 q 378 840 355 814 q 430 878 400 865 q 495 891 460 891 q 597 848 545 891 q 650 819 629 819 q 723 886 684 819 q 725 890 723 887 q 727 894 727 892 z "},"ä":{"ha":814,"x_min":95,"x_max":780,"o":"m 726 408 l 663 111 l 780 111 l 755 0 l 518 0 l 529 49 q 296 -19 393 -19 q 151 33 206 -19 q 95 161 95 85 q 187 336 95 256 q 450 416 279 416 q 606 404 511 416 q 609 444 606 426 q 612 468 612 465 q 506 526 612 526 q 289 477 415 526 q 265 468 275 472 q 250 463 255 464 l 225 575 q 236 578 231 576 q 245 582 241 581 q 255 586 252 586 q 521 643 412 643 q 674 600 613 643 q 735 480 735 557 q 726 408 735 465 m 560 198 l 581 292 q 449 302 499 302 q 332 287 381 302 q 260 248 282 271 q 228 204 237 224 q 218 167 218 184 q 245 117 218 136 q 302 98 271 98 q 437 131 359 98 q 560 198 515 164 m 385 723 l 420 879 l 552 879 l 517 723 l 385 723 m 586 723 l 621 879 l 753 879 l 718 723 l 586 723 z "},"å":{"ha":814,"x_min":95,"x_max":780,"o":"m 726 408 l 663 111 l 780 111 l 755 0 l 518 0 l 529 49 q 296 -19 393 -19 q 151 33 206 -19 q 95 161 95 85 q 187 336 95 256 q 450 416 279 416 q 606 404 511 416 q 609 444 606 426 q 612 468 612 465 q 506 526 612 526 q 289 477 415 526 q 265 468 275 472 q 250 463 255 464 l 225 575 q 236 578 231 576 q 245 582 241 581 q 255 586 252 586 q 521 643 412 643 q 674 600 613 643 q 735 480 735 557 q 726 408 735 465 m 560 198 l 581 292 q 449 302 499 302 q 332 287 381 302 q 260 248 282 271 q 228 204 237 224 q 218 167 218 184 q 245 117 218 136 q 302 98 271 98 q 437 131 359 98 q 560 198 515 164 m 655 819 q 619 734 655 769 q 533 699 583 699 q 448 734 483 699 q 412 819 412 769 q 448 905 412 869 q 533 941 483 941 q 619 906 583 941 q 655 819 655 871 m 576 819 q 564 850 576 838 q 533 863 551 863 q 503 850 515 863 q 491 819 491 837 q 503 789 491 802 q 533 777 515 777 q 564 789 551 777 q 576 819 576 802 z "},"æ":{"ha":814,"x_min":57,"x_max":856,"o":"m 825 269 l 503 269 q 498 209 498 243 q 585 95 498 95 q 768 132 644 95 l 789 23 q 579 -19 663 -19 q 492 -1 528 -19 q 444 33 457 16 q 414 83 431 50 q 306 4 347 27 q 214 -19 264 -19 q 102 24 146 -19 q 57 141 57 66 q 134 317 57 233 q 347 401 210 401 q 414 392 369 401 q 430 483 430 461 q 424 512 430 502 q 410 524 418 522 q 389 526 403 526 q 236 495 328 526 q 215 488 233 494 q 194 480 197 481 l 182 594 q 389 643 317 643 q 525 571 492 643 q 694 643 606 643 q 808 589 761 643 q 856 437 856 536 q 825 269 856 358 m 377 194 l 392 282 q 336 288 362 288 q 214 239 252 288 q 176 148 176 191 q 217 98 176 98 q 296 128 248 98 q 377 194 345 159 m 525 380 l 732 380 q 736 445 736 425 q 725 509 736 487 q 674 530 713 530 q 590 492 633 530 q 525 380 547 454 z "},"ç":{"ha":814,"x_min":132,"x_max":838,"o":"m 475 -15 l 475 -24 q 555 -123 555 -45 q 514 -211 555 -175 q 403 -247 473 -247 q 228 -220 321 -247 l 263 -127 q 407 -152 349 -152 q 439 -133 439 -152 q 420 -115 439 -119 q 346 -104 412 -113 l 374 -19 q 205 57 279 -11 q 132 248 132 125 q 251 519 132 401 q 534 636 370 636 q 716 567 651 636 l 743 642 l 838 623 q 785 369 791 506 l 677 354 q 680 426 680 397 q 538 519 680 519 q 334 437 412 519 q 256 252 256 354 q 277 168 256 202 q 328 121 297 134 q 380 102 359 107 q 419 98 401 98 q 705 209 526 98 l 755 107 q 475 -15 602 9 z "},"è":{"ha":814,"x_min":134,"x_max":817,"o":"m 739 189 l 773 79 q 426 -19 574 -19 q 212 52 290 -19 q 134 241 134 122 q 252 515 134 395 q 540 636 369 636 q 745 565 674 636 q 817 393 817 494 q 798 292 817 351 l 789 266 l 258 266 q 262 216 259 236 q 281 165 266 197 q 334 117 296 134 q 433 100 373 100 q 569 122 500 100 q 739 189 637 144 m 293 377 l 693 377 q 691 405 692 395 q 682 439 690 415 q 657 479 673 464 q 609 507 642 494 q 532 519 576 519 q 293 377 381 519 m 411 865 l 411 871 l 612 871 l 728 738 l 614 738 l 411 865 z "},"é":{"ha":814,"x_min":134,"x_max":817,"o":"m 739 189 l 773 79 q 426 -19 574 -19 q 212 52 290 -19 q 134 241 134 122 q 252 515 134 395 q 540 636 369 636 q 745 565 674 636 q 817 393 817 494 q 798 292 817 351 l 789 266 l 258 266 q 262 216 259 236 q 281 165 266 197 q 334 117 296 134 q 433 100 373 100 q 569 122 500 100 q 739 189 637 144 m 293 377 l 693 377 q 691 405 692 395 q 682 439 690 415 q 657 479 673 464 q 609 507 642 494 q 532 519 576 519 q 293 377 381 519 m 789 865 l 553 738 l 433 738 l 600 871 l 789 871 l 789 865 z "},"ê":{"ha":814,"x_min":134,"x_max":817,"o":"m 739 189 l 773 79 q 426 -19 574 -19 q 212 52 290 -19 q 134 241 134 122 q 252 515 134 395 q 540 636 369 636 q 745 565 674 636 q 817 393 817 494 q 798 292 817 351 l 789 266 l 258 266 q 262 216 259 236 q 281 165 266 197 q 334 117 296 134 q 433 100 373 100 q 569 122 500 100 q 739 189 637 144 m 293 377 l 693 377 q 691 405 692 395 q 682 439 690 415 q 657 479 673 464 q 609 507 642 494 q 532 519 576 519 q 293 377 381 519 m 529 884 l 646 884 l 751 768 l 675 726 l 570 791 l 445 726 l 378 770 l 529 884 z "},"ë":{"ha":814,"x_min":134,"x_max":817,"o":"m 739 189 l 773 79 q 426 -19 574 -19 q 212 52 290 -19 q 134 241 134 122 q 252 515 134 395 q 540 636 369 636 q 745 565 674 636 q 817 393 817 494 q 798 292 817 351 l 789 266 l 258 266 q 262 216 259 236 q 281 165 266 197 q 334 117 296 134 q 433 100 373 100 q 569 122 500 100 q 739 189 637 144 m 293 377 l 693 377 q 691 405 692 395 q 682 439 690 415 q 657 479 673 464 q 609 507 642 494 q 532 519 576 519 q 293 377 381 519 m 385 723 l 420 879 l 552 879 l 517 723 l 385 723 m 586 723 l 621 879 l 753 879 l 718 723 l 586 723 z "},"ì":{"ha":814,"x_min":115,"x_max":716,"o":"m 283 614 l 597 614 l 490 111 l 716 111 l 692 0 l 115 0 l 140 111 l 370 111 l 453 503 l 259 503 l 283 614 m 358 865 l 358 871 l 559 871 l 675 738 l 562 738 l 358 865 z "},"í":{"ha":814,"x_min":115,"x_max":789,"o":"m 283 614 l 597 614 l 490 111 l 716 111 l 692 0 l 115 0 l 140 111 l 370 111 l 453 503 l 259 503 l 283 614 m 789 865 l 553 738 l 433 738 l 600 871 l 789 871 l 789 865 z "},"î":{"ha":814,"x_min":115,"x_max":751,"o":"m 283 614 l 597 614 l 490 111 l 716 111 l 692 0 l 115 0 l 140 111 l 370 111 l 453 503 l 259 503 l 283 614 m 529 884 l 646 884 l 751 768 l 675 726 l 570 791 l 445 726 l 378 770 l 529 884 z "},"ï":{"ha":814,"x_min":115,"x_max":753,"o":"m 283 614 l 597 614 l 490 111 l 716 111 l 692 0 l 115 0 l 140 111 l 370 111 l 453 503 l 259 503 l 283 614 m 385 723 l 420 879 l 552 879 l 517 723 l 385 723 m 586 723 l 621 879 l 753 879 l 718 723 l 586 723 z "},"ð":{"ha":814,"x_min":109,"x_max":829,"o":"m 510 895 l 587 986 l 662 926 l 597 845 q 829 430 829 708 q 703 102 829 222 q 399 -19 576 -19 q 189 50 270 -19 q 109 243 109 118 q 230 519 109 400 q 519 637 351 637 q 697 589 629 637 l 700 591 q 525 762 637 693 l 439 666 l 357 723 l 439 811 q 304 868 362 850 l 357 960 q 510 895 439 933 m 524 534 q 309 445 389 534 q 228 255 228 355 q 235 205 228 231 q 260 151 241 180 q 319 102 278 121 q 418 84 359 84 q 627 171 544 84 q 709 363 709 258 q 665 483 709 431 q 524 534 621 534 z "},"ñ":{"ha":814,"x_min":22,"x_max":818,"o":"m 153 614 l 384 614 l 372 570 q 572 635 486 635 q 704 585 647 635 q 761 454 761 536 q 751 380 761 404 l 696 111 l 806 111 l 781 0 l 439 0 l 461 111 l 576 111 l 635 389 q 644 454 644 437 q 621 498 644 481 q 564 515 597 515 q 340 419 477 515 l 275 111 l 384 111 l 361 0 l 22 0 l 46 111 l 153 111 l 237 503 l 129 503 l 153 614 m 727 894 l 818 865 q 791 821 802 837 q 758 777 781 806 q 701 734 734 749 q 629 720 669 720 q 530 762 581 720 q 481 792 495 792 q 453 781 467 792 q 432 760 439 770 q 410 727 425 750 q 407 723 410 726 q 404 719 404 720 l 315 751 q 343 796 331 779 q 378 840 355 814 q 430 878 400 865 q 495 891 460 891 q 597 848 545 891 q 650 819 629 819 q 723 886 684 819 q 725 890 723 887 q 727 894 727 892 z "},"ò":{"ha":814,"x_min":107,"x_max":823,"o":"m 530 643 q 743 572 662 643 q 823 376 823 500 q 794 237 823 307 q 713 110 765 167 q 578 17 661 53 q 401 -19 496 -19 q 190 50 273 -19 q 107 248 107 119 q 224 521 107 399 q 530 643 342 643 m 521 526 q 313 441 392 526 q 233 255 233 357 q 277 142 233 186 q 411 98 321 98 q 617 182 537 98 q 697 368 697 267 q 653 481 697 435 q 521 526 609 526 m 358 865 l 358 871 l 559 871 l 675 738 l 562 738 l 358 865 z "},"ó":{"ha":814,"x_min":107,"x_max":823,"o":"m 530 643 q 743 572 662 643 q 823 376 823 500 q 794 237 823 307 q 713 110 765 167 q 578 17 661 53 q 401 -19 496 -19 q 190 50 273 -19 q 107 248 107 119 q 224 521 107 399 q 530 643 342 643 m 521 526 q 313 441 392 526 q 233 255 233 357 q 277 142 233 186 q 411 98 321 98 q 617 182 537 98 q 697 368 697 267 q 653 481 697 435 q 521 526 609 526 m 789 865 l 553 738 l 433 738 l 600 871 l 789 871 l 789 865 z "},"ô":{"ha":814,"x_min":107,"x_max":823,"o":"m 530 643 q 743 572 662 643 q 823 376 823 500 q 794 237 823 307 q 713 110 765 167 q 578 17 661 53 q 401 -19 496 -19 q 190 50 273 -19 q 107 248 107 119 q 224 521 107 399 q 530 643 342 643 m 521 526 q 313 441 392 526 q 233 255 233 357 q 277 142 233 186 q 411 98 321 98 q 617 182 537 98 q 697 368 697 267 q 653 481 697 435 q 521 526 609 526 m 529 884 l 646 884 l 751 768 l 675 726 l 570 791 l 445 726 l 378 770 l 529 884 z "},"õ":{"ha":814,"x_min":107,"x_max":823,"o":"m 530 643 q 743 572 662 643 q 823 376 823 500 q 794 237 823 307 q 713 110 765 167 q 578 17 661 53 q 401 -19 496 -19 q 190 50 273 -19 q 107 248 107 119 q 224 521 107 399 q 530 643 342 643 m 521 526 q 313 441 392 526 q 233 255 233 357 q 277 142 233 186 q 411 98 321 98 q 617 182 537 98 q 697 368 697 267 q 653 481 697 435 q 521 526 609 526 m 727 894 l 818 865 q 791 821 802 837 q 758 777 781 806 q 701 734 734 749 q 629 720 669 720 q 530 762 581 720 q 481 792 495 792 q 453 781 467 792 q 432 760 439 770 q 410 727 425 750 q 407 723 410 726 q 404 719 404 720 l 315 751 q 343 796 331 779 q 378 840 355 814 q 430 878 400 865 q 495 891 460 891 q 597 848 545 891 q 650 819 629 819 q 723 886 684 819 q 725 890 723 887 q 727 894 727 892 z "},"ö":{"ha":814,"x_min":107,"x_max":823,"o":"m 530 643 q 743 572 662 643 q 823 376 823 500 q 794 237 823 307 q 713 110 765 167 q 578 17 661 53 q 401 -19 496 -19 q 190 50 273 -19 q 107 248 107 119 q 224 521 107 399 q 530 643 342 643 m 521 526 q 313 441 392 526 q 233 255 233 357 q 277 142 233 186 q 411 98 321 98 q 617 182 537 98 q 697 368 697 267 q 653 481 697 435 q 521 526 609 526 m 385 723 l 420 879 l 552 879 l 517 723 l 385 723 m 586 723 l 621 879 l 753 879 l 718 723 l 586 723 z "},"÷":{"ha":814,"x_min":159,"x_max":826,"o":"m 431 720 q 444 733 431 720 q 492 746 456 746 q 553 721 529 746 q 578 661 578 696 q 553 601 578 627 q 492 575 529 575 q 431 601 456 575 q 407 661 407 627 q 431 720 407 694 m 159 484 l 826 484 l 826 365 l 159 365 l 159 484 m 431 250 q 444 262 431 250 q 492 274 456 274 q 553 249 529 274 q 578 190 578 224 q 553 129 578 155 q 492 103 529 103 q 431 129 456 103 q 407 190 407 155 q 431 250 407 225 z "},"ø":{"ha":814,"x_min":61,"x_max":872,"o":"m 214 33 l 136 -31 l 61 60 l 136 121 q 109 250 109 176 q 227 522 109 400 q 528 643 346 643 q 718 593 647 643 l 798 659 l 872 566 l 798 503 q 825 376 825 448 q 707 103 825 225 q 406 -19 589 -19 q 214 33 290 -19 m 692 419 l 317 111 q 410 98 355 98 q 621 184 543 98 q 699 366 699 271 q 692 419 699 388 m 241 206 l 616 510 q 519 526 570 526 q 316 443 397 526 q 235 255 235 359 q 241 206 235 233 z "},"ù":{"ha":814,"x_min":130,"x_max":787,"o":"m 153 614 l 381 614 l 300 237 q 292 171 292 189 q 309 123 292 148 q 365 98 326 98 q 579 202 471 98 l 643 503 l 532 503 l 556 614 l 787 614 l 681 111 l 787 111 l 762 0 l 537 0 l 548 41 q 362 -19 454 -19 q 267 2 307 -19 q 208 56 227 23 q 180 117 189 88 q 172 172 172 146 q 182 248 172 201 l 236 503 l 130 503 l 153 614 m 358 865 l 358 871 l 559 871 l 675 738 l 562 738 l 358 865 z "},"ú":{"ha":814,"x_min":130,"x_max":789,"o":"m 153 614 l 381 614 l 300 237 q 292 171 292 189 q 309 123 292 148 q 365 98 326 98 q 579 202 471 98 l 643 503 l 532 503 l 556 614 l 787 614 l 681 111 l 787 111 l 762 0 l 537 0 l 548 41 q 362 -19 454 -19 q 267 2 307 -19 q 208 56 227 23 q 180 117 189 88 q 172 172 172 146 q 182 248 172 201 l 236 503 l 130 503 l 153 614 m 789 865 l 553 738 l 433 738 l 600 871 l 789 871 l 789 865 z "},"û":{"ha":814,"x_min":130,"x_max":787,"o":"m 153 614 l 381 614 l 300 237 q 292 171 292 189 q 309 123 292 148 q 365 98 326 98 q 579 202 471 98 l 643 503 l 532 503 l 556 614 l 787 614 l 681 111 l 787 111 l 762 0 l 537 0 l 548 41 q 362 -19 454 -19 q 267 2 307 -19 q 208 56 227 23 q 180 117 189 88 q 172 172 172 146 q 182 248 172 201 l 236 503 l 130 503 l 153 614 m 529 884 l 646 884 l 751 768 l 675 726 l 570 791 l 445 726 l 378 770 l 529 884 z "},"ü":{"ha":814,"x_min":130,"x_max":787,"o":"m 153 614 l 381 614 l 300 237 q 292 171 292 189 q 309 123 292 148 q 365 98 326 98 q 579 202 471 98 l 643 503 l 532 503 l 556 614 l 787 614 l 681 111 l 787 111 l 762 0 l 537 0 l 548 41 q 362 -19 454 -19 q 267 2 307 -19 q 208 56 227 23 q 180 117 189 88 q 172 172 172 146 q 182 248 172 201 l 236 503 l 130 503 l 153 614 m 385 723 l 420 879 l 552 879 l 517 723 l 385 723 m 586 723 l 621 879 l 753 879 l 718 723 l 586 723 z "},"ý":{"ha":814,"x_min":129,"x_max":905,"o":"m 571 614 l 905 614 l 880 503 l 772 503 l 681 75 q 669 24 674 42 q 652 -28 665 7 q 625 -85 639 -64 q 583 -133 610 -106 q 523 -176 556 -160 q 441 -202 490 -191 q 332 -213 392 -213 q 172 -197 270 -213 l 199 -73 q 349 -96 289 -96 q 450 -83 410 -96 q 513 -39 491 -69 q 544 14 536 -8 q 563 81 552 37 q 384 20 469 20 q 236 79 293 20 q 179 239 179 137 q 186 301 179 247 l 229 503 l 129 503 l 152 614 l 476 614 l 452 503 l 350 503 l 304 285 q 298 240 298 256 q 327 161 298 186 q 397 137 355 137 q 600 255 477 137 l 652 503 l 547 503 l 571 614 m 789 865 l 553 738 l 433 738 l 600 871 l 789 871 l 789 865 z "},"þ":{"ha":814,"x_min":-39,"x_max":823,"o":"m 418 879 l 353 568 q 560 633 450 633 q 755 555 686 633 q 823 374 823 477 q 703 106 823 221 q 441 -9 582 -9 q 245 68 326 -9 l 212 -95 l 407 -95 l 384 -206 l -39 -206 l -15 -95 l 92 -95 l 271 754 l 157 749 l 175 865 l 418 879 m 555 517 q 366 439 445 517 q 286 259 286 361 q 334 149 286 191 q 444 107 382 107 q 621 188 543 107 q 700 369 700 269 q 661 477 700 437 q 555 517 623 517 z "},"ÿ":{"ha":814,"x_min":129,"x_max":905,"o":"m 571 614 l 905 614 l 880 503 l 772 503 l 681 75 q 669 24 674 42 q 652 -28 665 7 q 625 -85 639 -64 q 583 -133 610 -106 q 523 -176 556 -160 q 441 -202 490 -191 q 332 -213 392 -213 q 172 -197 270 -213 l 199 -73 q 349 -96 289 -96 q 450 -83 410 -96 q 513 -39 491 -69 q 544 14 536 -8 q 563 81 552 37 q 384 20 469 20 q 236 79 293 20 q 179 239 179 137 q 186 301 179 247 l 229 503 l 129 503 l 152 614 l 476 614 l 452 503 l 350 503 l 304 285 q 298 240 298 256 q 327 161 298 186 q 397 137 355 137 q 600 255 477 137 l 652 503 l 547 503 l 571 614 m 385 723 l 420 879 l 552 879 l 517 723 l 385 723 m 586 723 l 621 879 l 753 879 l 718 723 l 586 723 z "},"Ā":{"ha":814,"x_min":-8,"x_max":833,"o":"m 296 791 l 621 791 l 754 111 l 833 111 l 808 0 l 484 0 l 509 111 l 629 111 l 606 243 l 302 243 l 221 111 l 340 111 l 316 0 l -8 0 l 16 111 l 92 111 l 444 680 l 271 680 l 296 791 m 586 357 l 534 614 l 372 357 l 586 357 m 326 1038 l 791 1038 l 765 922 l 301 922 l 326 1038 z "},"ā":{"ha":814,"x_min":95,"x_max":811,"o":"m 726 408 l 663 111 l 780 111 l 755 0 l 518 0 l 529 49 q 296 -19 393 -19 q 151 33 206 -19 q 95 161 95 85 q 187 336 95 256 q 450 416 279 416 q 606 404 511 416 q 609 444 606 426 q 612 468 612 465 q 506 526 612 526 q 289 477 415 526 q 265 468 275 472 q 250 463 255 464 l 225 575 q 236 578 231 576 q 245 582 241 581 q 255 586 252 586 q 521 643 412 643 q 674 600 613 643 q 735 480 735 557 q 726 408 735 465 m 560 198 l 581 292 q 449 302 499 302 q 332 287 381 302 q 260 248 282 271 q 228 204 237 224 q 218 167 218 184 q 245 117 218 136 q 302 98 271 98 q 437 131 359 98 q 560 198 515 164 m 346 861 l 811 861 l 785 746 l 321 746 l 346 861 z "},"Ă":{"ha":814,"x_min":-8,"x_max":833,"o":"m 296 791 l 621 791 l 754 111 l 833 111 l 808 0 l 484 0 l 509 111 l 629 111 l 606 243 l 302 243 l 221 111 l 340 111 l 316 0 l -8 0 l 16 111 l 92 111 l 444 680 l 271 680 l 296 791 m 586 357 l 534 614 l 372 357 l 586 357 m 326 1074 l 430 1074 q 436 1044 433 1055 q 450 1015 439 1032 q 484 987 460 997 q 544 978 509 978 q 699 1067 650 978 l 703 1074 l 810 1074 q 771 1005 788 1029 q 720 952 754 981 q 529 886 636 886 q 340 991 389 886 q 326 1074 330 1015 z "},"ă":{"ha":814,"x_min":95,"x_max":834,"o":"m 726 408 l 663 111 l 780 111 l 755 0 l 518 0 l 529 49 q 296 -19 393 -19 q 151 33 206 -19 q 95 161 95 85 q 187 336 95 256 q 450 416 279 416 q 606 404 511 416 q 609 444 606 426 q 612 468 612 465 q 506 526 612 526 q 289 477 415 526 q 265 468 275 472 q 250 463 255 464 l 225 575 q 236 578 231 576 q 245 582 241 581 q 255 586 252 586 q 521 643 412 643 q 674 600 613 643 q 735 480 735 557 q 726 408 735 465 m 560 198 l 581 292 q 449 302 499 302 q 332 287 381 302 q 260 248 282 271 q 228 204 237 224 q 218 167 218 184 q 245 117 218 136 q 302 98 271 98 q 437 131 359 98 q 560 198 515 164 m 350 898 l 454 898 q 460 867 457 879 q 474 838 464 856 q 509 811 484 821 q 568 802 533 802 q 723 891 674 802 l 727 898 l 834 898 q 795 829 812 853 q 745 776 779 804 q 553 709 661 709 q 365 815 414 709 q 350 898 354 838 z "},"Ą":{"ha":814,"x_min":-8,"x_max":833,"o":"m 749 -64 l 701 -157 q 570 -195 631 -195 q 499 -175 529 -195 q 469 -117 469 -155 q 566 -3 469 -43 l 566 0 l 484 0 l 509 111 l 629 111 l 606 243 l 302 243 l 221 111 l 340 111 l 316 0 l -8 0 l 16 111 l 92 111 l 444 680 l 271 680 l 296 791 l 621 791 l 754 111 l 833 111 l 808 0 l 751 0 q 652 -34 705 -9 q 598 -85 598 -58 q 631 -106 598 -106 q 669 -100 652 -106 q 749 -64 686 -94 m 586 357 l 534 614 l 372 357 l 586 357 z "},"ą":{"ha":814,"x_min":95,"x_max":780,"o":"m 780 111 l 755 0 l 705 0 q 618 -28 685 0 q 552 -85 552 -56 q 583 -106 552 -106 q 623 -100 605 -106 q 703 -64 642 -94 l 655 -157 q 524 -195 585 -195 q 452 -175 483 -195 q 422 -117 422 -155 q 518 0 422 -50 l 529 49 q 296 -19 393 -19 q 151 33 206 -19 q 95 161 95 85 q 187 336 95 256 q 450 416 279 416 q 606 404 511 416 l 606 420 l 612 468 q 506 526 612 526 q 250 463 412 526 l 225 575 q 323 610 288 598 q 414 632 358 621 q 521 643 469 643 q 674 600 613 643 q 735 480 735 557 q 726 408 735 465 l 663 111 l 780 111 m 560 198 l 581 292 q 449 302 499 302 q 332 287 381 302 q 260 248 282 271 q 228 204 237 224 q 218 167 218 184 q 245 117 218 136 q 302 98 271 98 q 437 131 359 98 q 560 198 515 164 z "},"Ć":{"ha":814,"x_min":140,"x_max":928,"o":"m 825 798 l 928 772 q 853 479 865 635 l 746 486 q 753 568 753 556 q 736 634 753 606 q 692 674 719 662 q 642 691 666 686 q 595 696 618 696 q 362 578 461 696 q 263 296 263 460 q 469 95 263 95 q 580 111 528 95 q 661 144 632 127 q 746 201 689 161 l 810 102 q 724 44 758 65 q 616 1 689 23 q 464 -22 544 -22 q 220 67 300 -22 q 140 300 140 156 q 279 661 140 510 q 604 812 418 812 q 796 716 736 812 l 825 798 m 830 1042 l 594 914 l 473 914 l 640 1047 l 830 1047 l 830 1042 z "},"ć":{"ha":814,"x_min":132,"x_max":838,"o":"m 743 642 l 838 623 q 785 369 791 511 l 677 354 q 680 426 680 404 q 538 519 680 519 q 334 437 412 519 q 256 252 256 354 q 277 168 256 202 q 328 121 297 134 q 380 102 358 107 q 419 98 401 98 q 705 209 526 98 l 755 107 q 656 48 694 69 q 546 4 618 27 q 407 -19 473 -19 q 278 7 338 -19 q 175 95 218 33 q 132 247 132 157 q 251 518 132 400 q 534 636 370 636 q 716 567 651 636 l 743 642 m 789 865 l 553 738 l 433 738 l 600 871 l 789 871 l 789 865 z "},"Ĉ":{"ha":814,"x_min":140,"x_max":928,"o":"m 825 798 l 928 772 q 853 479 865 635 l 746 486 q 753 568 753 556 q 736 634 753 606 q 692 674 719 662 q 642 691 666 686 q 595 696 618 696 q 362 578 461 696 q 263 296 263 460 q 469 95 263 95 q 580 111 528 95 q 661 144 632 127 q 746 201 689 161 l 810 102 q 724 44 758 65 q 616 1 689 23 q 464 -22 544 -22 q 220 67 300 -22 q 140 300 140 156 q 279 661 140 510 q 604 812 418 812 q 796 716 736 812 l 825 798 m 570 1061 l 686 1061 l 792 944 l 716 902 l 610 967 l 486 902 l 419 947 l 570 1061 z "},"ĉ":{"ha":814,"x_min":132,"x_max":838,"o":"m 743 642 l 838 623 q 785 369 791 511 l 677 354 q 680 426 680 404 q 538 519 680 519 q 334 437 412 519 q 256 252 256 354 q 277 168 256 202 q 328 121 297 134 q 380 102 358 107 q 419 98 401 98 q 705 209 526 98 l 755 107 q 656 48 694 69 q 546 4 618 27 q 407 -19 473 -19 q 278 7 338 -19 q 175 95 218 33 q 132 247 132 157 q 251 518 132 400 q 534 636 370 636 q 716 567 651 636 l 743 642 m 529 884 l 646 884 l 751 768 l 675 726 l 570 791 l 445 726 l 378 770 l 529 884 z "},"Ċ":{"ha":814,"x_min":140,"x_max":928,"o":"m 825 798 l 928 772 q 853 479 865 635 l 746 486 q 753 568 753 556 q 736 634 753 606 q 692 674 719 662 q 642 691 666 686 q 595 696 618 696 q 362 578 461 696 q 263 296 263 460 q 469 95 263 95 q 580 111 528 95 q 661 144 632 127 q 746 201 689 161 l 810 102 q 724 44 758 65 q 616 1 689 23 q 464 -22 544 -22 q 220 67 300 -22 q 140 300 140 156 q 279 661 140 510 q 604 812 418 812 q 796 716 736 812 l 825 798 m 519 899 l 553 1062 l 685 1062 l 650 899 l 519 899 z "},"ċ":{"ha":814,"x_min":132,"x_max":838,"o":"m 743 642 l 838 623 q 785 369 791 511 l 677 354 q 680 426 680 404 q 538 519 680 519 q 334 437 412 519 q 256 252 256 354 q 277 168 256 202 q 328 121 297 134 q 380 102 358 107 q 419 98 401 98 q 705 209 526 98 l 755 107 q 656 48 694 69 q 546 4 618 27 q 407 -19 473 -19 q 278 7 338 -19 q 175 95 218 33 q 132 247 132 157 q 251 518 132 400 q 534 636 370 636 q 716 567 651 636 l 743 642 m 479 723 l 513 886 l 644 886 l 609 723 l 479 723 z "},"Č":{"ha":814,"x_min":140,"x_max":928,"o":"m 825 798 l 928 772 q 853 479 865 635 l 746 486 q 753 568 753 556 q 736 634 753 606 q 692 674 719 662 q 642 691 666 686 q 595 696 618 696 q 362 578 461 696 q 263 296 263 460 q 469 95 263 95 q 580 111 528 95 q 661 144 632 127 q 746 201 689 161 l 810 102 q 724 44 758 65 q 616 1 689 23 q 464 -22 544 -22 q 220 67 300 -22 q 140 300 140 156 q 279 661 140 510 q 604 812 418 812 q 796 716 736 812 l 825 798 m 652 902 l 536 902 l 429 1019 l 505 1061 l 612 996 l 736 1061 l 802 1016 l 652 902 z "},"č":{"ha":814,"x_min":132,"x_max":838,"o":"m 743 642 l 838 623 q 785 369 791 511 l 677 354 q 680 426 680 404 q 538 519 680 519 q 334 437 412 519 q 256 252 256 354 q 277 168 256 202 q 328 121 297 134 q 380 102 358 107 q 419 98 401 98 q 705 209 526 98 l 755 107 q 656 48 694 69 q 546 4 618 27 q 407 -19 473 -19 q 278 7 338 -19 q 175 95 218 33 q 132 247 132 157 q 251 518 132 400 q 534 636 370 636 q 716 567 651 636 l 743 642 m 612 726 l 495 726 l 388 842 l 464 884 l 571 819 l 696 884 l 761 840 l 612 726 z "},"Ď":{"ha":814,"x_min":23,"x_max":853,"o":"m 191 791 l 538 791 q 751 745 686 791 q 824 654 795 715 q 853 513 853 594 q 846 429 853 477 q 804 288 840 380 q 708 127 769 197 q 381 0 595 0 l 23 0 l 47 111 l 152 111 l 271 680 l 167 680 l 191 791 m 530 680 l 392 680 l 273 111 l 392 111 q 618 202 544 111 q 702 357 677 273 q 727 500 727 441 q 674 650 727 605 q 530 680 640 680 m 595 902 l 479 902 l 372 1019 l 448 1061 l 555 996 l 680 1061 l 745 1016 l 595 902 z "},"ď":{"ha":814,"x_min":111,"x_max":871,"o":"m 540 849 l 871 879 l 709 111 l 819 111 l 795 0 l 566 0 l 576 52 q 374 -14 483 -14 q 182 63 252 -14 q 111 244 111 140 q 228 507 111 393 q 491 620 345 620 q 682 545 600 620 l 724 747 l 502 731 l 540 849 m 633 349 q 590 465 633 427 q 488 503 547 503 q 312 427 387 503 q 237 252 237 351 q 281 140 237 178 q 377 103 324 103 q 559 182 484 103 q 633 349 633 262 m 659 967 l 543 967 l 435 1084 l 511 1126 l 618 1061 l 743 1126 l 808 1081 l 659 967 z "},"đ":{"ha":814,"x_min":106,"x_max":933,"o":"m 823 708 l 933 708 l 917 624 l 807 624 l 699 111 l 807 111 l 784 0 l 555 0 l 567 52 q 363 -14 468 -14 q 177 58 248 -14 q 106 233 106 129 q 220 480 106 370 q 475 590 334 590 q 662 517 589 590 l 688 624 l 370 624 l 388 708 l 705 708 l 715 764 l 500 747 l 529 849 l 860 879 l 823 708 m 366 88 q 547 168 472 88 q 623 339 623 247 q 583 448 623 407 q 477 488 543 488 q 301 412 376 488 q 227 237 227 336 q 270 126 227 164 q 366 88 313 88 z "},"Ē":{"ha":814,"x_min":54,"x_max":899,"o":"m 222 791 l 899 791 l 844 498 l 730 498 l 755 680 l 430 680 l 387 475 l 544 475 l 564 570 l 680 570 l 614 264 l 500 264 l 519 358 l 362 358 l 311 111 l 647 111 l 692 294 l 807 294 l 743 0 l 54 0 l 79 111 l 190 111 l 311 680 l 198 680 l 222 791 m 387 1038 l 852 1038 l 826 922 l 362 922 l 387 1038 z "},"ē":{"ha":814,"x_min":134,"x_max":817,"o":"m 739 189 l 773 79 q 426 -19 574 -19 q 212 52 290 -19 q 134 241 134 122 q 252 515 134 395 q 540 636 369 636 q 745 565 674 636 q 817 393 817 494 q 798 292 817 351 l 789 266 l 258 266 q 262 216 259 236 q 281 165 266 197 q 334 117 296 134 q 433 100 373 100 q 569 122 500 100 q 739 189 637 144 m 293 377 l 693 377 q 691 405 692 395 q 682 439 690 415 q 657 479 673 464 q 609 507 642 494 q 532 519 576 519 q 293 377 381 519 m 346 861 l 811 861 l 785 746 l 321 746 l 346 861 z "},"Ė":{"ha":814,"x_min":54,"x_max":899,"o":"m 222 791 l 899 791 l 844 498 l 730 498 l 755 680 l 430 680 l 387 475 l 544 475 l 564 570 l 680 570 l 614 264 l 500 264 l 519 358 l 362 358 l 311 111 l 647 111 l 692 294 l 807 294 l 743 0 l 54 0 l 79 111 l 190 111 l 311 680 l 198 680 l 222 791 m 519 899 l 553 1062 l 685 1062 l 650 899 l 519 899 z "},"ė":{"ha":814,"x_min":134,"x_max":817,"o":"m 739 189 l 773 79 q 426 -19 574 -19 q 212 52 290 -19 q 134 241 134 122 q 252 515 134 395 q 540 636 369 636 q 745 565 674 636 q 817 393 817 494 q 798 292 817 351 l 789 266 l 258 266 q 262 216 259 236 q 281 165 266 197 q 334 117 296 134 q 433 100 373 100 q 569 122 500 100 q 739 189 637 144 m 293 377 l 693 377 q 691 405 692 395 q 682 439 690 415 q 657 479 673 464 q 609 507 642 494 q 532 519 576 519 q 293 377 381 519 m 479 723 l 513 886 l 644 886 l 609 723 l 479 723 z "},"Ę":{"ha":814,"x_min":54,"x_max":899,"o":"m 719 -64 l 671 -157 q 540 -195 601 -195 q 469 -175 499 -195 q 439 -117 439 -155 q 473 -43 439 -73 q 536 -3 506 -14 l 536 0 l 54 0 l 79 111 l 190 111 l 311 680 l 198 680 l 222 791 l 899 791 l 844 498 l 730 498 l 755 680 l 430 680 l 387 475 l 544 475 l 564 570 l 680 570 l 614 264 l 500 264 l 519 358 l 362 358 l 311 111 l 647 111 l 692 294 l 807 294 l 743 0 l 722 0 q 622 -34 675 -9 q 568 -85 568 -58 q 601 -106 568 -106 q 640 -100 623 -106 q 719 -64 656 -94 z "},"ę":{"ha":814,"x_min":134,"x_max":817,"o":"m 560 -64 l 513 -157 q 381 -195 442 -195 q 310 -175 340 -195 q 279 -117 279 -155 q 354 -12 279 -60 q 236 32 283 0 q 168 105 189 64 q 141 178 148 146 q 134 241 134 209 q 252 515 134 395 q 540 636 369 636 q 745 565 674 636 q 817 393 817 494 q 789 266 817 353 l 258 266 q 262 216 259 236 q 281 165 266 197 q 334 117 296 134 q 433 100 373 100 q 569 122 500 100 q 739 189 637 144 l 773 79 q 682 39 716 50 q 529 -8 647 27 q 494 -19 518 -11 q 440 -47 471 -27 q 410 -85 410 -66 q 442 -106 410 -106 q 481 -99 463 -106 q 560 -64 499 -92 m 293 377 l 693 377 q 691 405 692 395 q 682 439 690 415 q 657 479 673 464 q 609 507 642 494 q 532 519 576 519 q 293 377 381 519 z "},"Ě":{"ha":814,"x_min":54,"x_max":899,"o":"m 222 791 l 899 791 l 844 498 l 730 498 l 755 680 l 430 680 l 387 475 l 544 475 l 564 570 l 680 570 l 614 264 l 500 264 l 519 358 l 362 358 l 311 111 l 647 111 l 692 294 l 807 294 l 743 0 l 54 0 l 79 111 l 190 111 l 311 680 l 198 680 l 222 791 m 652 902 l 536 902 l 429 1019 l 505 1061 l 612 996 l 736 1061 l 802 1016 l 652 902 z "},"ě":{"ha":814,"x_min":134,"x_max":817,"o":"m 739 189 l 773 79 q 426 -19 574 -19 q 212 52 290 -19 q 134 241 134 122 q 252 515 134 395 q 540 636 369 636 q 745 565 674 636 q 817 393 817 494 q 798 292 817 351 l 789 266 l 258 266 q 262 216 259 236 q 281 165 266 197 q 334 117 296 134 q 433 100 373 100 q 569 122 500 100 q 739 189 637 144 m 293 377 l 693 377 q 691 405 692 395 q 682 439 690 415 q 657 479 673 464 q 609 507 642 494 q 532 519 576 519 q 293 377 381 519 m 612 726 l 495 726 l 388 842 l 464 884 l 571 819 l 696 884 l 761 840 l 612 726 z "},"Ĝ":{"ha":814,"x_min":115,"x_max":909,"o":"m 492 377 l 871 377 l 846 263 l 784 263 l 738 47 l 719 41 q 431 -22 551 -22 q 199 64 282 -22 q 115 293 115 149 q 176 541 115 422 q 344 736 236 661 q 578 812 452 812 q 772 711 700 812 l 799 796 l 909 773 q 838 491 846 631 l 726 472 q 728 547 728 518 q 712 625 728 593 q 669 671 696 656 q 619 692 643 686 q 571 699 595 699 q 339 576 437 699 q 241 296 241 453 q 450 95 241 95 q 636 133 537 95 l 663 263 l 468 263 l 492 377 m 570 1061 l 686 1061 l 792 944 l 716 902 l 610 967 l 486 902 l 419 947 l 570 1061 z "},"ĝ":{"ha":814,"x_min":103,"x_max":888,"o":"m 662 614 l 888 614 l 864 503 l 757 503 l 662 58 q 652 18 656 34 q 636 -29 648 1 q 610 -80 624 -60 q 569 -125 595 -100 q 510 -165 543 -151 q 429 -191 477 -180 q 323 -202 381 -202 q 179 -191 252 -202 l 205 -73 q 327 -85 269 -85 q 536 31 506 -85 l 547 73 q 357 15 454 15 q 174 85 244 15 q 103 262 103 156 q 216 512 103 401 q 477 623 328 623 q 648 555 568 623 l 662 614 m 365 132 q 534 205 464 132 q 604 372 604 278 q 566 467 604 429 q 471 506 528 506 q 302 433 376 506 q 229 271 229 361 q 268 170 229 209 q 365 132 307 132 m 529 884 l 646 884 l 751 768 l 675 726 l 570 791 l 445 726 l 378 770 l 529 884 z "},"Ğ":{"ha":814,"x_min":115,"x_max":909,"o":"m 492 377 l 871 377 l 846 263 l 784 263 l 738 47 l 719 41 q 431 -22 551 -22 q 199 64 282 -22 q 115 293 115 149 q 176 541 115 422 q 344 736 236 661 q 578 812 452 812 q 772 711 700 812 l 799 796 l 909 773 q 838 491 846 631 l 726 472 q 728 547 728 518 q 712 625 728 593 q 669 671 696 656 q 619 692 643 686 q 571 699 595 699 q 339 576 437 699 q 241 296 241 453 q 450 95 241 95 q 636 133 537 95 l 663 263 l 468 263 l 492 377 m 391 1074 l 495 1074 q 501 1044 498 1055 q 515 1015 505 1032 q 549 987 525 997 q 609 978 574 978 q 764 1067 715 978 l 768 1074 l 875 1074 q 836 1005 853 1029 q 785 952 819 981 q 594 886 701 886 q 406 991 454 886 q 391 1074 395 1015 z "},"ğ":{"ha":814,"x_min":103,"x_max":888,"o":"m 662 614 l 888 614 l 864 503 l 757 503 l 662 58 q 652 18 656 34 q 636 -29 648 1 q 610 -80 624 -60 q 569 -125 595 -100 q 510 -165 543 -151 q 429 -191 477 -180 q 323 -202 381 -202 q 179 -191 252 -202 l 205 -73 q 327 -85 269 -85 q 536 31 506 -85 l 547 73 q 357 15 454 15 q 174 85 244 15 q 103 262 103 156 q 216 512 103 401 q 477 623 328 623 q 648 555 568 623 l 662 614 m 365 132 q 534 205 464 132 q 604 372 604 278 q 566 467 604 429 q 471 506 528 506 q 302 433 376 506 q 229 271 229 361 q 268 170 229 209 q 365 132 307 132 m 350 898 l 454 898 q 460 867 457 879 q 474 838 464 856 q 509 811 484 821 q 568 802 533 802 q 723 891 674 802 l 727 898 l 834 898 q 795 829 812 853 q 745 776 779 804 q 553 709 661 709 q 365 815 414 709 q 350 898 354 838 z "},"Ġ":{"ha":814,"x_min":115,"x_max":909,"o":"m 492 377 l 871 377 l 846 263 l 784 263 l 738 47 l 719 41 q 431 -22 551 -22 q 199 64 282 -22 q 115 293 115 149 q 176 541 115 422 q 344 736 236 661 q 578 812 452 812 q 772 711 700 812 l 799 796 l 909 773 q 838 491 846 631 l 726 472 q 728 547 728 518 q 712 625 728 593 q 669 671 696 656 q 619 692 643 686 q 571 699 595 699 q 339 576 437 699 q 241 296 241 453 q 450 95 241 95 q 636 133 537 95 l 663 263 l 468 263 l 492 377 m 519 899 l 553 1062 l 685 1062 l 650 899 l 519 899 z "},"ġ":{"ha":814,"x_min":103,"x_max":888,"o":"m 662 614 l 888 614 l 864 503 l 757 503 l 662 58 q 652 18 656 34 q 636 -29 648 1 q 610 -80 624 -60 q 569 -125 595 -100 q 510 -165 543 -151 q 429 -191 477 -180 q 323 -202 381 -202 q 179 -191 252 -202 l 205 -73 q 327 -85 269 -85 q 536 31 506 -85 l 547 73 q 357 15 454 15 q 174 85 244 15 q 103 262 103 156 q 216 512 103 401 q 477 623 328 623 q 648 555 568 623 l 662 614 m 365 132 q 534 205 464 132 q 604 372 604 278 q 566 467 604 429 q 471 506 528 506 q 302 433 376 506 q 229 271 229 361 q 268 170 229 209 q 365 132 307 132 m 479 723 l 513 886 l 644 886 l 609 723 l 479 723 z "},"Ģ":{"ha":814,"x_min":115,"x_max":909,"o":"m 492 -19 l 491 -24 q 571 -113 571 -46 q 535 -192 571 -153 q 419 -231 499 -231 q 247 -203 336 -231 l 282 -111 q 426 -136 385 -136 q 456 -125 456 -136 q 442 -117 456 -121 q 425 -113 429 -113 l 365 -104 l 392 -20 q 253 21 311 -12 q 167 102 195 54 q 127 197 138 151 q 115 293 115 243 q 176 541 115 422 q 344 736 236 661 q 578 812 452 812 q 772 711 700 812 l 799 796 l 909 773 q 838 491 846 631 l 726 472 q 728 547 728 526 q 712 625 728 593 q 669 671 696 656 q 619 692 643 686 q 571 699 595 699 q 339 576 437 699 q 241 296 241 453 q 450 95 241 95 q 636 133 537 95 l 663 263 l 468 263 l 492 377 l 871 377 l 846 263 l 784 263 l 738 47 q 492 -19 585 -9 z "},"Ĥ":{"ha":814,"x_min":30,"x_max":939,"o":"m 198 791 l 515 791 l 491 680 l 392 680 l 347 465 l 650 465 l 696 680 l 597 680 l 621 791 l 939 791 l 914 680 l 815 680 l 696 111 l 795 111 l 770 0 l 453 0 l 477 111 l 576 111 l 627 351 l 324 351 l 273 111 l 372 111 l 347 0 l 30 0 l 54 111 l 153 111 l 273 680 l 174 680 l 198 791 m 570 1061 l 686 1061 l 792 944 l 716 902 l 610 967 l 486 902 l 419 947 l 570 1061 z "},"ĥ":{"ha":814,"x_min":28,"x_max":811,"o":"m 190 860 l 445 879 l 378 570 q 575 635 488 635 q 709 584 652 635 q 766 454 766 533 q 757 380 766 427 l 701 111 l 811 111 l 785 0 l 445 0 l 467 111 l 581 111 l 639 389 q 650 456 650 422 q 625 499 650 483 q 572 515 601 515 q 346 416 483 515 l 281 111 l 389 111 l 365 0 l 28 0 l 50 111 l 161 111 l 298 753 l 176 745 l 190 860 m 529 1126 l 646 1126 l 751 1009 l 675 967 l 570 1032 l 445 967 l 378 1012 l 529 1126 z "},"Ħ":{"ha":814,"x_min":30,"x_max":939,"o":"m 382 632 l 685 632 l 696 680 l 597 680 l 621 791 l 939 791 l 914 680 l 815 680 l 804 632 l 903 632 l 879 518 l 781 518 l 696 111 l 795 111 l 770 0 l 453 0 l 477 111 l 576 111 l 627 351 l 324 351 l 273 111 l 372 111 l 347 0 l 30 0 l 54 111 l 153 111 l 239 518 l 140 518 l 163 632 l 262 632 l 273 680 l 174 680 l 198 791 l 515 791 l 491 680 l 393 680 l 382 632 m 661 518 l 358 518 l 349 465 l 651 465 l 661 518 z "},"ħ":{"ha":814,"x_min":28,"x_max":811,"o":"m 391 624 l 370 528 q 571 590 476 590 q 700 543 643 590 q 757 416 757 496 q 749 349 757 389 l 701 111 l 811 111 l 785 0 l 444 0 l 467 111 l 581 111 l 631 359 q 640 423 640 407 q 616 467 640 450 q 566 484 593 484 q 490 469 530 484 q 422 439 449 454 q 345 391 395 423 l 282 111 l 391 111 l 365 0 l 28 0 l 50 111 l 161 111 l 273 624 l 144 624 l 161 708 l 289 708 l 298 769 l 176 761 l 193 860 l 444 879 l 408 708 l 707 708 l 690 624 l 391 624 z "},"Ĩ":{"ha":814,"x_min":109,"x_max":859,"o":"m 277 791 l 856 791 l 831 680 l 602 680 l 483 111 l 712 111 l 688 0 l 109 0 l 133 111 l 362 111 l 483 680 l 252 680 l 277 791 m 768 1070 l 859 1042 q 832 998 842 1013 q 798 954 822 982 q 742 911 774 925 q 670 897 709 897 q 571 939 621 897 q 522 968 536 968 q 494 958 507 968 q 473 937 480 947 q 450 903 465 926 q 448 899 450 902 q 445 895 445 897 l 355 928 q 384 972 372 955 q 418 1016 396 990 q 471 1055 441 1042 q 536 1067 500 1067 q 637 1024 586 1067 q 690 996 670 996 q 764 1062 724 996 q 766 1066 764 1063 q 768 1070 768 1069 z "},"ĩ":{"ha":814,"x_min":115,"x_max":818,"o":"m 283 614 l 597 614 l 490 111 l 716 111 l 692 0 l 115 0 l 140 111 l 370 111 l 453 503 l 259 503 l 283 614 m 727 894 l 818 865 q 791 821 802 837 q 758 777 781 806 q 701 734 734 749 q 629 720 669 720 q 530 762 581 720 q 481 792 495 792 q 453 781 467 792 q 432 760 439 770 q 410 727 425 750 q 407 723 410 726 q 404 719 404 720 l 315 751 q 343 796 331 779 q 378 840 355 814 q 430 878 400 865 q 495 891 460 891 q 597 848 545 891 q 650 819 629 819 q 723 886 684 819 q 725 890 723 887 q 727 894 727 892 z "},"Ī":{"ha":814,"x_min":109,"x_max":856,"o":"m 277 791 l 856 791 l 831 680 l 602 680 l 483 111 l 712 111 l 688 0 l 109 0 l 133 111 l 362 111 l 483 680 l 252 680 l 277 791 m 387 1038 l 852 1038 l 826 922 l 362 922 l 387 1038 z "},"ī":{"ha":814,"x_min":115,"x_max":811,"o":"m 283 614 l 597 614 l 490 111 l 716 111 l 692 0 l 115 0 l 140 111 l 370 111 l 453 503 l 259 503 l 283 614 m 346 861 l 811 861 l 785 746 l 321 746 l 346 861 z "},"Į":{"ha":814,"x_min":109,"x_max":856,"o":"m 563 -64 l 515 -157 q 384 -195 445 -195 q 313 -175 343 -195 q 282 -117 282 -155 q 303 -60 282 -87 q 343 -21 324 -33 q 378 -3 362 -9 l 378 0 l 109 0 l 133 111 l 362 111 l 483 680 l 252 680 l 277 791 l 856 791 l 831 680 l 602 680 l 483 111 l 712 111 l 688 0 l 566 0 q 466 -34 519 -9 q 412 -85 412 -58 q 445 -106 412 -106 q 484 -99 465 -106 q 563 -64 502 -92 z "},"į":{"ha":814,"x_min":115,"x_max":716,"o":"m 566 -64 l 519 -157 q 387 -195 450 -195 q 316 -176 346 -195 q 286 -117 286 -156 q 307 -60 286 -87 q 347 -21 328 -33 q 382 -3 366 -9 l 382 0 l 115 0 l 140 111 l 370 111 l 453 503 l 259 503 l 283 614 l 597 614 l 490 111 l 716 111 l 692 0 l 570 0 q 469 -34 521 -9 q 416 -85 416 -58 q 448 -106 416 -106 q 486 -100 469 -106 q 566 -64 503 -94 m 477 732 l 515 911 l 659 911 l 623 732 l 477 732 z "},"İ":{"ha":814,"x_min":109,"x_max":856,"o":"m 277 791 l 856 791 l 831 680 l 602 680 l 483 111 l 712 111 l 688 0 l 109 0 l 133 111 l 362 111 l 483 680 l 252 680 l 277 791 m 519 899 l 553 1062 l 685 1062 l 650 899 l 519 899 z "},"ı":{"ha":814,"x_min":115,"x_max":716,"o":"m 283 614 l 597 614 l 490 111 l 716 111 l 692 0 l 115 0 l 140 111 l 370 111 l 453 503 l 259 503 l 283 614 z "},"Ĳ":{"ha":814,"x_min":5,"x_max":975,"o":"m 256 111 l 374 111 l 349 0 l 5 0 l 30 111 l 144 111 l 263 680 l 149 680 l 174 791 l 522 791 l 498 680 l 374 680 l 256 111 m 411 81 l 458 332 l 570 332 l 553 243 q 545 196 552 237 q 538 136 538 155 q 575 95 538 95 q 622 134 602 95 q 667 294 642 172 l 749 680 l 620 680 l 644 791 l 975 791 l 951 680 l 868 680 l 787 294 q 754 165 770 216 q 713 68 738 114 q 650 0 688 22 q 560 -22 612 -22 q 411 81 452 -22 z "},"ĳ":{"ha":814,"x_min":117,"x_max":869,"o":"m 285 614 l 547 614 l 416 0 l 117 0 l 141 111 l 321 111 l 403 503 l 260 503 l 285 614 m 427 732 l 465 911 l 610 911 l 572 732 l 427 732 m 604 614 l 833 614 l 718 77 q 704 20 711 43 q 673 -48 697 -3 q 618 -122 650 -94 q 526 -174 586 -151 q 391 -198 467 -198 q 183 -168 305 -198 l 236 -56 q 415 -81 349 -81 q 506 -66 469 -81 q 562 -22 543 -52 q 588 29 581 8 q 604 88 595 50 l 688 503 l 579 503 l 604 614 m 688 732 l 724 911 l 869 911 l 831 732 l 688 732 z "},"Ĵ":{"ha":814,"x_min":83,"x_max":960,"o":"m 415 791 l 960 791 l 936 680 l 769 680 l 686 289 q 618 98 659 155 q 517 10 579 42 q 382 -22 454 -22 q 83 71 264 -22 l 138 396 l 258 396 l 231 237 q 224 178 224 210 q 273 117 224 140 q 377 95 323 95 q 463 109 429 95 q 518 155 498 123 q 548 216 538 187 q 568 300 557 245 l 648 680 l 391 680 l 415 791 m 658 1061 l 774 1061 l 880 944 l 804 902 l 699 967 l 574 902 l 507 947 l 658 1061 z "},"ĵ":{"ha":814,"x_min":30,"x_max":680,"o":"m 225 614 l 680 614 l 566 77 q 552 21 559 45 q 521 -48 545 -3 q 465 -123 496 -94 q 373 -175 433 -152 q 237 -198 313 -198 q 30 -168 152 -198 l 83 -56 q 260 -81 195 -81 q 351 -66 315 -81 q 407 -22 388 -52 q 433 29 426 7 q 449 88 441 52 l 532 503 l 201 503 l 225 614 m 445 884 l 562 884 l 669 768 l 591 726 l 486 791 l 361 726 l 296 770 l 445 884 z "},"Ķ":{"ha":814,"x_min":58,"x_max":935,"o":"m 227 791 l 560 791 l 533 680 l 433 680 l 391 472 l 659 677 l 659 680 l 600 680 l 623 791 l 935 791 l 910 680 l 841 680 l 533 438 q 611 298 582 361 q 690 111 640 236 l 829 111 l 804 0 l 604 0 q 530 186 562 117 q 433 366 498 255 l 355 308 l 313 111 l 425 111 l 400 0 l 58 0 l 83 111 l 194 111 l 313 680 l 202 680 l 227 791 m 559 9 l 548 -24 q 628 -113 628 -47 q 591 -192 628 -153 q 475 -231 555 -231 q 304 -203 393 -231 l 338 -111 q 481 -136 442 -136 q 513 -125 513 -136 q 499 -117 513 -121 q 481 -113 486 -113 l 420 -104 l 458 9 l 559 9 z "},"ķ":{"ha":814,"x_min":4,"x_max":810,"o":"m 164 859 l 419 879 l 316 400 l 491 500 l 491 503 l 446 503 l 472 614 l 810 614 l 785 503 l 682 503 l 446 353 q 623 111 574 194 l 751 111 l 727 0 l 401 0 l 426 111 l 481 111 q 345 288 408 214 l 285 248 l 232 0 l 4 0 l 28 111 l 137 111 l 273 753 l 151 742 l 164 859 m 378 9 l 368 -24 q 448 -113 448 -46 q 412 -192 448 -153 q 296 -231 376 -231 q 123 -203 213 -231 l 159 -111 q 302 -136 262 -136 q 334 -126 334 -136 q 241 -104 334 -115 l 279 9 l 378 9 z "},"ĸ":{"ha":814,"x_min":4,"x_max":810,"o":"m 114 614 l 362 614 l 316 400 l 491 500 l 491 503 l 446 503 l 472 614 l 810 614 l 785 503 l 682 503 l 446 353 q 623 111 568 201 l 751 111 l 727 0 l 401 0 l 426 111 l 481 111 q 345 288 408 214 l 285 248 l 232 0 l 4 0 l 28 111 l 137 111 l 218 503 l 90 503 l 114 614 z "},"Ĺ":{"ha":814,"x_min":56,"x_max":840,"o":"m 224 791 l 636 791 l 612 680 l 450 680 l 330 111 l 648 111 l 719 377 l 840 377 l 742 0 l 56 0 l 80 111 l 210 111 l 330 680 l 199 680 l 224 791 m 670 1042 l 434 914 l 313 914 l 480 1047 l 670 1047 l 670 1042 z "},"ĺ":{"ha":814,"x_min":111,"x_max":789,"o":"m 294 834 l 639 856 l 481 111 l 711 111 l 686 0 l 111 0 l 136 111 l 365 111 l 496 734 l 282 719 l 294 834 m 789 1107 l 553 979 l 433 979 l 600 1112 l 789 1112 l 789 1107 z "},"Ļ":{"ha":814,"x_min":56,"x_max":840,"o":"m 488 0 l 480 -24 q 560 -113 560 -46 q 524 -192 560 -153 q 408 -231 488 -231 q 236 -203 330 -231 l 271 -111 q 415 -136 374 -136 q 446 -125 446 -136 q 433 -117 446 -121 q 415 -113 419 -113 l 354 -104 l 388 0 l 56 0 l 80 111 l 210 111 l 330 680 l 199 680 l 224 791 l 636 791 l 612 680 l 450 680 l 330 111 l 648 111 l 719 377 l 840 377 l 742 0 l 488 0 z "},"ļ":{"ha":814,"x_min":111,"x_max":711,"o":"m 450 0 l 442 -24 q 522 -113 522 -46 q 486 -192 522 -153 q 370 -231 450 -231 q 198 -203 288 -231 l 232 -111 q 377 -136 336 -136 q 407 -125 407 -136 q 393 -117 407 -121 q 376 -113 380 -113 l 316 -104 l 350 0 l 111 0 l 136 111 l 365 111 l 496 734 l 282 719 l 294 834 l 639 856 l 481 111 l 711 111 l 686 0 l 450 0 z "},"Ľ":{"ha":814,"x_min":56,"x_max":840,"o":"m 224 791 l 636 791 l 612 680 l 450 680 l 330 111 l 648 111 l 719 377 l 840 377 l 742 0 l 56 0 l 80 111 l 210 111 l 330 680 l 199 680 l 224 791 m 492 902 l 376 902 l 269 1019 l 345 1061 l 452 996 l 576 1061 l 642 1016 l 492 902 z "},"ľ":{"ha":814,"x_min":111,"x_max":761,"o":"m 294 834 l 639 856 l 481 111 l 711 111 l 686 0 l 111 0 l 136 111 l 365 111 l 496 734 l 282 719 l 294 834 m 612 967 l 495 967 l 388 1084 l 464 1126 l 571 1061 l 696 1126 l 761 1081 l 612 967 z "},"Ŀ":{"ha":814,"x_min":56,"x_max":840,"o":"m 224 791 l 636 791 l 612 680 l 450 680 l 330 111 l 648 111 l 720 377 l 840 377 l 742 0 l 56 0 l 80 111 l 210 111 l 330 680 l 199 680 l 224 791 m 597 538 q 664 515 635 538 q 693 452 693 491 q 651 366 693 401 q 557 330 609 330 q 488 353 517 330 q 460 416 460 377 q 502 503 460 467 q 597 538 544 538 z "},"ŀ":{"ha":814,"x_min":111,"x_max":842,"o":"m 294 834 l 639 856 l 481 111 l 711 111 l 686 0 l 111 0 l 136 111 l 365 111 l 496 734 l 282 719 l 294 834 m 745 502 q 813 479 784 502 q 842 416 842 456 q 800 330 842 366 q 707 294 758 294 q 638 317 667 294 q 609 380 609 340 q 651 466 609 430 q 745 502 693 502 z "},"Ł":{"ha":814,"x_min":56,"x_max":840,"o":"m 412 498 l 669 629 l 707 524 l 382 355 l 330 111 l 648 111 l 722 377 l 840 377 l 742 0 l 56 0 l 80 111 l 210 111 l 248 296 l 157 248 l 119 355 l 278 437 l 330 680 l 199 680 l 224 791 l 636 791 l 612 680 l 450 680 l 412 498 z "},"ł":{"ha":814,"x_min":111,"x_max":785,"o":"m 571 538 l 747 629 l 785 524 l 541 397 l 481 111 l 709 111 l 685 0 l 111 0 l 136 111 l 365 111 l 412 339 l 236 248 l 198 354 l 442 480 l 495 734 l 282 719 l 294 834 l 639 856 l 571 538 z "},"Ń":{"ha":814,"x_min":16,"x_max":968,"o":"m 176 791 l 425 791 l 617 198 l 642 198 l 743 680 l 617 680 l 642 791 l 968 791 l 944 680 l 863 680 l 715 -16 l 571 -16 l 373 586 l 349 586 l 248 111 l 378 111 l 354 0 l 16 0 l 41 111 l 129 111 l 248 680 l 152 680 l 176 791 m 830 1042 l 594 914 l 473 914 l 640 1047 l 830 1047 l 830 1042 z "},"ń":{"ha":814,"x_min":22,"x_max":806,"o":"m 153 614 l 384 614 l 372 570 q 572 635 486 635 q 704 585 647 635 q 761 454 761 536 q 751 380 761 404 l 696 111 l 806 111 l 781 0 l 439 0 l 461 111 l 576 111 l 635 389 q 644 454 644 437 q 621 498 644 481 q 564 515 597 515 q 340 419 477 515 l 275 111 l 384 111 l 361 0 l 22 0 l 46 111 l 153 111 l 237 503 l 129 503 l 153 614 m 789 865 l 553 738 l 433 738 l 600 871 l 789 871 l 789 865 z "},"Ņ":{"ha":814,"x_min":16,"x_max":968,"o":"m 176 791 l 425 791 l 617 198 l 642 198 l 743 680 l 617 680 l 642 791 l 968 791 l 944 680 l 863 680 l 715 -16 l 571 -16 l 373 586 l 349 586 l 248 111 l 378 111 l 354 0 l 16 0 l 41 111 l 129 111 l 248 680 l 152 680 l 176 791 m 509 9 l 498 -24 q 579 -113 579 -46 q 543 -192 579 -153 q 426 -231 506 -231 q 254 -203 347 -231 l 289 -111 q 433 -136 392 -136 q 464 -125 464 -136 q 450 -117 464 -121 q 433 -113 437 -113 l 372 -104 l 410 9 l 509 9 z "},"ņ":{"ha":814,"x_min":22,"x_max":806,"o":"m 448 0 l 441 -24 q 521 -113 521 -47 q 484 -192 521 -153 q 369 -231 448 -231 q 197 -203 286 -231 l 231 -111 q 374 -136 335 -136 q 404 -125 404 -136 q 391 -117 404 -121 q 374 -113 378 -113 l 313 -104 l 349 0 l 22 0 l 46 111 l 153 111 l 237 503 l 129 503 l 153 614 l 384 614 l 372 570 q 572 635 486 635 q 704 585 647 635 q 761 454 761 536 q 751 380 761 404 l 696 111 l 806 111 l 781 0 l 448 0 m 363 9 l 441 9 l 461 111 l 576 111 l 635 389 q 637 404 635 391 q 642 431 640 418 q 644 454 644 445 q 622 498 644 480 q 563 515 600 515 q 340 419 477 515 l 275 111 l 384 111 l 363 9 z "},"Ň":{"ha":814,"x_min":16,"x_max":968,"o":"m 176 791 l 425 791 l 617 198 l 642 198 l 743 680 l 617 680 l 642 791 l 968 791 l 944 680 l 863 680 l 715 -16 l 571 -16 l 373 586 l 349 586 l 248 111 l 378 111 l 354 0 l 16 0 l 41 111 l 129 111 l 248 680 l 152 680 l 176 791 m 652 902 l 536 902 l 429 1019 l 505 1061 l 612 996 l 736 1061 l 802 1016 l 652 902 z "},"ň":{"ha":814,"x_min":22,"x_max":806,"o":"m 153 614 l 384 614 l 372 570 q 572 635 486 635 q 704 585 647 635 q 761 454 761 536 q 751 380 761 404 l 696 111 l 806 111 l 781 0 l 439 0 l 461 111 l 576 111 l 635 389 q 644 454 644 437 q 621 498 644 481 q 564 515 597 515 q 340 419 477 515 l 275 111 l 384 111 l 361 0 l 22 0 l 46 111 l 153 111 l 237 503 l 129 503 l 153 614 m 612 726 l 495 726 l 388 842 l 464 884 l 571 819 l 696 884 l 761 840 l 612 726 z "},"Ŋ":{"ha":814,"x_min":37,"x_max":848,"o":"m 205 791 l 435 791 l 423 731 q 671 807 568 807 q 763 787 726 807 q 817 733 800 766 q 841 673 834 700 q 848 618 848 646 q 840 556 848 597 l 732 49 q 629 -119 709 -60 q 461 -178 548 -178 l 327 -178 l 353 -57 l 471 -57 q 571 -17 536 -57 q 616 64 606 23 l 723 575 q 728 618 728 597 q 652 686 728 686 q 515 652 589 686 q 391 575 442 617 l 292 111 l 403 111 l 378 0 l 37 0 l 61 111 l 172 111 l 292 680 l 180 680 l 205 791 z "},"ŋ":{"ha":814,"x_min":22,"x_max":761,"o":"m 342 422 l 275 111 l 384 111 l 361 0 l 22 0 l 46 111 l 155 111 l 237 503 l 129 503 l 155 614 l 384 614 l 373 572 q 575 636 488 636 q 713 583 666 636 q 761 449 761 529 q 754 388 761 422 l 682 49 q 578 -121 659 -61 q 410 -182 496 -182 l 285 -182 l 311 -62 l 418 -62 q 517 -22 479 -62 q 564 64 555 19 l 636 395 q 642 439 642 422 q 622 496 642 476 q 570 517 602 517 q 469 494 519 517 q 342 422 418 471 z "},"Ō":{"ha":814,"x_min":109,"x_max":859,"o":"m 109 304 q 163 534 109 419 q 326 731 218 650 q 563 812 433 812 q 688 789 633 812 q 773 732 742 766 q 825 654 804 699 q 852 570 845 609 q 859 495 859 532 q 802 254 859 372 q 637 57 745 136 q 403 -22 530 -22 q 271 5 328 -22 q 184 68 214 31 q 136 153 155 104 q 113 237 118 202 q 109 304 109 271 m 235 308 q 240 248 235 278 q 262 180 245 218 q 316 117 278 141 q 410 92 354 92 q 637 217 541 92 q 732 491 732 342 q 726 549 732 519 q 702 616 719 579 q 648 675 685 652 q 556 699 610 699 q 392 637 468 699 q 275 486 316 575 q 235 308 235 396 m 387 1038 l 852 1038 l 826 922 l 362 922 l 387 1038 z "},"ō":{"ha":814,"x_min":107,"x_max":823,"o":"m 530 643 q 743 572 662 643 q 823 376 823 500 q 794 237 823 307 q 713 110 765 167 q 578 17 661 53 q 401 -19 496 -19 q 190 50 273 -19 q 107 248 107 119 q 224 521 107 399 q 530 643 342 643 m 521 526 q 313 441 392 526 q 233 255 233 357 q 277 142 233 186 q 411 98 321 98 q 617 182 537 98 q 697 368 697 267 q 653 481 697 435 q 521 526 609 526 m 346 861 l 811 861 l 785 746 l 321 746 l 346 861 z "},"Ő":{"ha":814,"x_min":109,"x_max":922,"o":"m 109 304 q 163 534 109 419 q 326 731 218 650 q 563 812 433 812 q 688 789 633 812 q 773 732 742 766 q 825 654 804 699 q 852 570 845 609 q 859 495 859 532 q 802 254 859 372 q 637 57 745 136 q 403 -22 530 -22 q 271 5 328 -22 q 184 68 214 31 q 136 153 155 104 q 113 237 118 202 q 109 304 109 271 m 235 308 q 240 248 235 278 q 262 180 245 218 q 316 117 278 141 q 410 92 354 92 q 637 217 541 92 q 732 491 732 342 q 726 549 732 519 q 702 616 719 579 q 648 675 685 652 q 556 699 610 699 q 392 637 468 699 q 275 486 316 575 q 235 308 235 396 m 703 1067 l 456 892 l 358 892 l 545 1067 l 703 1067 m 922 1067 l 675 892 l 578 892 l 765 1067 l 922 1067 z "},"ő":{"ha":814,"x_min":107,"x_max":882,"o":"m 530 643 q 743 572 662 643 q 823 376 823 500 q 794 237 823 307 q 713 110 765 167 q 578 17 661 53 q 401 -19 496 -19 q 190 50 273 -19 q 107 248 107 119 q 224 521 107 399 q 530 643 342 643 m 521 526 q 313 441 392 526 q 233 255 233 357 q 277 142 233 186 q 411 98 321 98 q 617 182 537 98 q 697 368 697 267 q 653 481 697 435 q 521 526 609 526 m 662 891 l 415 716 l 317 716 l 505 891 l 662 891 m 882 891 l 635 716 l 537 716 l 724 891 l 882 891 z "},"Œ":{"ha":814,"x_min":73,"x_max":972,"o":"m 972 791 l 916 498 l 808 498 l 836 680 l 644 680 l 602 468 l 650 468 l 670 570 l 773 570 l 707 260 l 602 260 l 625 363 l 578 363 l 524 111 l 719 111 l 765 296 l 869 296 l 808 0 l 335 0 q 244 3 269 0 q 194 22 220 7 q 102 129 132 56 q 73 275 73 202 q 127 517 73 399 q 280 713 180 635 q 498 791 380 791 l 972 791 m 426 171 l 524 632 q 526 655 526 640 q 505 680 526 673 q 468 686 484 686 q 274 562 365 686 q 183 283 183 437 q 221 146 183 193 q 323 100 259 100 q 357 104 339 100 q 397 125 374 109 q 426 171 419 142 z "},"œ":{"ha":814,"x_min":39,"x_max":856,"o":"m 825 269 l 511 269 q 506 209 506 243 q 602 95 506 95 q 655 105 632 95 q 728 149 678 115 l 780 49 q 726 15 746 27 q 669 -8 705 3 q 595 -19 633 -19 q 523 -11 555 -19 q 470 14 491 -3 q 440 41 449 30 q 418 69 431 52 q 224 -19 332 -19 q 125 3 165 -19 q 68 61 85 26 q 45 123 52 96 q 39 174 39 149 q 58 311 39 236 q 113 463 76 387 q 216 591 149 540 q 366 643 282 643 q 440 629 407 643 q 487 600 473 614 q 518 563 500 586 q 693 643 598 643 q 812 587 768 643 q 856 439 856 530 q 825 269 856 362 m 533 380 l 734 380 q 739 434 739 410 q 686 533 739 533 q 602 494 647 533 q 533 380 556 456 m 384 236 l 418 407 q 430 471 430 469 q 411 512 430 495 q 361 529 392 529 q 256 466 302 529 q 189 326 210 403 q 168 186 168 250 q 231 98 168 98 q 260 102 243 98 q 304 118 278 106 q 353 161 331 130 q 384 236 374 191 z "},"Ŕ":{"ha":814,"x_min":38,"x_max":830,"o":"m 206 791 l 562 791 q 604 790 589 791 q 648 786 618 789 q 697 777 678 783 q 739 757 716 770 q 777 724 762 743 q 800 675 791 705 q 810 608 810 646 q 777 487 810 544 q 692 395 743 430 q 582 347 650 368 q 682 111 652 199 l 814 111 l 789 0 l 582 0 q 450 338 541 151 l 336 338 l 289 111 l 408 111 l 381 0 l 38 0 l 62 111 l 170 111 l 289 680 l 182 680 l 206 791 m 553 680 l 408 680 l 359 452 l 452 452 q 624 487 576 452 q 689 605 689 536 q 682 642 689 627 q 666 664 675 656 q 635 675 656 671 q 600 679 614 678 q 553 680 586 680 m 830 1042 l 594 914 l 473 914 l 640 1047 l 830 1047 l 830 1042 z "},"ŕ":{"ha":814,"x_min":77,"x_max":875,"o":"m 220 614 l 491 614 l 475 541 l 477 538 q 690 629 574 629 q 875 449 844 629 l 750 433 q 742 469 746 456 q 722 498 738 483 q 681 513 707 513 q 433 342 581 513 l 384 111 l 633 111 l 609 0 l 77 0 l 102 111 l 266 111 l 349 503 l 195 503 l 220 614 m 789 865 l 553 738 l 433 738 l 600 871 l 789 871 l 789 865 z "},"Ŗ":{"ha":814,"x_min":38,"x_max":814,"o":"m 206 791 l 562 791 q 604 790 589 791 q 648 786 618 789 q 697 777 678 783 q 739 757 716 770 q 777 724 762 743 q 800 675 791 705 q 810 608 810 646 q 777 487 810 544 q 692 395 743 430 q 582 347 650 368 q 682 111 655 191 l 814 111 l 789 0 l 582 0 q 450 338 541 151 l 336 338 l 289 111 l 408 111 l 381 0 l 38 0 l 62 111 l 170 111 l 289 680 l 182 680 l 206 791 m 553 680 l 408 680 l 359 452 l 452 452 q 624 487 576 452 q 689 605 689 536 q 682 642 689 627 q 666 664 675 656 q 635 675 656 671 q 600 679 614 678 q 553 680 586 680 m 515 9 l 505 -24 q 585 -113 585 -47 q 549 -192 585 -153 q 433 -231 513 -231 q 260 -203 350 -231 l 294 -111 q 438 -136 399 -136 q 469 -125 469 -136 q 456 -117 469 -121 q 438 -113 442 -113 q 427 -111 437 -113 q 401 -108 416 -110 q 378 -104 385 -106 l 415 9 l 515 9 z "},"ŗ":{"ha":814,"x_min":77,"x_max":875,"o":"m 515 0 l 507 -24 q 587 -113 587 -47 q 551 -192 587 -153 q 435 -231 515 -231 q 263 -203 353 -231 l 297 -111 q 441 -136 401 -136 q 472 -125 472 -136 q 458 -117 472 -121 q 441 -113 445 -113 q 429 -111 439 -113 q 404 -108 419 -110 q 381 -104 388 -106 l 415 0 l 77 0 l 102 111 l 266 111 l 349 503 l 195 503 l 220 614 l 491 614 l 475 541 l 477 538 q 690 629 574 629 q 875 449 844 629 l 750 433 q 742 469 746 456 q 722 498 738 483 q 681 513 707 513 q 433 342 581 513 l 384 111 l 633 111 l 609 0 l 515 0 z "},"Ř":{"ha":814,"x_min":38,"x_max":814,"o":"m 206 791 l 562 791 q 604 790 589 791 q 648 786 618 789 q 697 777 678 783 q 739 757 716 770 q 777 724 762 743 q 800 675 791 705 q 810 608 810 646 q 777 487 810 544 q 692 395 743 430 q 582 347 650 368 q 682 111 652 199 l 814 111 l 789 0 l 582 0 q 450 338 541 151 l 336 338 l 289 111 l 408 111 l 381 0 l 38 0 l 62 111 l 170 111 l 289 680 l 182 680 l 206 791 m 553 680 l 408 680 l 359 452 l 452 452 q 624 487 576 452 q 689 605 689 536 q 682 642 689 627 q 666 664 675 656 q 635 675 656 671 q 600 679 614 678 q 553 680 586 680 m 652 902 l 536 902 l 429 1019 l 505 1061 l 612 996 l 736 1061 l 802 1016 l 652 902 z "},"ř":{"ha":814,"x_min":77,"x_max":875,"o":"m 220 614 l 491 614 l 475 541 l 477 538 q 690 629 574 629 q 875 449 844 629 l 750 433 q 742 469 746 456 q 722 498 738 483 q 681 513 707 513 q 433 342 581 513 l 384 111 l 633 111 l 609 0 l 77 0 l 102 111 l 266 111 l 349 503 l 195 503 l 220 614 m 612 726 l 495 726 l 388 842 l 464 884 l 571 819 l 696 884 l 761 840 l 612 726 z "},"Ś":{"ha":814,"x_min":66,"x_max":875,"o":"m 772 822 l 875 791 q 820 659 834 707 q 787 503 806 610 l 684 519 q 692 586 692 557 q 549 700 692 700 q 407 659 463 700 q 351 560 351 618 q 362 515 351 534 q 386 487 373 496 q 422 471 399 477 q 459 463 446 464 q 496 460 472 461 q 656 423 600 454 q 754 255 754 366 q 736 168 754 213 q 683 80 719 123 q 578 9 647 37 q 420 -19 510 -19 q 292 1 336 -19 q 205 65 248 22 l 178 -24 l 66 -7 q 114 134 102 84 q 137 277 126 183 l 241 277 q 248 183 241 201 q 422 102 281 102 q 576 146 521 102 q 631 251 631 191 q 622 290 631 274 q 602 314 613 305 q 565 328 590 323 q 523 336 540 334 q 471 340 506 338 q 311 391 366 350 q 250 465 273 419 q 228 559 228 511 q 315 737 228 658 q 544 817 403 817 q 732 735 670 817 l 772 822 m 830 1042 l 594 914 l 473 914 l 640 1047 l 830 1047 l 830 1042 z "},"ś":{"ha":814,"x_min":110,"x_max":800,"o":"m 705 646 l 800 632 q 750 404 754 499 l 644 404 q 647 435 647 415 q 616 498 647 480 q 499 519 576 519 q 379 491 426 519 q 332 429 332 463 q 364 388 332 400 q 481 370 396 376 q 553 366 530 368 q 621 353 576 363 q 687 328 665 343 q 728 283 709 313 q 746 213 746 254 q 652 51 746 117 q 434 -15 559 -15 q 237 49 315 -15 l 216 -20 l 110 -5 q 159 229 151 104 l 267 236 q 271 171 267 186 q 300 131 278 146 q 353 110 323 115 q 399 103 384 104 q 427 102 415 102 q 564 130 505 102 q 623 209 623 159 q 619 227 623 221 q 593 240 616 233 q 524 250 570 247 q 479 252 492 250 q 414 256 441 254 q 345 269 388 259 q 276 296 302 279 q 229 344 250 312 q 209 419 209 376 q 294 572 209 509 q 499 636 380 636 q 681 576 621 636 l 705 646 m 789 865 l 553 738 l 433 738 l 600 871 l 789 871 l 789 865 z "},"Ŝ":{"ha":814,"x_min":66,"x_max":875,"o":"m 772 822 l 875 791 q 820 659 834 707 q 787 503 806 610 l 684 519 q 692 586 692 557 q 549 700 692 700 q 407 659 463 700 q 351 560 351 618 q 362 515 351 534 q 386 487 373 496 q 422 471 399 477 q 459 463 446 464 q 496 460 472 461 q 656 423 600 454 q 754 255 754 366 q 736 168 754 213 q 683 80 719 123 q 578 9 647 37 q 420 -19 510 -19 q 292 1 336 -19 q 205 65 248 22 l 178 -24 l 66 -7 q 114 134 102 84 q 137 277 126 183 l 241 277 q 248 183 241 201 q 422 102 281 102 q 576 146 521 102 q 631 251 631 191 q 622 290 631 274 q 602 314 613 305 q 565 328 590 323 q 523 336 540 334 q 471 340 506 338 q 311 391 366 350 q 250 465 273 419 q 228 559 228 511 q 315 737 228 658 q 544 817 403 817 q 732 735 670 817 l 772 822 m 570 1061 l 686 1061 l 792 944 l 716 902 l 610 967 l 486 902 l 419 947 l 570 1061 z "},"ŝ":{"ha":814,"x_min":110,"x_max":800,"o":"m 705 646 l 800 632 q 750 404 754 499 l 644 404 q 647 435 647 415 q 616 498 647 480 q 499 519 576 519 q 379 491 426 519 q 332 429 332 463 q 364 388 332 400 q 481 370 396 376 q 553 366 530 368 q 621 353 576 363 q 687 328 665 343 q 728 283 709 313 q 746 213 746 254 q 652 51 746 117 q 434 -15 559 -15 q 237 49 315 -15 l 216 -20 l 110 -5 q 159 229 151 104 l 267 236 q 271 171 267 186 q 300 131 278 146 q 353 110 323 115 q 399 103 384 104 q 427 102 415 102 q 564 130 505 102 q 623 209 623 159 q 619 227 623 221 q 593 240 616 233 q 524 250 570 247 q 479 252 492 250 q 414 256 441 254 q 345 269 388 259 q 276 296 302 279 q 229 344 250 312 q 209 419 209 376 q 294 572 209 509 q 499 636 380 636 q 681 576 621 636 l 705 646 m 529 884 l 646 884 l 751 768 l 675 726 l 570 791 l 445 726 l 378 770 l 529 884 z "},"Ş":{"ha":814,"x_min":66,"x_max":875,"o":"m 452 -18 l 449 -24 q 530 -113 530 -46 q 494 -192 530 -153 q 377 -231 457 -231 q 206 -203 296 -231 l 240 -111 q 384 -136 338 -136 q 415 -126 415 -136 q 397 -115 415 -121 q 361 -110 392 -114 q 323 -104 330 -106 l 353 -14 q 205 65 271 -1 l 178 -24 l 66 -7 q 114 134 102 85 q 137 277 126 182 l 241 277 q 248 183 241 201 q 422 102 281 102 q 576 146 521 102 q 631 251 631 191 q 622 290 631 274 q 602 314 613 305 q 565 328 590 323 q 523 336 540 334 q 471 340 506 338 q 311 391 366 350 q 250 465 273 419 q 228 559 228 511 q 315 737 228 658 q 544 817 403 817 q 732 735 670 817 l 772 822 l 875 791 q 820 659 834 707 q 787 503 806 610 l 684 519 q 692 586 692 557 q 549 700 692 700 q 407 659 463 700 q 351 560 351 618 q 360 517 351 534 q 382 489 369 499 q 421 473 395 479 q 468 464 448 467 q 528 458 488 461 q 640 432 593 453 q 710 380 686 411 q 744 319 734 350 q 754 255 754 288 q 738 172 754 214 q 689 87 722 129 q 595 16 656 45 q 452 -18 533 -12 z "},"ş":{"ha":814,"x_min":110,"x_max":800,"o":"m 473 -14 l 471 -24 q 551 -113 551 -47 q 514 -192 551 -153 q 399 -231 477 -231 q 227 -203 316 -231 l 260 -111 q 404 -136 365 -136 q 435 -125 435 -136 q 422 -117 435 -121 q 404 -113 408 -113 l 343 -104 l 374 -11 q 237 49 290 4 l 216 -20 l 110 -5 q 159 229 151 104 l 267 236 q 271 171 267 186 q 300 131 278 146 q 353 110 323 115 q 399 103 384 104 q 427 102 415 102 q 564 130 505 102 q 623 209 623 159 q 619 227 623 221 q 593 240 616 233 q 524 250 570 247 q 315 277 361 258 q 235 338 260 298 q 209 419 209 377 q 294 572 209 509 q 499 636 380 636 q 681 576 621 636 l 705 646 l 800 632 q 750 404 754 499 l 644 404 q 647 435 647 415 q 616 498 647 480 q 499 519 576 519 q 379 491 426 519 q 332 429 332 463 q 364 388 332 400 q 481 370 396 376 q 553 366 530 368 q 621 353 576 363 q 687 328 665 343 q 728 283 709 313 q 746 213 746 254 q 669 62 746 126 q 473 -14 591 -1 z "},"Š":{"ha":814,"x_min":66,"x_max":875,"o":"m 772 822 l 875 791 q 820 659 834 707 q 787 503 806 610 l 684 519 q 692 586 692 557 q 549 700 692 700 q 407 659 463 700 q 351 560 351 618 q 362 515 351 534 q 386 487 373 496 q 422 471 399 477 q 459 463 446 464 q 496 460 472 461 q 656 423 600 454 q 754 255 754 366 q 736 168 754 213 q 683 80 719 123 q 578 9 647 37 q 420 -19 510 -19 q 292 1 336 -19 q 205 65 248 22 l 178 -24 l 66 -7 q 114 134 102 84 q 137 277 126 183 l 241 277 q 248 183 241 201 q 422 102 281 102 q 576 146 521 102 q 631 251 631 191 q 622 290 631 274 q 602 314 613 305 q 565 328 590 323 q 523 336 540 334 q 471 340 506 338 q 311 391 366 350 q 250 465 273 419 q 228 559 228 511 q 315 737 228 658 q 544 817 403 817 q 732 735 670 817 l 772 822 m 652 902 l 536 902 l 429 1019 l 505 1061 l 612 996 l 736 1061 l 802 1016 l 652 902 z "},"š":{"ha":814,"x_min":110,"x_max":800,"o":"m 705 646 l 800 632 q 750 404 754 499 l 644 404 q 647 435 647 415 q 616 498 647 480 q 499 519 576 519 q 379 491 426 519 q 332 429 332 463 q 364 388 332 400 q 481 370 396 376 q 553 366 530 368 q 621 353 576 363 q 687 328 665 343 q 728 283 709 313 q 746 213 746 254 q 652 51 746 117 q 434 -15 559 -15 q 237 49 315 -15 l 216 -20 l 110 -5 q 159 229 151 104 l 267 236 q 271 171 267 186 q 300 131 278 146 q 353 110 323 115 q 399 103 384 104 q 427 102 415 102 q 564 130 505 102 q 623 209 623 159 q 619 227 623 221 q 593 240 616 233 q 524 250 570 247 q 479 252 492 250 q 414 256 441 254 q 345 269 388 259 q 276 296 302 279 q 229 344 250 312 q 209 419 209 376 q 294 572 209 509 q 499 636 380 636 q 681 576 621 636 l 705 646 m 612 726 l 495 726 l 388 842 l 464 884 l 571 819 l 696 884 l 761 840 l 612 726 z "},"Ţ":{"ha":814,"x_min":140,"x_max":913,"o":"m 472 0 l 464 -24 q 545 -113 545 -46 q 509 -192 545 -153 q 392 -231 472 -231 q 220 -203 313 -231 l 255 -111 q 399 -136 359 -136 q 430 -125 430 -136 q 416 -117 430 -121 q 399 -113 403 -113 l 338 -104 l 372 0 l 189 0 l 213 111 l 370 111 l 490 680 l 320 680 l 259 463 l 140 463 l 233 791 l 913 791 l 867 463 l 749 463 l 779 680 l 608 680 l 490 111 l 650 111 l 625 0 l 472 0 z "},"ţ":{"ha":814,"x_min":220,"x_max":755,"o":"m 502 -15 l 499 -24 q 579 -113 579 -46 q 543 -192 579 -153 q 427 -231 507 -231 q 255 -203 345 -231 l 289 -111 q 435 -136 393 -136 q 465 -125 465 -136 q 452 -117 465 -121 q 434 -113 438 -113 l 373 -104 l 401 -16 q 315 14 350 -8 q 266 62 279 35 q 248 106 252 88 q 243 137 243 123 q 264 269 243 167 l 311 484 l 220 484 l 244 598 l 334 598 l 374 791 l 492 791 l 453 598 l 743 598 l 720 484 l 429 484 l 378 256 q 362 156 362 175 q 445 99 362 99 q 557 116 498 99 q 755 187 616 133 l 755 64 q 502 -15 602 -1 z "},"Ť":{"ha":814,"x_min":140,"x_max":913,"o":"m 233 791 l 913 791 l 867 463 l 749 463 l 779 680 l 608 680 l 490 111 l 650 111 l 625 0 l 189 0 l 213 111 l 370 111 l 490 680 l 320 680 l 259 463 l 140 463 l 233 791 m 652 902 l 536 902 l 429 1019 l 505 1061 l 612 996 l 736 1061 l 802 1016 l 652 902 z "},"ť":{"ha":814,"x_min":220,"x_max":755,"o":"m 374 791 l 492 791 l 453 598 l 743 598 l 720 484 l 429 484 l 378 256 q 362 156 362 175 q 445 98 362 98 q 555 115 496 98 q 755 187 614 132 l 755 64 q 442 -19 560 -19 q 296 28 349 -19 q 243 137 243 76 q 264 269 243 167 l 311 484 l 220 484 l 244 598 l 334 598 l 374 791 m 532 869 l 415 869 l 308 986 l 384 1028 l 491 963 l 616 1028 l 681 983 l 532 869 z "},"Ŧ":{"ha":814,"x_min":121,"x_max":907,"o":"m 568 517 l 689 517 l 665 403 l 544 403 l 484 111 l 644 111 l 620 0 l 183 0 l 208 111 l 365 111 l 426 403 l 308 403 l 331 517 l 450 517 l 484 680 l 308 680 l 237 416 l 121 433 l 222 791 l 907 791 l 857 433 l 741 416 l 777 680 l 602 680 l 568 517 z "},"ŧ":{"ha":814,"x_min":189,"x_max":769,"o":"m 416 438 l 735 438 l 712 332 l 395 332 l 380 256 q 363 152 363 172 q 374 121 363 134 q 402 104 385 109 q 429 99 419 100 q 446 98 438 98 q 545 112 490 98 q 735 178 601 126 l 758 66 q 442 -19 556 -19 q 300 25 357 -19 q 244 145 244 69 q 264 269 244 175 l 278 332 l 189 332 l 210 438 l 300 438 l 313 492 l 224 492 l 245 598 l 335 598 l 374 791 l 492 791 l 452 598 l 769 598 l 747 492 l 430 492 l 416 438 z "},"Ũ":{"ha":814,"x_min":163,"x_max":960,"o":"m 187 791 l 536 791 l 511 680 l 378 680 l 304 328 q 286 197 286 244 q 303 140 286 163 q 347 110 320 118 q 389 100 374 102 q 418 98 403 98 q 499 106 464 98 q 558 133 534 114 q 597 168 582 152 q 625 218 613 184 q 641 270 636 251 q 654 328 646 289 l 727 680 l 594 680 l 618 791 l 960 791 l 937 680 l 844 680 l 766 311 q 716 147 742 202 q 647 58 690 92 q 410 -22 549 -22 q 237 33 308 -22 q 167 190 167 87 q 187 342 167 241 l 259 680 l 163 680 l 187 791 m 768 1070 l 859 1042 q 832 998 842 1013 q 798 954 822 982 q 742 911 774 925 q 670 897 709 897 q 571 939 621 897 q 522 968 536 968 q 494 958 507 968 q 473 937 480 947 q 450 903 465 926 q 448 899 450 902 q 445 895 445 897 l 355 928 q 384 972 372 955 q 418 1016 396 990 q 471 1055 441 1042 q 536 1067 500 1067 q 637 1024 586 1067 q 690 996 670 996 q 764 1062 724 996 q 766 1066 764 1063 q 768 1070 768 1069 z "},"ũ":{"ha":814,"x_min":130,"x_max":818,"o":"m 153 614 l 381 614 l 300 237 q 292 171 292 189 q 309 123 292 148 q 365 98 326 98 q 579 202 471 98 l 643 503 l 532 503 l 556 614 l 787 614 l 681 111 l 787 111 l 762 0 l 537 0 l 548 41 q 362 -19 454 -19 q 267 2 307 -19 q 208 56 227 23 q 180 117 189 88 q 172 172 172 146 q 182 248 172 201 l 236 503 l 130 503 l 153 614 m 727 894 l 818 865 q 791 821 802 837 q 758 777 781 806 q 701 734 734 749 q 629 720 669 720 q 530 762 581 720 q 481 792 495 792 q 453 781 467 792 q 432 760 439 770 q 410 727 425 750 q 407 723 410 726 q 404 719 404 720 l 315 751 q 343 796 331 779 q 378 840 355 814 q 430 878 400 865 q 495 891 460 891 q 597 848 545 891 q 650 819 629 819 q 723 886 684 819 q 725 890 723 887 q 727 894 727 892 z "},"Ū":{"ha":814,"x_min":163,"x_max":960,"o":"m 187 791 l 536 791 l 511 680 l 378 680 l 304 328 q 286 197 286 244 q 303 140 286 163 q 347 110 320 118 q 389 100 374 102 q 418 98 403 98 q 499 106 464 98 q 558 133 534 114 q 597 168 582 152 q 625 218 613 184 q 641 270 636 251 q 654 328 646 289 l 727 680 l 594 680 l 618 791 l 960 791 l 937 680 l 844 680 l 766 311 q 716 147 742 202 q 647 58 690 92 q 410 -22 549 -22 q 237 33 308 -22 q 167 190 167 87 q 187 342 167 241 l 259 680 l 163 680 l 187 791 m 387 1038 l 852 1038 l 826 922 l 362 922 l 387 1038 z "},"ū":{"ha":814,"x_min":130,"x_max":811,"o":"m 153 614 l 381 614 l 300 237 q 292 171 292 189 q 309 123 292 148 q 365 98 326 98 q 579 202 471 98 l 643 503 l 532 503 l 556 614 l 787 614 l 681 111 l 787 111 l 762 0 l 537 0 l 548 41 q 362 -19 454 -19 q 267 2 307 -19 q 208 56 227 23 q 180 117 189 88 q 172 172 172 146 q 182 248 172 201 l 236 503 l 130 503 l 153 614 m 346 861 l 811 861 l 785 746 l 321 746 l 346 861 z "},"Ŭ":{"ha":814,"x_min":163,"x_max":960,"o":"m 187 791 l 536 791 l 511 680 l 378 680 l 304 328 q 286 197 286 244 q 303 140 286 163 q 347 110 320 118 q 389 100 374 102 q 418 98 403 98 q 499 106 464 98 q 558 133 534 114 q 597 168 582 152 q 625 218 613 184 q 641 270 636 251 q 654 328 646 289 l 727 680 l 594 680 l 618 791 l 960 791 l 937 680 l 844 680 l 766 311 q 716 147 742 202 q 647 58 690 92 q 410 -22 549 -22 q 237 33 308 -22 q 167 190 167 87 q 187 342 167 241 l 259 680 l 163 680 l 187 791 m 391 1074 l 495 1074 q 501 1044 498 1055 q 515 1015 505 1032 q 549 987 525 997 q 609 978 574 978 q 764 1067 715 978 l 768 1074 l 875 1074 q 836 1005 853 1029 q 785 952 819 981 q 594 886 701 886 q 406 991 454 886 q 391 1074 395 1015 z "},"ŭ":{"ha":814,"x_min":130,"x_max":834,"o":"m 153 614 l 381 614 l 300 237 q 292 171 292 189 q 309 123 292 148 q 365 98 326 98 q 579 202 471 98 l 643 503 l 532 503 l 556 614 l 787 614 l 681 111 l 787 111 l 762 0 l 537 0 l 548 41 q 362 -19 454 -19 q 267 2 307 -19 q 208 56 227 23 q 180 117 189 88 q 172 172 172 146 q 182 248 172 201 l 236 503 l 130 503 l 153 614 m 350 898 l 454 898 q 460 867 457 879 q 474 838 464 856 q 509 811 484 821 q 568 802 533 802 q 723 891 674 802 l 727 898 l 834 898 q 795 829 812 853 q 745 776 779 804 q 553 709 661 709 q 365 815 414 709 q 350 898 354 838 z "},"Ů":{"ha":814,"x_min":163,"x_max":960,"o":"m 187 791 l 536 791 l 511 680 l 378 680 l 304 328 q 286 197 286 244 q 303 140 286 163 q 347 110 320 118 q 389 100 374 102 q 418 98 403 98 q 499 106 464 98 q 558 133 534 114 q 597 168 582 152 q 625 218 613 184 q 641 270 636 251 q 654 328 646 289 l 727 680 l 594 680 l 618 791 l 960 791 l 937 680 l 844 680 l 766 311 q 716 147 742 202 q 647 58 690 92 q 410 -22 549 -22 q 237 33 308 -22 q 167 190 167 87 q 187 342 167 241 l 259 680 l 163 680 l 187 791 m 696 996 q 660 910 696 945 q 574 875 624 875 q 488 910 524 875 q 453 996 453 945 q 488 1082 453 1046 q 574 1118 524 1118 q 660 1082 624 1118 q 696 996 696 1047 m 617 996 q 604 1027 617 1015 q 574 1039 591 1039 q 544 1026 556 1039 q 532 996 532 1013 q 544 966 532 978 q 574 954 556 954 q 604 966 591 954 q 617 996 617 978 z "},"ů":{"ha":814,"x_min":130,"x_max":787,"o":"m 153 614 l 381 614 l 300 237 q 292 171 292 189 q 309 123 292 148 q 365 98 326 98 q 579 202 471 98 l 643 503 l 532 503 l 556 614 l 787 614 l 681 111 l 787 111 l 762 0 l 537 0 l 548 41 q 362 -19 454 -19 q 267 2 307 -19 q 208 56 227 23 q 180 117 189 88 q 172 172 172 146 q 182 248 172 201 l 236 503 l 130 503 l 153 614 m 655 819 q 619 734 655 769 q 533 699 583 699 q 448 734 483 699 q 412 819 412 769 q 448 905 412 869 q 533 941 483 941 q 619 906 583 941 q 655 819 655 871 m 576 819 q 564 850 576 838 q 533 863 551 863 q 503 850 515 863 q 491 819 491 837 q 503 789 491 802 q 533 777 515 777 q 564 789 551 777 q 576 819 576 802 z "},"Ű":{"ha":814,"x_min":163,"x_max":960,"o":"m 187 791 l 536 791 l 511 680 l 378 680 l 304 328 q 286 197 286 244 q 303 140 286 163 q 347 110 320 118 q 389 100 374 102 q 418 98 403 98 q 499 106 464 98 q 558 133 534 114 q 597 168 582 152 q 625 218 613 184 q 641 270 636 251 q 654 328 646 289 l 727 680 l 594 680 l 618 791 l 960 791 l 937 680 l 844 680 l 766 311 q 716 147 742 202 q 647 58 690 92 q 410 -22 549 -22 q 237 33 308 -22 q 167 190 167 87 q 187 342 167 241 l 259 680 l 163 680 l 187 791 m 703 1067 l 456 892 l 358 892 l 545 1067 l 703 1067 m 922 1067 l 675 892 l 578 892 l 765 1067 l 922 1067 z "},"ű":{"ha":814,"x_min":130,"x_max":882,"o":"m 153 614 l 381 614 l 300 237 q 292 171 292 189 q 309 123 292 148 q 365 98 326 98 q 579 202 471 98 l 643 503 l 532 503 l 556 614 l 787 614 l 681 111 l 787 111 l 762 0 l 537 0 l 548 41 q 362 -19 454 -19 q 267 2 307 -19 q 208 56 227 23 q 180 117 189 88 q 172 172 172 146 q 182 248 172 201 l 236 503 l 130 503 l 153 614 m 662 891 l 415 716 l 317 716 l 505 891 l 662 891 m 882 891 l 635 716 l 537 716 l 724 891 l 882 891 z "},"Ų":{"ha":814,"x_min":163,"x_max":960,"o":"m 547 -64 l 499 -157 q 368 -195 429 -195 q 297 -175 327 -195 q 267 -117 267 -155 q 338 -14 267 -62 q 296 -1 316 -9 q 242 29 275 8 q 188 92 209 50 q 167 190 167 133 q 187 342 167 241 l 259 680 l 163 680 l 187 791 l 536 791 l 511 680 l 378 680 l 304 328 q 286 197 286 244 q 303 140 286 163 q 347 110 320 118 q 389 100 374 102 q 418 98 403 98 q 499 106 464 98 q 558 133 534 114 q 597 168 582 152 q 625 218 613 184 q 641 270 636 251 q 654 328 646 289 l 727 680 l 594 680 l 618 791 l 960 791 l 937 680 l 844 680 l 766 311 q 708 134 742 195 q 625 41 674 73 q 475 -23 575 9 q 424 -48 450 -31 q 397 -85 397 -65 q 429 -106 397 -106 q 467 -100 450 -106 q 547 -64 484 -94 z "},"ų":{"ha":814,"x_min":130,"x_max":787,"o":"m 787 111 l 762 0 l 727 0 q 640 -28 707 0 q 574 -85 574 -56 q 605 -106 574 -106 q 644 -100 627 -106 q 723 -64 661 -94 l 677 -157 q 544 -195 606 -195 q 473 -175 503 -195 q 444 -117 444 -155 q 537 0 444 -50 l 548 41 q 362 -19 454 -19 q 267 2 307 -19 q 208 56 227 23 q 180 117 189 88 q 172 172 172 146 q 182 248 172 201 l 236 503 l 130 503 l 153 614 l 381 614 l 300 237 q 292 171 292 189 q 309 123 292 148 q 365 98 326 98 q 579 202 471 98 l 643 503 l 532 503 l 556 614 l 787 614 l 681 111 l 787 111 z "},"Ÿ":{"ha":814,"x_min":164,"x_max":947,"o":"m 187 791 l 500 791 l 476 680 l 393 680 l 490 430 l 690 680 l 613 680 l 639 791 l 947 791 l 922 680 l 831 680 l 524 298 l 484 111 l 639 111 l 613 0 l 187 0 l 209 111 l 366 111 l 407 311 l 263 680 l 164 680 l 187 791 m 426 899 l 461 1055 l 593 1055 l 557 899 l 426 899 m 627 899 l 662 1055 l 793 1055 l 758 899 l 627 899 z "},"Ź":{"ha":814,"x_min":90,"x_max":848,"o":"m 266 791 l 848 791 l 827 696 l 277 111 l 618 111 l 663 327 l 779 327 l 709 0 l 90 0 l 110 100 l 654 680 l 358 680 l 317 486 l 201 486 l 266 791 m 830 1042 l 594 914 l 473 914 l 640 1047 l 830 1047 l 830 1042 z "},"ź":{"ha":814,"x_min":114,"x_max":815,"o":"m 259 614 l 815 614 l 795 518 l 326 111 l 590 111 l 616 236 l 734 236 l 684 0 l 114 0 l 136 102 l 602 503 l 353 503 l 326 385 l 210 385 l 259 614 m 789 865 l 553 738 l 433 738 l 600 871 l 789 871 l 789 865 z "},"Ż":{"ha":814,"x_min":90,"x_max":848,"o":"m 266 791 l 848 791 l 827 696 l 277 111 l 618 111 l 663 327 l 779 327 l 709 0 l 90 0 l 110 100 l 654 680 l 358 680 l 317 486 l 201 486 l 266 791 m 519 899 l 553 1062 l 685 1062 l 650 899 l 519 899 z "},"ż":{"ha":814,"x_min":114,"x_max":815,"o":"m 259 614 l 815 614 l 795 518 l 326 111 l 590 111 l 616 236 l 734 236 l 684 0 l 114 0 l 136 102 l 602 503 l 353 503 l 326 385 l 210 385 l 259 614 m 479 723 l 513 886 l 644 886 l 609 723 l 479 723 z "},"Ž":{"ha":814,"x_min":90,"x_max":848,"o":"m 266 791 l 848 791 l 827 696 l 277 111 l 618 111 l 663 327 l 779 327 l 709 0 l 90 0 l 110 100 l 654 680 l 358 680 l 317 486 l 201 486 l 266 791 m 652 902 l 536 902 l 429 1019 l 505 1061 l 612 996 l 736 1061 l 802 1016 l 652 902 z "},"ž":{"ha":814,"x_min":114,"x_max":815,"o":"m 259 614 l 815 614 l 795 518 l 326 111 l 590 111 l 616 236 l 734 236 l 684 0 l 114 0 l 136 102 l 602 503 l 353 503 l 326 385 l 210 385 l 259 614 m 612 726 l 495 726 l 388 842 l 464 884 l 571 819 l 696 884 l 761 840 l 612 726 z "},"ƒ":{"ha":814,"x_min":-16,"x_max":901,"o":"m 343 651 l 480 651 l 505 713 q 528 769 518 749 q 561 823 537 789 q 612 874 585 856 q 688 907 640 892 q 796 922 736 922 q 901 911 831 922 l 829 791 q 758 806 789 806 q 673 778 700 806 q 616 680 647 750 l 604 651 l 745 651 l 696 537 l 559 537 l 381 80 q 355 19 368 43 q 319 -36 343 -5 q 265 -85 294 -66 q 189 -116 236 -103 q 81 -129 141 -129 q -16 -119 28 -129 l 56 0 q 118 -12 87 -12 q 180 -5 155 -12 q 221 22 205 3 q 246 58 237 42 q 269 111 255 75 l 435 537 l 296 537 l 343 651 z "},"ǵ":{"ha":814,"x_min":103,"x_max":888,"o":"m 662 614 l 888 614 l 864 503 l 757 503 l 662 58 q 652 18 656 34 q 636 -29 648 1 q 610 -80 624 -60 q 569 -125 595 -100 q 510 -165 543 -151 q 429 -191 477 -180 q 323 -202 381 -202 q 179 -191 252 -202 l 205 -73 q 327 -85 269 -85 q 536 31 506 -85 l 547 73 q 357 15 454 15 q 174 85 244 15 q 103 262 103 156 q 216 512 103 401 q 477 623 328 623 q 648 555 568 623 l 662 614 m 365 132 q 534 205 464 132 q 604 372 604 278 q 566 467 604 429 q 471 506 528 506 q 302 433 376 506 q 229 271 229 361 q 268 170 229 209 q 365 132 307 132 m 789 865 l 553 738 l 433 738 l 600 871 l 789 871 l 789 865 z "},"ˆ":{"ha":814,"x_min":378,"x_max":751,"o":"m 529 884 l 646 884 l 751 768 l 675 726 l 570 791 l 445 726 l 378 770 l 529 884 z "},"ˇ":{"ha":814,"x_min":388,"x_max":761,"o":"m 612 726 l 495 726 l 388 842 l 464 884 l 571 819 l 696 884 l 761 840 l 612 726 z "},"˘":{"ha":814,"x_min":350,"x_max":834,"o":"m 350 898 l 454 898 q 460 867 457 879 q 474 838 464 856 q 509 811 484 821 q 568 802 533 802 q 723 891 674 802 l 727 898 l 834 898 q 795 829 812 853 q 745 776 779 804 q 553 709 661 709 q 365 815 414 709 q 350 898 354 838 z "},"˙":{"ha":814,"x_min":479,"x_max":644,"o":"m 479 723 l 513 886 l 644 886 l 609 723 l 479 723 z "},"˚":{"ha":814,"x_min":412,"x_max":655,"o":"m 655 819 q 619 734 655 769 q 533 699 583 699 q 448 734 483 699 q 412 819 412 769 q 448 905 412 869 q 533 941 483 941 q 619 906 583 941 q 655 819 655 871 m 576 819 q 564 850 576 838 q 533 863 551 863 q 503 850 515 863 q 491 819 491 837 q 503 789 491 802 q 533 777 515 777 q 564 789 551 777 q 576 819 576 802 z "},"˛":{"ha":814,"x_min":243,"x_max":530,"o":"m 524 -64 l 476 -157 q 345 -195 406 -195 q 273 -175 304 -195 q 243 -117 243 -155 q 290 -33 243 -72 q 411 26 336 7 l 530 26 l 530 22 q 434 -26 495 5 q 373 -85 373 -58 q 406 -106 373 -106 q 444 -99 426 -106 q 524 -64 463 -92 z "},"˜":{"ha":814,"x_min":315,"x_max":818,"o":"m 727 894 l 818 865 q 791 821 802 837 q 758 777 781 806 q 701 734 734 749 q 629 720 669 720 q 530 762 581 720 q 481 792 495 792 q 453 781 467 792 q 432 760 439 770 q 410 727 425 750 q 407 723 410 726 q 404 719 404 720 l 315 751 q 343 796 331 779 q 378 840 355 814 q 430 878 400 865 q 495 891 460 891 q 597 848 545 891 q 650 819 629 819 q 723 886 684 819 q 725 890 723 887 q 727 894 727 892 z "},"˝":{"ha":814,"x_min":317,"x_max":882,"o":"m 662 891 l 415 716 l 317 716 l 505 891 l 662 891 m 882 891 l 635 716 l 537 716 l 724 891 l 882 891 z "},"Γ":{"ha":814,"x_min":72,"x_max":903,"o":"m 222 791 l 903 791 l 849 503 l 742 503 l 768 680 l 433 680 l 311 111 l 486 111 l 463 0 l 72 0 l 95 111 l 199 111 l 320 680 l 199 680 l 222 791 z "},"Θ":{"ha":814,"x_min":107,"x_max":859,"o":"m 300 262 l 354 518 l 452 518 l 434 438 l 548 438 l 566 518 l 663 518 l 609 262 l 511 262 l 528 342 l 414 342 l 397 262 l 300 262 m 107 288 q 164 535 107 415 q 328 734 221 655 q 564 812 435 812 q 779 721 700 812 q 859 507 859 629 q 802 256 859 377 q 638 56 745 136 q 404 -23 532 -23 q 186 70 264 -23 q 107 288 107 163 m 227 304 q 272 154 227 221 q 415 87 317 87 q 644 212 549 87 q 739 483 739 338 q 693 637 739 572 q 552 703 647 703 q 322 578 418 703 q 227 304 227 454 z "},"Σ":{"ha":814,"x_min":47,"x_max":890,"o":"m 890 791 l 821 503 l 713 503 l 739 680 l 332 680 l 477 401 l 214 111 l 629 111 l 675 290 l 783 290 l 726 0 l 47 0 l 69 100 l 349 410 l 199 693 l 220 791 l 890 791 z "},"Φ":{"ha":814,"x_min":132,"x_max":849,"o":"m 499 704 l 378 704 l 396 791 l 732 791 l 715 704 l 613 704 l 601 648 q 751 612 708 637 q 825 536 802 582 q 849 444 849 491 q 813 311 849 378 q 708 203 777 244 q 494 149 624 153 l 480 85 l 598 85 l 582 0 l 247 0 l 264 85 l 368 85 l 382 148 q 221 189 281 152 q 132 349 132 243 q 132 370 132 358 q 140 411 133 381 q 159 468 146 441 q 198 528 171 495 q 261 585 225 562 q 355 627 297 609 q 487 648 414 646 l 499 704 m 403 254 l 465 543 q 385 531 420 541 q 327 507 349 521 q 289 472 305 492 q 265 436 273 452 q 254 401 258 420 q 249 375 250 382 q 248 361 248 368 q 261 310 248 331 q 288 279 274 289 q 330 263 301 270 q 368 256 358 256 q 403 254 377 255 m 578 543 l 515 255 q 621 276 576 258 q 686 315 666 294 q 718 366 707 336 q 731 409 730 396 q 732 435 732 422 q 578 543 732 537 z "},"Ω":{"ha":814,"x_min":27,"x_max":888,"o":"m 27 0 l 60 144 l 155 144 l 144 94 l 283 94 l 296 144 q 271 153 296 144 q 237 168 247 163 q 203 187 227 174 q 168 217 180 201 q 139 256 155 233 q 117 309 123 278 q 110 376 110 339 q 243 683 110 552 q 557 814 376 814 q 793 730 697 814 q 888 517 888 646 q 811 288 888 396 q 585 144 734 180 l 572 94 l 705 94 l 718 144 l 814 144 l 781 0 l 444 0 l 490 216 q 665 271 598 220 q 745 373 715 309 q 774 503 774 437 q 711 648 774 594 q 552 703 648 703 q 317 605 411 703 q 224 382 224 507 q 266 275 224 317 q 414 216 308 233 l 368 0 l 27 0 z "},"α":{"ha":814,"x_min":43,"x_max":846,"o":"m 684 111 l 779 111 l 755 0 l 581 0 q 555 159 568 83 q 269 -20 416 -20 q 107 52 171 -20 q 43 232 43 125 q 147 513 43 392 q 388 635 251 635 q 467 618 431 635 q 524 583 503 602 q 565 530 545 563 q 592 477 585 496 q 609 429 600 458 l 738 646 l 846 621 l 644 294 q 648 277 646 289 q 654 251 651 266 q 684 111 677 157 m 529 297 q 505 375 513 350 q 483 435 498 400 q 456 486 468 471 q 424 513 444 500 q 381 525 404 525 q 228 436 293 525 q 163 241 163 347 q 201 127 163 165 q 289 90 240 90 q 529 297 392 90 z "},"δ":{"ha":814,"x_min":107,"x_max":796,"o":"m 796 859 l 773 747 l 434 747 l 605 602 q 747 355 747 480 q 632 92 747 203 q 370 -20 517 -20 q 181 54 255 -20 q 107 236 107 127 q 129 347 107 289 q 191 458 151 406 q 299 548 232 511 q 448 590 366 585 l 345 680 q 279 747 301 718 l 302 859 l 796 859 m 472 492 q 295 416 366 492 q 224 244 224 339 q 264 136 224 182 q 377 91 305 91 q 556 169 481 91 q 631 342 631 247 q 616 412 631 382 q 583 457 602 442 q 539 480 564 472 q 499 490 514 488 q 472 492 484 492 z "},"ε":{"ha":814,"x_min":103,"x_max":788,"o":"m 689 646 l 788 637 q 749 517 760 560 q 732 401 738 473 l 637 388 q 628 448 633 429 q 606 492 623 468 q 556 526 590 517 q 468 536 522 536 q 362 511 403 536 q 321 454 321 487 q 374 395 321 418 q 514 372 426 372 q 533 372 517 372 q 564 373 549 373 l 541 264 q 461 269 492 269 q 323 250 380 269 q 244 207 266 231 q 222 161 222 183 q 233 132 222 146 q 276 104 243 118 q 361 91 309 91 q 461 103 415 91 q 604 152 507 115 l 613 45 q 606 42 609 45 q 340 -20 452 -20 q 171 26 239 -20 q 103 141 103 72 q 154 252 103 198 q 283 328 205 305 q 202 445 202 377 q 284 586 202 530 q 464 642 366 642 q 665 563 567 642 l 689 646 z "},"μ":{"ha":814,"x_min":92,"x_max":792,"o":"m 156 614 l 384 614 l 311 274 q 297 186 297 213 q 326 126 297 155 q 406 98 355 98 q 602 289 564 98 l 650 509 l 541 509 l 564 614 l 792 614 l 684 111 l 792 111 l 768 0 l 541 0 l 549 35 l 547 38 q 404 -19 492 -19 q 260 38 308 -19 l 212 -193 l 92 -193 l 241 509 l 133 509 l 156 614 z "},"π":{"ha":814,"x_min":-11,"x_max":829,"o":"m 829 614 l 804 503 l 705 503 l 620 111 l 738 111 l 715 0 l 404 0 l 427 111 l 507 111 l 591 503 l 312 503 l 225 111 l 312 111 l 292 0 l -11 0 l 12 111 l 113 111 l 197 503 l 79 503 l 102 614 l 829 614 z "},"σ":{"ha":814,"x_min":68,"x_max":880,"o":"m 880 642 l 856 526 l 656 540 l 654 537 q 736 368 736 484 q 621 101 736 222 q 345 -20 506 -20 q 144 60 220 -20 q 68 243 68 140 q 119 430 68 342 q 247 570 171 518 q 365 621 296 604 q 471 640 434 637 q 570 642 509 642 l 880 642 m 453 528 q 264 445 342 528 q 187 260 187 362 q 231 144 187 194 q 357 94 275 94 q 540 176 463 94 q 617 363 617 259 q 572 479 617 430 q 453 528 528 528 z "},"τ":{"ha":814,"x_min":161,"x_max":713,"o":"m 488 503 l 414 156 q 410 119 410 127 q 449 91 410 91 q 544 127 491 91 q 549 132 545 129 q 560 140 559 138 l 555 30 q 552 28 553 30 q 549 27 551 27 q 403 -12 479 -12 q 321 12 353 -12 q 290 85 290 35 q 297 133 290 106 l 376 503 l 312 503 q 161 488 245 503 l 183 591 q 263 610 210 600 q 317 614 283 614 l 713 614 l 690 503 l 488 503 z "},"φ":{"ha":814,"x_min":113,"x_max":830,"o":"m 429 -18 l 389 -205 l 270 -205 l 312 -8 q 193 50 236 11 q 113 244 113 125 q 193 472 113 363 q 267 552 227 519 q 334 597 308 585 q 412 632 359 610 l 384 499 q 302 433 335 469 q 256 360 269 396 q 240 303 244 324 q 236 263 236 282 q 241 218 236 243 q 272 159 247 193 q 338 110 297 125 l 411 457 q 606 643 452 643 q 760 576 690 643 q 830 392 830 509 q 809 262 830 334 q 738 137 788 190 q 646 55 690 87 q 561 9 602 23 q 494 -10 519 -5 q 429 -18 468 -15 m 530 458 l 453 96 q 511 106 490 100 q 572 138 532 111 q 656 216 612 165 q 707 370 707 273 q 669 482 707 438 q 591 526 632 526 q 530 458 541 526 z "},"،":{"ha":864,"x_min":243,"x_max":515,"o":"m 510 126 q 515 107 510 126 q 503 60 521 88 q 445 33 484 33 q 334 76 385 33 q 256 199 279 122 q 252 341 235 271 q 315 450 269 411 l 326 461 l 380 416 l 369 403 q 332 323 340 363 q 336 240 323 282 q 349 212 340 225 l 350 209 q 389 221 368 221 q 463 193 427 221 q 510 126 499 164 z "},"؛":{"ha":864,"x_min":174,"x_max":506,"o":"m 502 91 q 507 73 502 91 q 495 28 513 54 q 440 3 477 3 q 370 28 403 3 q 326 91 336 54 q 332 153 315 127 q 387 179 350 179 q 458 153 425 179 q 502 91 491 127 m 440 359 q 446 340 440 359 q 433 294 452 321 q 374 266 414 266 q 263 311 316 266 q 186 434 209 357 q 180 575 164 505 q 244 685 197 646 l 256 693 l 309 650 l 298 636 q 261 557 270 598 q 266 473 252 517 q 278 445 270 458 l 279 444 q 319 456 296 456 q 392 427 355 456 q 440 359 429 397 z "},"؟":{"ha":833,"x_min":-33,"x_max":559,"o":"m 506 583 l 385 583 l 357 678 l 327 688 q 213 701 286 701 q 119 668 155 701 q 102 578 84 635 q 132 524 111 548 q 171 487 152 500 q 227 460 190 473 q 281 443 263 448 q 339 429 298 438 q 378 420 347 427 q 385 419 380 420 q 391 418 385 419 l 442 248 l 323 248 l 300 327 q 236 345 260 336 q 166 374 212 353 q 89 418 121 395 q 26 484 57 442 q -20 575 -5 525 q 3 750 -52 678 q 191 822 58 822 q 407 783 273 822 q 450 768 442 770 l 506 583 m 323 165 q 336 181 323 165 q 400 197 349 197 q 496 165 452 197 q 552 88 540 133 q 542 10 567 42 q 467 -22 517 -22 q 371 10 415 -22 q 313 88 327 42 q 323 165 298 134 z "},"ء":{"ha":864,"x_min":229,"x_max":586,"o":"m 301 134 q 361 109 326 118 q 444 99 396 99 q 528 115 467 99 q 586 133 548 121 l 556 3 q 503 -11 525 -7 q 412 -41 446 -26 q 362 -65 392 -49 q 302 -99 332 -81 q 274 -117 302 -99 l 264 -68 q 288 -9 264 -43 q 309 20 294 3 q 279 37 289 30 q 237 92 247 60 q 255 232 218 155 q 362 312 294 312 q 441 289 397 312 q 476 264 454 281 l 448 170 q 416 178 429 176 q 351 187 378 187 q 327 171 343 187 q 301 134 323 165 z "},"آ":{"ha":864,"x_min":-34,"x_max":519,"o":"m 518 3 l 476 -66 q 412 102 460 -15 q 293 378 353 251 q 156 635 217 540 l 191 788 q 332 534 251 724 q 454 203 389 399 q 518 3 494 87 m 304 1005 q 307 913 302 1000 q 308 825 308 826 q 292 867 305 837 q 271 910 279 898 q 167 854 232 871 q 73 845 127 845 l 54 845 l 47 845 q 42 812 45 838 q 39 787 41 804 q 33 788 37 787 q 27 788 28 788 q 22 787 22 788 l -33 967 q 31 943 -5 951 q 102 935 66 935 q 202 955 149 935 q 304 1005 254 979 z "},"أ":{"ha":864,"x_min":54,"x_max":545,"o":"m 544 3 l 500 -66 q 442 92 486 -18 q 327 354 385 232 q 193 601 255 506 l 229 754 q 365 510 288 690 q 483 193 420 380 q 544 3 519 84 m 264 817 q 232 798 263 817 q 167 753 189 769 q 115 704 127 724 l 109 727 q 110 769 104 739 q 114 798 110 780 q 87 817 98 804 q 60 860 68 834 q 69 970 46 907 q 141 1038 95 1038 q 175 1024 161 1038 q 195 990 189 1010 q 198 955 199 972 q 191 933 197 937 q 178 943 184 940 q 149 952 164 952 q 106 929 130 952 q 87 887 81 906 q 119 868 91 876 q 171 860 148 860 q 227 882 191 860 q 266 910 247 895 l 264 817 z "},"ؤ":{"ha":864,"x_min":107,"x_max":639,"o":"m 563 47 l 408 47 q 297 172 334 47 q 278 328 274 248 q 353 437 286 437 q 490 338 415 437 q 590 142 560 245 l 610 75 q 623 -191 658 -81 q 452 -317 583 -317 q 380 -295 423 -317 q 304 -243 336 -273 q 495 -123 418 -205 q 563 47 578 -37 m 494 199 q 437 256 467 233 q 382 283 404 283 q 346 262 359 283 q 332 213 336 244 q 343 204 335 209 q 362 199 351 199 l 494 199 m 317 530 l 286 511 q 221 467 243 483 q 168 418 182 438 l 161 441 q 163 483 159 453 q 167 513 164 494 q 140 530 151 518 q 114 574 122 548 q 122 684 99 621 q 194 751 148 751 q 228 738 214 751 q 248 704 241 726 q 252 669 254 686 q 245 647 251 651 q 231 656 237 654 q 203 666 217 666 q 159 643 183 666 q 141 601 136 620 q 174 583 144 591 q 227 574 202 574 q 279 597 245 574 q 320 624 300 609 l 317 530 z "},"إ":{"ha":864,"x_min":129,"x_max":617,"o":"m 491 3 l 449 -66 q 385 102 433 -15 q 266 378 326 251 q 129 635 190 540 l 164 788 q 305 534 224 724 q 427 203 362 399 q 491 3 467 87 m 614 -334 q 582 -354 613 -334 q 515 -399 538 -382 q 464 -446 479 -427 l 457 -423 q 460 -382 456 -411 q 464 -353 460 -372 q 435 -334 449 -346 q 410 -290 418 -316 q 420 -182 396 -244 q 491 -114 446 -114 q 525 -126 511 -114 q 544 -160 538 -140 q 548 -195 549 -178 q 540 -217 548 -214 q 529 -209 533 -210 q 499 -199 514 -199 q 456 -222 479 -199 q 438 -264 431 -244 q 470 -282 441 -274 q 521 -290 499 -290 q 576 -269 543 -290 q 616 -240 597 -255 l 614 -334 z "},"ئ":{"ha":864,"x_min":-39,"x_max":697,"o":"m 426 256 q 528 227 449 245 q 669 144 652 197 l 688 81 q 655 -68 715 -8 q 515 -142 610 -117 q 366 -163 439 -163 q 172 -111 239 -163 q 75 49 109 -64 q 56 194 58 104 q 71 324 54 283 l 88 324 q 92 248 88 302 q 109 148 98 183 q 205 20 136 58 q 349 -8 260 -8 q 518 15 439 -8 q 620 64 575 34 q 514 92 593 75 q 381 153 391 122 q 362 273 363 210 q 372 395 361 330 q 416 518 382 461 q 511 590 458 590 q 579 574 552 590 q 620 513 608 553 q 633 427 629 484 q 627 351 637 362 q 598 400 612 376 q 543 434 575 434 q 480 400 510 434 q 438 326 450 366 q 430 294 431 304 q 426 256 426 274 m 171 461 l 138 441 q 72 396 96 412 q 20 349 35 368 l 14 372 q 16 412 12 384 q 20 442 16 423 q -8 461 4 449 q -34 505 -26 479 q -23 613 -47 552 q 47 681 3 681 q 81 669 68 681 q 100 635 95 655 q 104 598 106 617 q 96 578 104 581 q 85 586 88 585 q 57 597 69 597 q 12 574 35 597 q -7 530 -12 551 q 26 513 -3 521 q 79 505 56 505 q 132 526 99 505 l 172 553 l 171 461 z "},"ا":{"ha":864,"x_min":155,"x_max":518,"o":"m 517 3 l 475 -66 q 411 102 458 -15 q 292 378 351 251 q 155 635 216 540 l 190 788 q 331 534 250 724 q 453 203 388 399 q 517 3 492 87 z "},"ب":{"ha":864,"x_min":-39,"x_max":838,"o":"m 210 0 q 68 39 127 0 q -27 176 0 85 q -37 305 -43 232 q 9 419 -27 384 l 39 419 q 23 361 27 382 q 22 254 9 294 q 69 184 35 209 q 193 153 114 153 l 708 153 q 662 231 697 190 q 606 285 648 244 l 613 434 q 712 311 662 389 q 799 132 773 218 l 838 0 l 210 0 m 609 -152 l 555 -228 l 445 -145 l 499 -68 l 609 -152 z "},"ة":{"ha":864,"x_min":75,"x_max":579,"o":"m 237 613 l 183 536 l 76 618 l 127 697 l 237 613 m 412 620 l 358 543 l 248 625 l 302 703 l 412 620 m 557 153 q 570 4 591 42 q 461 -34 549 -34 q 350 -9 396 -34 q 279 75 297 19 q 274 178 266 123 q 305 271 282 222 q 345 339 320 305 l 292 380 l 357 475 q 418 396 381 445 q 499 275 464 334 q 557 153 544 201 m 507 160 q 468 204 499 183 q 422 225 437 225 q 355 201 377 225 q 326 152 339 187 q 376 127 350 137 q 435 117 403 117 q 486 130 465 117 q 507 160 506 142 z "},"ت":{"ha":864,"x_min":-39,"x_max":838,"o":"m 210 0 q 68 39 127 0 q -27 176 0 85 q -37 305 -43 232 q 9 419 -27 384 l 39 419 q 23 361 27 382 q 22 254 9 294 q 69 184 35 209 q 193 153 114 153 l 708 153 q 662 231 697 190 q 606 285 648 244 l 613 434 q 712 311 662 389 q 799 132 773 218 l 838 0 l 210 0 m 346 416 l 292 339 l 183 423 l 237 500 l 346 416 m 519 423 l 465 346 l 357 429 l 411 507 l 519 423 z "},"ث":{"ha":864,"x_min":-39,"x_max":838,"o":"m 210 0 q 68 39 127 0 q -27 176 0 85 q -37 305 -43 232 q 9 419 -27 384 l 39 419 q 23 361 27 382 q 22 254 9 294 q 69 184 35 209 q 193 153 114 153 l 708 153 q 662 231 697 190 q 606 285 648 244 l 613 434 q 712 311 662 389 q 799 132 773 218 l 838 0 l 210 0 m 316 416 l 262 339 l 153 423 l 208 500 l 316 416 m 490 423 l 435 346 l 327 429 l 381 507 l 490 423 m 358 536 l 305 458 l 197 543 l 251 620 l 358 536 z "},"ج":{"ha":864,"x_min":72,"x_max":848,"o":"m 339 184 q 244 244 286 222 q 153 275 187 275 q 116 261 134 275 q 83 222 98 247 l 73 232 q 73 319 72 275 q 145 423 81 423 q 270 368 190 423 q 408 266 339 316 q 545 210 491 210 l 661 210 l 629 64 l 439 64 q 265 1 334 64 q 218 -136 197 -62 q 370 -275 241 -210 q 636 -339 498 -339 l 846 -339 q 744 -451 788 -411 q 669 -491 700 -491 q 368 -415 500 -491 q 172 -176 218 -330 q 166 -11 149 -99 q 235 126 183 77 q 271 151 247 137 q 339 184 300 167 m 545 -152 l 491 -228 l 382 -145 l 437 -68 l 545 -152 z "},"ح":{"ha":864,"x_min":72,"x_max":848,"o":"m 339 184 q 244 244 286 222 q 153 275 187 275 q 116 261 134 275 q 83 222 98 247 l 73 232 q 73 319 72 275 q 145 423 81 423 q 270 368 190 423 q 408 266 339 316 q 545 210 491 210 l 661 210 l 629 64 l 439 64 q 265 1 334 64 q 218 -136 197 -62 q 370 -275 241 -210 q 636 -339 498 -339 l 846 -339 q 744 -451 788 -411 q 669 -491 700 -491 q 368 -415 500 -491 q 172 -176 218 -330 q 166 -11 149 -99 q 235 126 183 77 q 271 151 247 137 q 339 184 300 167 z "},"خ":{"ha":864,"x_min":-26,"x_max":848,"o":"m 339 184 q 244 244 286 222 q 153 275 187 275 q 116 261 134 275 q 83 222 98 247 l 73 232 q 73 319 72 275 q 145 423 81 423 q 270 368 190 423 q 408 266 339 316 q 545 210 491 210 l 661 210 l 629 64 l 439 64 q 265 1 334 64 q 218 -136 197 -62 q 370 -275 241 -210 q 636 -339 498 -339 l 846 -339 q 744 -451 788 -411 q 669 -491 700 -491 q 368 -415 500 -491 q 172 -176 218 -330 q 166 -11 149 -99 q 235 126 183 77 q 271 151 247 137 q 339 184 300 167 m 137 620 l 83 543 l -26 625 l 28 703 l 137 620 z "},"د":{"ha":864,"x_min":182,"x_max":616,"o":"m 604 104 q 614 34 617 57 q 572 0 612 0 l 289 0 q 231 37 256 0 q 191 125 209 68 q 182 180 184 149 q 183 233 180 210 q 218 193 203 206 q 302 153 263 153 l 486 153 q 503 163 495 153 q 506 186 510 172 q 433 281 494 224 q 283 385 368 339 l 247 564 q 281 543 248 564 q 357 487 319 517 q 446 406 408 445 q 540 266 496 354 q 604 104 578 189 z "},"ذ":{"ha":864,"x_min":77,"x_max":616,"o":"m 604 104 q 614 34 617 57 q 572 0 612 0 l 289 0 q 231 37 256 0 q 191 125 209 68 q 182 180 184 149 q 183 233 180 210 q 218 193 203 206 q 302 153 263 153 l 486 153 q 503 163 495 153 q 506 186 510 172 q 433 281 494 224 q 283 385 368 339 l 247 564 q 281 543 248 564 q 357 487 319 517 q 446 406 408 445 q 540 266 496 354 q 604 104 578 189 m 240 693 l 187 616 l 77 699 l 133 776 l 240 693 z "},"ر":{"ha":864,"x_min":293,"x_max":644,"o":"m 454 -338 q 376 -313 425 -338 q 294 -260 327 -289 q 506 -111 422 -220 q 564 68 587 -8 q 486 171 553 104 q 422 231 464 193 l 418 416 q 458 374 422 416 q 544 259 505 321 q 624 83 597 171 q 643 -95 648 -1 q 593 -262 636 -198 q 454 -338 544 -338 z "},"ز":{"ha":864,"x_min":206,"x_max":644,"o":"m 454 -338 q 376 -313 425 -338 q 294 -260 327 -289 q 506 -111 422 -220 q 564 68 587 -8 q 486 171 553 104 q 422 231 464 193 l 418 416 q 458 374 422 416 q 544 259 505 321 q 624 83 597 171 q 643 -95 648 -1 q 593 -262 636 -198 q 454 -338 544 -338 m 349 522 l 304 458 l 208 534 l 252 597 l 349 522 z "},"س":{"ha":864,"x_min":18,"x_max":814,"o":"m 450 172 q 521 217 500 172 q 537 328 538 255 l 548 328 q 629 217 589 252 q 708 176 674 176 q 731 203 739 176 q 693 250 727 218 q 659 278 681 260 l 667 406 q 689 382 670 406 q 745 304 720 349 q 803 160 779 239 q 808 64 821 99 q 762 28 795 28 l 751 28 q 697 39 728 28 q 606 104 647 58 q 578 53 602 79 q 518 22 551 22 l 461 22 l 471 -7 q 450 -198 498 -100 q 376 -277 423 -255 q 293 -294 342 -292 q 132 -228 209 -297 q 30 -54 65 -171 q 20 94 12 4 q 41 193 27 170 l 58 193 q 58 117 56 156 q 72 18 62 52 q 168 -110 96 -61 q 275 -141 212 -140 q 332 -130 302 -141 q 399 -80 370 -117 q 416 -31 411 -66 q 336 81 403 14 q 273 138 315 103 l 290 305 q 366 220 320 259 q 450 172 423 172 z "},"ش":{"ha":864,"x_min":18,"x_max":814,"o":"m 450 172 q 521 217 500 172 q 537 328 538 255 l 548 328 q 629 217 589 252 q 708 176 674 176 q 731 203 739 176 q 693 250 727 218 q 659 278 681 260 l 667 406 q 689 382 670 406 q 745 304 720 349 q 803 160 779 239 q 808 64 821 99 q 762 28 795 28 l 751 28 q 697 39 728 28 q 606 104 647 58 q 578 53 602 79 q 518 22 551 22 l 461 22 l 471 -7 q 450 -198 498 -100 q 376 -277 423 -255 q 293 -294 342 -292 q 132 -228 209 -297 q 30 -54 65 -171 q 20 94 12 4 q 41 193 27 170 l 58 193 q 58 117 56 156 q 72 18 62 52 q 168 -110 96 -61 q 275 -141 212 -140 q 332 -130 302 -141 q 399 -80 370 -117 q 416 -31 411 -66 q 336 81 403 14 q 273 138 315 103 l 290 305 q 366 220 320 259 q 450 172 423 172 m 471 476 l 418 399 l 309 483 l 362 559 l 471 476 m 646 483 l 591 406 l 483 488 l 536 567 l 646 483 m 514 595 l 461 518 l 353 602 l 404 680 l 514 595 z "},"ص":{"ha":864,"x_min":24,"x_max":822,"o":"m 477 -20 q 457 -210 505 -114 q 382 -289 429 -267 q 300 -307 349 -305 q 138 -241 216 -311 q 37 -68 72 -183 q 27 81 19 -8 q 47 180 34 156 l 65 180 q 65 103 62 142 q 79 4 69 38 q 175 -123 103 -75 q 282 -153 218 -153 q 340 -142 309 -153 q 406 -94 377 -129 q 423 -45 418 -80 q 342 69 410 0 q 279 125 321 91 l 297 292 q 373 206 319 256 q 457 160 423 160 q 480 231 465 159 q 525 363 496 300 q 593 435 556 434 q 647 419 621 438 q 720 349 694 384 q 789 194 761 288 q 818 73 811 122 q 802 0 829 0 l 471 0 l 477 -20 m 751 178 q 694 252 739 216 q 627 288 652 288 q 564 259 593 288 q 500 149 528 224 l 732 149 q 747 156 742 149 q 751 178 754 165 z "},"ض":{"ha":864,"x_min":24,"x_max":822,"o":"m 477 -20 q 457 -210 505 -114 q 382 -289 429 -267 q 300 -307 349 -305 q 138 -241 216 -311 q 37 -68 72 -183 q 27 81 19 -8 q 47 180 34 156 l 65 180 q 65 103 62 142 q 79 4 69 38 q 175 -123 103 -75 q 282 -153 218 -153 q 340 -142 309 -153 q 406 -94 377 -129 q 423 -45 418 -80 q 342 69 410 0 q 279 125 321 91 l 297 292 q 373 206 319 256 q 457 160 423 160 q 480 231 465 159 q 525 363 496 300 q 593 435 556 434 q 647 419 621 438 q 720 349 694 384 q 789 194 761 288 q 818 73 811 122 q 802 0 829 0 l 471 0 l 477 -20 m 751 178 q 694 252 739 216 q 627 288 652 288 q 564 259 593 288 q 500 149 528 224 l 732 149 q 747 156 742 149 q 751 178 754 165 m 454 510 l 400 433 l 290 517 l 346 593 l 454 510 z "},"ط":{"ha":864,"x_min":19,"x_max":746,"o":"m 713 237 q 746 77 746 130 q 681 0 745 0 l 209 0 q 111 52 160 0 q 45 145 77 87 q 19 197 45 145 q 56 175 43 182 q 132 153 102 153 l 193 153 q 239 171 220 153 q 263 210 252 184 q 152 467 218 327 q 41 669 76 625 l 60 854 q 160 675 100 804 q 259 439 208 575 q 319 273 302 327 q 339 317 328 294 q 393 400 365 369 q 479 445 435 445 q 609 388 538 445 q 713 237 688 323 m 671 187 q 586 259 640 228 q 499 288 536 288 q 431 264 467 288 q 327 153 380 231 l 613 153 q 650 162 635 153 q 671 187 665 171 z "},"ظ":{"ha":864,"x_min":19,"x_max":746,"o":"m 713 237 q 746 77 746 130 q 681 0 745 0 l 209 0 q 111 52 160 0 q 45 145 77 87 q 19 197 45 145 q 56 175 43 182 q 132 153 102 153 l 193 153 q 239 171 220 153 q 263 210 252 184 q 152 467 218 327 q 41 669 76 625 l 60 854 q 160 675 100 804 q 259 439 208 575 q 319 273 302 327 q 339 317 328 294 q 393 400 365 369 q 479 445 435 445 q 609 388 538 445 q 713 237 688 323 m 671 187 q 586 259 640 228 q 499 288 536 288 q 431 264 467 288 q 327 153 380 231 l 613 153 q 650 162 635 153 q 671 187 665 171 m 437 579 l 382 502 l 274 586 l 328 663 l 437 579 z "},"ع":{"ha":864,"x_min":35,"x_max":846,"o":"m 191 121 q 109 183 137 156 q 45 277 58 228 q 61 430 20 357 q 152 498 96 498 q 256 468 202 498 q 372 372 309 438 l 372 359 q 321 373 372 359 q 250 385 270 385 q 146 355 194 385 q 94 298 111 330 q 189 244 133 270 q 298 214 258 214 q 324 220 315 214 l 514 298 l 515 142 q 479 129 514 142 q 397 95 433 111 q 315 50 346 71 q 241 -30 271 22 q 218 -137 205 -91 q 372 -270 239 -203 q 635 -339 507 -339 l 845 -339 q 743 -449 785 -410 q 667 -490 696 -490 q 476 -452 576 -490 q 288 -339 366 -411 q 168 -157 199 -260 q 156 -7 146 -87 q 191 121 163 66 z "},"غ":{"ha":864,"x_min":-33,"x_max":846,"o":"m 191 121 q 109 183 137 156 q 45 277 58 228 q 61 430 20 357 q 152 498 96 498 q 256 468 202 498 q 372 372 309 438 l 372 359 q 321 373 372 359 q 250 385 270 385 q 146 355 194 385 q 94 298 111 330 q 189 244 133 270 q 298 214 258 214 q 324 220 315 214 l 514 298 l 515 142 q 479 129 514 142 q 397 95 433 111 q 315 50 346 71 q 241 -30 271 22 q 218 -137 205 -91 q 372 -270 239 -203 q 635 -339 507 -339 l 845 -339 q 743 -449 785 -410 q 667 -490 696 -490 q 476 -452 576 -490 q 288 -339 366 -411 q 168 -157 199 -260 q 156 -7 146 -87 q 191 121 163 66 m 132 654 l 77 578 l -31 661 l 22 738 l 132 654 z "},"ـ":{"ha":864,"x_min":-58,"x_max":875,"o":"m 875 1 l -12 0 l -58 153 l 829 153 l 875 1 z "},"ف":{"ha":864,"x_min":-47,"x_max":840,"o":"m 458 591 l 404 513 l 296 597 l 350 674 l 458 591 m 704 236 q 633 313 671 282 q 570 345 594 345 q 549 334 560 345 q 533 305 538 323 q 633 263 556 294 q 704 236 682 244 m 187 0 q 49 38 102 0 q -39 171 -12 80 q -42 302 -54 220 q -4 415 -30 384 l 27 415 q 14 359 18 380 q 16 254 4 293 q 60 184 30 208 q 180 153 102 153 l 637 153 q 578 175 609 164 q 503 231 511 203 q 488 312 496 252 q 486 438 477 391 q 537 502 496 502 q 674 404 594 502 q 802 165 762 300 l 836 54 q 832 13 844 26 q 784 0 821 0 l 187 0 z "},"ق":{"ha":864,"x_min":84,"x_max":760,"o":"m 422 543 l 368 467 l 259 549 l 312 627 l 422 543 m 247 536 l 193 458 l 85 543 l 140 620 l 247 536 m 753 -7 q 718 -155 776 -87 q 575 -250 669 -212 q 429 -282 494 -282 q 227 -213 307 -282 q 129 -49 160 -155 q 119 103 111 9 q 140 205 126 182 l 157 205 q 159 129 155 183 q 175 30 165 64 q 270 -98 203 -61 q 408 -127 323 -127 q 600 -75 513 -127 q 692 19 663 -33 q 657 46 670 41 q 628 52 644 52 l 476 52 q 422 87 450 52 q 388 151 397 118 q 370 309 366 221 q 434 419 378 419 q 475 411 454 419 q 548 361 513 395 q 644 237 595 316 q 711 106 675 189 q 753 -7 739 38 m 556 203 q 510 244 532 228 q 469 262 486 262 q 444 248 454 262 q 429 212 434 233 q 465 203 446 203 l 556 203 z "},"ك":{"ha":864,"x_min":-1,"x_max":800,"o":"m 670 153 q 543 430 621 271 q 403 678 452 608 l 444 837 q 545 665 477 802 q 666 394 604 548 q 757 144 728 240 l 800 0 l 201 0 q 100 30 145 0 q 19 152 45 66 q 0 285 -1 221 q 23 400 1 349 l 56 400 q 49 351 50 372 q 58 250 45 294 q 104 182 71 209 q 199 153 142 153 l 670 153 m 338 389 q 319 387 330 389 q 304 385 309 385 q 252 401 275 385 q 222 441 229 418 q 217 471 217 458 q 224 511 217 484 q 260 576 233 547 q 326 613 292 613 l 331 530 q 286 517 301 522 q 252 479 247 498 q 271 463 255 468 q 289 461 281 461 q 308 462 294 461 q 330 463 321 463 q 365 458 351 463 q 382 438 378 453 q 389 354 396 391 q 324 300 378 300 l 225 300 q 279 332 270 326 q 338 389 327 363 z "},"ل":{"ha":864,"x_min":152,"x_max":735,"o":"m 666 -37 q 580 174 643 39 q 450 439 517 309 q 342 632 389 552 l 369 802 q 481 601 415 742 q 604 317 541 475 q 700 49 667 159 l 727 -42 q 667 -218 758 -142 q 430 -293 575 -293 q 278 -243 345 -293 q 175 -84 205 -187 q 154 47 157 -26 q 168 165 151 119 l 189 165 q 192 84 189 121 q 205 18 195 47 q 304 -114 233 -76 q 431 -141 355 -141 q 568 -108 492 -141 q 666 -37 643 -75 z "},"م":{"ha":864,"x_min":189,"x_max":553,"o":"m 304 61 q 359 -46 304 61 q 427 -183 400 -125 q 480 -320 464 -267 q 481 -388 488 -346 q 473 -423 480 -400 l 454 -423 q 363 -214 423 -321 q 263 -49 343 -178 q 198 75 210 37 q 201 168 186 119 q 262 245 218 221 q 312 266 283 258 q 355 275 334 270 q 323 296 331 292 q 292 307 304 307 q 228 286 259 307 q 202 266 217 279 l 190 286 q 190 335 189 311 q 203 429 191 393 q 258 479 222 479 q 349 435 290 479 q 454 351 401 393 q 553 298 517 305 l 541 137 q 446 129 507 137 q 357 109 384 121 q 313 83 323 94 q 304 61 302 73 z "},"ن":{"ha":864,"x_min":77,"x_max":732,"o":"m 378 416 l 324 339 l 216 423 l 269 500 l 378 416 m 673 94 q 602 186 644 137 q 536 254 559 235 l 536 406 q 572 362 537 406 q 647 259 614 309 q 709 127 692 186 l 727 68 q 688 -54 747 1 q 545 -129 636 -100 q 397 -153 467 -153 q 198 -94 275 -153 q 103 45 129 -42 q 79 236 75 140 q 95 334 81 307 l 114 334 q 115 255 109 316 q 133 157 122 194 q 232 30 160 68 q 380 0 290 0 q 567 31 481 0 q 673 94 639 57 z "},"ه":{"ha":864,"x_min":250,"x_max":559,"o":"m 537 153 q 550 4 571 42 q 441 -34 529 -34 q 330 -9 376 -34 q 259 75 277 19 q 254 178 245 123 q 285 271 262 222 q 324 339 298 305 l 271 380 l 338 475 q 397 396 362 445 q 479 275 444 334 q 537 153 524 201 m 488 160 q 449 204 480 183 q 401 225 418 225 q 335 201 357 225 q 305 152 319 187 q 355 127 328 137 q 416 117 382 117 q 465 130 445 117 q 488 160 486 142 z "},"و":{"ha":864,"x_min":277,"x_max":639,"o":"m 563 47 l 408 47 q 297 172 334 47 q 278 328 274 248 q 353 437 286 437 q 490 338 415 437 q 590 142 560 245 l 610 75 q 623 -191 658 -81 q 452 -317 583 -317 q 380 -295 423 -317 q 304 -243 336 -273 q 495 -123 418 -205 q 563 47 578 -37 m 494 199 q 437 256 467 233 q 382 283 404 283 q 346 262 359 283 q 332 213 336 244 q 343 204 335 209 q 362 199 351 199 l 494 199 z "},"ى":{"ha":864,"x_min":56,"x_max":697,"o":"m 426 256 q 528 227 449 245 q 669 144 652 197 l 688 81 q 655 -68 715 -8 q 515 -142 610 -117 q 366 -163 439 -163 q 172 -111 239 -163 q 75 49 109 -64 q 56 194 58 104 q 71 324 54 283 l 88 324 q 92 248 88 302 q 109 148 98 183 q 205 20 136 58 q 349 -8 260 -8 q 518 15 439 -8 q 620 64 575 34 q 514 92 593 75 q 381 153 391 122 q 362 273 363 210 q 372 395 361 330 q 416 518 382 461 q 511 590 458 590 q 579 574 552 590 q 620 513 608 553 q 633 427 629 484 q 627 351 637 362 q 598 400 612 376 q 543 434 575 434 q 480 400 510 434 q 438 326 450 366 q 430 294 431 304 q 426 256 426 274 z "},"ي":{"ha":864,"x_min":56,"x_max":697,"o":"m 426 256 q 528 227 449 245 q 669 144 652 197 l 688 81 q 655 -68 715 -8 q 515 -142 610 -117 q 366 -163 439 -163 q 172 -111 239 -163 q 75 49 109 -64 q 56 194 58 104 q 71 324 54 283 l 88 324 q 92 248 88 302 q 109 148 98 183 q 205 20 136 58 q 349 -8 260 -8 q 518 15 439 -8 q 620 64 575 34 q 514 92 593 75 q 381 153 391 122 q 362 273 363 210 q 372 395 361 330 q 416 518 382 461 q 511 590 458 590 q 579 574 552 590 q 620 513 608 553 q 633 427 629 484 q 627 351 637 362 q 598 400 612 376 q 543 434 575 434 q 480 400 510 434 q 438 326 450 366 q 430 294 431 304 q 426 256 426 274 m 434 -294 l 380 -372 l 271 -288 l 326 -210 l 434 -294 m 608 -288 l 553 -365 l 444 -281 l 498 -203 l 608 -288 z "},"ً":{"ha":0,"x_min":-347,"x_max":-28,"o":"m -66 1309 q -77 1252 -73 1265 q -117 1211 -90 1225 l -347 1095 q -335 1153 -343 1135 q -297 1196 -324 1181 l -66 1309 m -28 1160 q -42 1104 -33 1120 q -80 1062 -52 1076 l -307 944 q -296 1002 -304 983 q -258 1046 -283 1031 l -28 1160 z "},"ٌ":{"ha":0,"x_min":-366,"x_max":5,"o":"m 0 1036 q 5 1008 5 1019 q -7 997 4 997 q -21 1002 -11 997 q -43 1015 -31 1006 l -65 1029 l -85 1042 q -129 989 -107 1013 q -172 948 -151 964 q -212 923 -193 932 q -248 914 -232 914 q -261 917 -256 914 q -267 923 -266 920 q -265 937 -267 926 q -260 962 -263 948 q -258 994 -258 977 q -262 1024 -258 1010 q -268 1040 -263 1031 q -279 1057 -273 1050 q -294 1069 -285 1065 q -313 1073 -302 1073 q -333 1064 -328 1073 q -339 1044 -338 1055 q -339 1023 -340 1032 q -340 1013 -338 1013 q -349 1017 -346 1013 q -355 1029 -353 1021 q -363 1066 -359 1044 q -366 1108 -366 1088 q -357 1143 -365 1128 q -330 1158 -349 1158 q -280 1143 -300 1158 q -244 1096 -260 1128 q -227 1046 -236 1077 q -213 991 -218 1015 q -166 1023 -187 1001 q -132 1067 -145 1044 q -155 1082 -142 1076 q -179 1097 -167 1088 q -200 1118 -191 1105 q -216 1149 -209 1130 q -221 1196 -222 1172 q -211 1238 -220 1219 q -185 1270 -202 1257 q -144 1282 -168 1282 q -115 1274 -129 1282 q -90 1257 -102 1267 q -71 1233 -79 1246 q -60 1207 -62 1219 q -55 1184 -56 1196 q -55 1160 -54 1172 q -58 1135 -56 1147 q -61 1112 -60 1122 q -23 1080 -38 1096 q 0 1036 -8 1063 m -110 1142 q -111 1168 -107 1154 q -122 1192 -114 1181 q -142 1211 -130 1203 q -167 1218 -153 1218 q -178 1213 -174 1218 q -179 1199 -182 1207 q -159 1174 -175 1187 q -110 1142 -144 1161 z "},"ٍ":{"ha":0,"x_min":149,"x_max":471,"o":"m 431 -351 q 419 -410 423 -395 q 381 -450 408 -435 l 149 -566 q 168 -496 157 -515 q 201 -467 179 -476 l 431 -351 m 469 -502 q 458 -557 465 -540 q 419 -600 446 -586 l 191 -716 q 202 -659 194 -678 q 240 -616 213 -629 l 469 -502 z "},"َ":{"ha":0,"x_min":-275,"x_max":4,"o":"m 4 1169 q -14 1101 -3 1120 q -46 1072 -26 1082 l -275 956 q -266 1013 -271 996 q -225 1057 -252 1043 l 4 1169 z "},"ُ":{"ha":0,"x_min":-328,"x_max":-52,"o":"m -64 1085 q -60 1069 -61 1080 q -60 1047 -60 1059 q -54 1019 -56 1031 q -54 1006 -52 1006 q -92 1020 -69 1006 q -140 1051 -115 1034 q -201 954 -170 986 q -263 922 -232 922 q -296 927 -277 922 q -328 937 -315 932 q -289 964 -309 948 q -250 999 -269 981 q -214 1037 -231 1017 q -190 1080 -198 1057 q -238 1114 -220 1096 q -263 1156 -256 1131 q -269 1202 -270 1176 q -260 1252 -267 1229 q -239 1291 -254 1275 q -206 1308 -225 1308 q -175 1301 -189 1308 q -151 1282 -161 1294 q -132 1255 -140 1271 q -118 1223 -123 1240 q -110 1168 -110 1194 q -114 1120 -110 1143 q -100 1111 -109 1116 q -83 1100 -91 1105 l -69 1090 q -64 1085 -64 1088 m -163 1181 q -185 1212 -168 1199 q -220 1225 -202 1225 q -229 1221 -225 1225 q -231 1213 -232 1217 q -211 1187 -228 1204 q -165 1150 -194 1169 q -162 1165 -164 1158 q -163 1181 -160 1172 z "},"ِ":{"ha":0,"x_min":186,"x_max":467,"o":"m 467 -464 q 448 -532 460 -514 q 415 -563 437 -551 l 186 -677 q 198 -621 190 -637 q 236 -578 209 -591 l 467 -464 z "},"ّ":{"ha":0,"x_min":-338,"x_max":-1,"o":"m -15 1165 q -71 1017 30 1017 q -104 1021 -91 1017 q -141 1036 -118 1024 q -161 977 -137 1004 q -221 951 -184 951 q -284 972 -259 951 q -324 1044 -309 994 q -334 1091 -331 1063 q -338 1141 -338 1119 l -315 1143 q -279 1065 -298 1089 q -237 1042 -260 1042 q -195 1080 -203 1042 q -202 1196 -186 1119 l -186 1202 q -155 1143 -171 1172 q -99 1108 -133 1108 q -58 1168 -50 1108 q -76 1237 -61 1187 l -56 1246 q -35 1208 -47 1230 q -15 1165 -22 1187 z "},"ْ":{"ha":0,"x_min":-312,"x_max":-52,"o":"m -64 1108 q -157 962 -19 962 q -248 988 -209 962 q -300 1061 -286 1015 q -301 1200 -323 1135 q -220 1264 -279 1264 q -127 1217 -174 1264 q -64 1108 -81 1171 m -100 1090 q -145 1152 -109 1119 q -228 1190 -189 1190 q -269 1165 -252 1190 q -277 1109 -286 1141 q -161 1044 -256 1044 q -111 1057 -127 1044 q -100 1090 -94 1070 z "},"٠":{"ha":864,"x_min":262,"x_max":438,"o":"m 437 296 q 427 229 430 270 q 423 152 425 189 q 335 199 378 172 q 263 248 300 221 q 265 315 262 275 q 279 395 269 355 q 360 337 320 362 q 437 296 400 312 z "},"١":{"ha":864,"x_min":161,"x_max":518,"o":"m 484 174 q 503 87 492 145 q 517 -11 513 30 l 494 -11 l 486 16 q 441 140 465 87 q 350 301 404 221 q 275 396 316 349 q 178 500 229 450 l 161 689 q 237 614 220 633 q 297 549 273 579 q 343 486 321 519 q 425 333 388 416 q 484 174 461 250 z "},"٢":{"ha":864,"x_min":57,"x_max":457,"o":"m 439 681 q 429 486 476 557 q 304 423 387 423 q 357 308 331 373 q 403 182 384 243 q 417 92 410 156 q 426 -11 425 27 l 395 -11 q 335 159 365 88 q 266 292 305 231 q 172 411 227 354 q 68 506 125 461 l 57 689 q 123 631 113 640 q 198 581 165 597 q 282 559 241 559 q 368 591 326 559 q 412 681 419 629 l 439 681 z "},"٣":{"ha":864,"x_min":33,"x_max":498,"o":"m 464 681 q 496 496 499 563 q 430 418 492 418 q 380 431 406 418 q 347 453 357 448 q 321 416 346 429 q 282 407 302 407 q 328 300 304 363 q 372 167 351 236 q 385 72 380 140 q 382 -11 389 4 l 359 -11 q 300 153 332 81 q 228 290 269 225 q 144 403 189 350 q 43 506 99 456 l 33 689 q 122 597 77 635 q 220 543 183 543 q 270 585 256 543 q 278 681 285 620 l 294 681 q 340 595 317 627 q 393 553 370 553 q 440 592 426 553 q 446 681 454 631 l 464 681 z "},"٤":{"ha":864,"x_min":123,"x_max":576,"o":"m 576 133 q 548 66 559 88 q 487 0 515 0 q 430 5 461 0 q 353 27 399 11 q 271 74 305 46 q 232 122 237 102 q 235 229 217 170 q 274 313 248 274 q 186 351 274 313 q 129 396 134 377 q 152 528 113 450 q 298 689 198 616 l 292 517 q 217 484 237 499 q 198 465 195 473 q 290 418 202 452 q 381 369 377 384 q 380 338 384 361 q 370 304 376 316 q 324 250 366 298 q 298 203 294 216 q 324 178 301 194 q 378 150 350 157 q 459 138 407 142 q 576 133 511 133 z "},"٥":{"ha":864,"x_min":141,"x_max":557,"o":"m 529 321 q 545 102 574 171 q 397 27 517 27 q 250 73 304 27 q 186 180 208 110 q 149 384 160 266 q 148 583 137 502 q 193 675 157 675 q 301 631 235 675 q 431 507 373 581 q 529 321 499 419 m 475 298 q 366 427 458 350 q 228 505 273 505 q 199 423 197 505 q 220 298 202 355 q 251 224 236 244 q 350 180 285 180 q 456 217 419 180 q 475 298 488 254 z "},"٦":{"ha":864,"x_min":7,"x_max":624,"o":"m 604 159 l 624 0 q 438 191 511 61 q 315 495 374 298 q 275 482 305 487 q 224 477 244 477 q 149 487 183 477 q 91 514 115 496 q 57 562 76 525 q 7 689 31 609 l 27 689 q 113 636 53 658 q 208 617 164 617 q 271 624 235 617 q 338 651 316 633 l 359 640 q 372 555 365 590 q 391 484 380 519 q 477 307 414 406 q 604 159 540 208 z "},"٧":{"ha":864,"x_min":11,"x_max":521,"o":"m 521 524 q 476 452 492 502 q 457 343 465 412 q 456 190 452 281 q 477 0 460 99 l 454 0 q 392 120 430 57 q 313 240 354 183 q 238 340 285 281 q 137 445 191 400 q 33 511 83 490 l 11 684 q 126 620 75 661 q 227 518 172 583 q 300 414 262 475 q 372 285 338 354 q 366 387 366 339 q 369 473 365 434 q 404 610 377 556 q 471 689 430 665 l 521 524 z "},"٨":{"ha":864,"x_min":138,"x_max":651,"o":"m 140 155 q 184 227 170 176 q 203 335 195 266 q 205 488 210 397 q 183 678 201 579 l 206 678 q 270 556 229 623 q 347 438 305 495 q 422 338 376 397 q 522 233 468 278 q 628 167 576 189 l 650 -5 q 536 58 587 18 q 434 160 488 95 q 361 264 399 203 q 289 393 323 326 q 296 292 294 339 q 292 205 297 244 q 258 68 283 122 q 189 -11 232 14 l 140 155 z "},"٩":{"ha":864,"x_min":90,"x_max":601,"o":"m 579 159 l 601 0 q 442 142 509 52 q 350 339 384 227 q 320 315 335 327 q 282 300 300 300 q 171 333 214 300 q 104 441 127 366 q 98 604 79 528 q 184 689 119 689 q 275 642 231 689 q 343 537 309 605 q 391 426 363 495 q 467 283 418 357 q 579 159 522 202 m 282 476 q 251 525 277 496 q 191 559 218 559 q 156 533 168 559 q 149 486 144 507 q 186 442 157 461 q 248 423 216 423 q 278 441 269 423 q 282 476 288 458 z "},"٪":{"ha":864,"x_min":-103,"x_max":684,"o":"m 684 141 q 673 75 675 115 q 670 -3 670 34 q 581 45 624 18 q 509 94 545 66 q 511 161 507 121 q 525 240 515 201 q 606 182 566 208 q 684 141 646 157 m 72 852 q 62 785 65 826 q 58 708 60 745 q -30 755 14 728 q -102 804 -65 777 q -100 871 -103 831 q -87 951 -96 911 q -5 893 -46 918 q 72 852 35 868 m 438 955 l 247 0 l 140 0 l 330 955 l 438 955 z "},"٭":{"ha":864,"x_min":-53,"x_max":433,"o":"m 431 807 l 316 697 l 425 522 l 244 629 l 125 522 l 127 697 l -53 807 l 132 807 l 137 983 l 248 807 l 431 807 z "},"ٮ":{"ha":864,"x_min":-39,"x_max":838,"o":"m 210 0 q 68 39 127 0 q -27 176 0 85 q -37 305 -43 232 q 9 419 -27 384 l 39 419 q 23 361 27 382 q 22 254 9 294 q 69 184 35 209 q 193 153 114 153 l 708 153 q 662 231 697 190 q 606 285 648 244 l 613 434 q 712 311 662 389 q 799 132 773 218 l 838 0 l 210 0 z "},"ٹ":{"ha":864,"x_min":-39,"x_max":838,"o":"m 210 0 q 68 39 127 0 q -27 176 0 85 q -37 305 -43 232 q 9 419 -27 384 l 39 419 q 23 361 27 382 q 22 254 9 294 q 69 184 35 209 q 193 153 114 153 l 708 153 q 662 231 697 190 q 606 285 648 244 l 613 434 q 712 311 662 389 q 799 132 773 218 l 838 0 l 210 0 m 453 433 q 465 369 465 391 q 439 338 465 338 l 251 338 q 212 359 232 338 q 186 396 198 373 l 175 416 q 190 408 184 411 q 220 399 209 399 l 244 399 q 263 407 255 399 q 273 422 269 412 q 228 525 255 469 q 184 605 198 587 l 191 680 q 232 608 208 659 q 271 514 251 568 q 294 448 288 469 q 302 465 298 456 q 324 498 313 486 q 359 515 342 515 q 411 494 382 515 q 453 433 442 467 m 435 412 q 401 442 423 429 q 368 453 381 453 q 340 444 354 453 q 298 399 319 430 l 412 399 q 427 403 420 399 q 435 412 433 407 z "},"ټ":{"ha":864,"x_min":-39,"x_max":838,"o":"m 210 0 q 68 39 127 0 q -27 176 0 85 q -37 305 -43 232 q 9 419 -27 384 l 39 419 q 23 361 27 382 q 22 254 9 294 q 69 184 35 209 q 193 153 114 153 l 708 153 q 662 231 697 190 q 606 285 648 244 l 613 434 q 712 311 662 389 q 799 132 773 218 l 838 0 l 210 0 m 540 -62 q 545 -119 548 -92 q 530 -167 543 -146 q 495 -199 517 -187 q 442 -212 473 -212 q 366 -180 399 -212 q 311 -79 332 -148 q 304 -24 302 -50 q 318 22 307 1 q 351 54 330 42 q 401 65 372 65 q 444 53 422 65 q 484 22 465 41 q 518 -20 503 3 q 540 -62 533 -42 m 495 -90 q 477 -65 491 -79 q 447 -39 464 -52 q 412 -20 430 -27 q 380 -12 393 -12 q 346 -31 355 -12 q 343 -71 336 -49 q 355 -91 346 -81 q 378 -107 365 -100 q 407 -117 391 -114 q 437 -121 423 -121 q 457 -118 446 -121 q 477 -111 468 -115 q 491 -100 486 -106 q 495 -90 496 -95 m 346 416 l 292 339 l 183 423 l 237 500 l 346 416 m 519 423 l 465 346 l 357 429 l 411 507 l 519 423 z "},"پ":{"ha":864,"x_min":-39,"x_max":838,"o":"m 210 0 q 68 39 127 0 q -27 176 0 85 q -37 305 -43 232 q 9 419 -27 384 l 39 419 q 23 361 27 382 q 22 254 9 294 q 69 184 35 209 q 193 153 114 153 l 708 153 q 662 231 697 190 q 606 285 648 244 l 613 434 q 712 311 662 389 q 799 132 773 218 l 838 0 l 210 0 m 495 -187 l 549 -110 l 658 -193 l 605 -270 l 495 -187 m 321 -195 l 376 -117 l 484 -199 l 431 -278 l 321 -195 m 454 -307 l 506 -229 l 616 -313 l 563 -391 l 454 -307 z "},"ځ":{"ha":864,"x_min":72,"x_max":848,"o":"m 339 184 q 244 244 286 222 q 153 275 187 275 q 116 261 134 275 q 83 222 98 247 l 73 232 q 73 319 72 275 q 145 423 81 423 q 270 368 190 423 q 408 266 339 316 q 545 210 491 210 l 661 210 l 629 64 l 439 64 q 265 1 334 64 q 218 -136 197 -62 q 370 -275 241 -210 q 636 -339 498 -339 l 846 -339 q 744 -451 788 -411 q 669 -491 700 -491 q 368 -415 500 -491 q 172 -176 218 -330 q 166 -11 149 -99 q 235 126 183 77 q 271 151 247 137 q 339 184 300 167 m 395 562 l 362 541 q 296 496 319 513 q 243 449 258 468 l 236 472 q 239 513 236 484 q 244 543 240 524 q 216 562 228 549 q 190 605 198 579 q 201 713 175 652 q 271 781 227 781 q 305 769 292 781 q 324 735 319 755 q 328 699 330 718 q 320 678 328 681 q 309 686 312 685 q 279 697 292 697 q 236 674 258 697 q 217 631 212 651 q 250 613 220 621 q 302 605 279 605 q 355 627 323 605 l 396 654 l 395 562 z "},"څ":{"ha":864,"x_min":72,"x_max":848,"o":"m 339 184 q 244 244 286 222 q 153 275 187 275 q 116 261 134 275 q 83 222 98 247 l 73 232 q 73 319 72 275 q 145 423 81 423 q 270 368 190 423 q 408 266 339 316 q 545 210 491 210 l 661 210 l 629 64 l 439 64 q 265 1 334 64 q 218 -136 197 -62 q 370 -275 241 -210 q 636 -339 498 -339 l 846 -339 q 744 -451 788 -411 q 669 -491 700 -491 q 368 -415 500 -491 q 172 -176 218 -330 q 166 -11 149 -99 q 235 126 183 77 q 271 151 247 137 q 339 184 300 167 m 345 496 l 290 419 l 182 503 l 236 579 l 345 496 m 518 503 l 465 426 l 355 509 l 410 587 l 518 503 m 388 616 l 335 538 l 225 623 l 278 700 l 388 616 z "},"چ":{"ha":864,"x_min":72,"x_max":848,"o":"m 339 184 q 244 244 286 222 q 153 275 187 275 q 116 261 134 275 q 83 222 98 247 l 73 232 q 73 319 72 275 q 145 423 81 423 q 270 368 190 423 q 408 266 339 316 q 545 210 491 210 l 661 210 l 629 64 l 439 64 q 265 1 334 64 q 218 -136 197 -62 q 370 -275 241 -210 q 636 -339 498 -339 l 846 -339 q 744 -451 788 -411 q 669 -491 700 -491 q 368 -415 500 -491 q 172 -176 218 -330 q 166 -11 149 -99 q 235 126 183 77 q 271 151 247 137 q 339 184 300 167 m 525 -77 l 578 0 l 686 -84 l 633 -160 l 525 -77 m 350 -85 l 404 -8 l 513 -90 l 460 -170 l 350 -85 m 483 -198 l 534 -119 l 644 -203 l 591 -281 l 483 -198 z "},"ڈ":{"ha":864,"x_min":62,"x_max":616,"o":"m 604 104 q 614 34 617 57 q 572 0 612 0 l 289 0 q 231 37 256 0 q 191 125 209 68 q 182 180 184 149 q 183 233 180 210 q 218 193 203 206 q 302 153 263 153 l 486 153 q 503 163 495 153 q 506 186 510 172 q 433 281 494 224 q 283 385 368 339 l 247 564 q 281 543 248 564 q 357 487 319 517 q 446 406 408 445 q 540 266 496 354 q 604 104 578 189 m 340 694 q 353 631 353 651 q 327 600 353 600 l 138 600 q 99 620 119 600 q 73 658 85 635 l 62 678 q 77 670 72 673 q 107 661 96 661 l 132 661 q 151 667 142 661 q 160 684 156 673 q 115 785 142 730 q 72 867 85 849 l 79 940 q 119 869 95 921 q 159 774 138 829 q 182 708 176 730 q 190 726 186 718 q 213 760 201 747 q 247 777 229 777 q 298 754 270 777 q 340 694 330 728 m 323 674 q 289 703 311 690 q 255 715 269 715 q 228 705 241 715 q 186 661 206 692 l 300 661 q 314 664 308 661 q 323 674 320 667 z "},"ډ":{"ha":864,"x_min":182,"x_max":616,"o":"m 604 104 q 614 34 617 57 q 572 0 612 0 l 289 0 q 231 37 256 0 q 191 125 209 68 q 182 180 184 149 q 183 233 180 210 q 218 193 203 206 q 302 153 263 153 l 486 153 q 503 163 495 153 q 506 186 510 172 q 433 281 494 224 q 283 385 368 339 l 247 564 q 281 543 248 564 q 357 487 319 517 q 446 406 408 445 q 540 266 496 354 q 604 104 578 189 m 582 -68 q 589 -125 591 -98 q 573 -172 586 -152 q 538 -205 560 -193 q 484 -217 515 -217 q 408 -184 441 -217 q 354 -84 374 -152 q 347 -28 346 -54 q 360 18 349 -3 q 393 49 372 38 q 444 60 414 60 q 486 47 464 60 q 528 16 509 35 q 562 -24 547 -3 q 582 -68 576 -46 m 537 -95 q 521 -71 534 -84 q 490 -45 507 -57 q 454 -24 473 -33 q 422 -16 435 -16 q 388 -35 397 -16 q 385 -76 378 -54 q 399 -96 389 -87 q 421 -113 408 -106 q 450 -122 434 -119 q 479 -125 465 -125 q 499 -122 488 -125 q 519 -115 510 -119 q 534 -106 529 -111 q 537 -95 540 -100 z "},"ڑ":{"ha":864,"x_min":194,"x_max":644,"o":"m 454 -338 q 376 -313 425 -338 q 294 -260 327 -289 q 506 -111 422 -220 q 564 68 587 -8 q 486 171 553 104 q 422 231 464 193 l 418 416 q 458 374 422 416 q 544 259 505 321 q 624 83 597 171 q 643 -95 648 -1 q 593 -262 636 -198 q 454 -338 544 -338 m 471 597 q 484 533 484 555 q 458 502 483 502 l 270 502 q 231 524 250 502 q 203 560 217 537 l 194 581 q 209 572 203 575 q 239 563 227 563 l 263 563 q 282 571 274 563 q 292 586 288 576 q 247 689 273 633 q 202 769 217 751 l 210 844 q 250 772 227 823 q 289 678 269 732 q 313 612 307 633 q 321 629 317 620 q 343 662 332 650 q 377 680 361 680 q 429 658 401 680 q 471 597 461 631 m 454 576 q 419 606 442 593 q 385 617 400 617 q 358 608 373 617 q 316 563 338 594 l 431 563 q 446 567 439 563 q 454 576 452 571 z "},"ړ":{"ha":864,"x_min":293,"x_max":757,"o":"m 454 -338 q 376 -313 425 -338 q 294 -260 327 -289 q 506 -111 422 -220 q 564 68 587 -8 q 486 171 553 104 q 422 231 464 193 l 418 416 q 458 374 422 416 q 544 259 505 321 q 624 83 597 171 q 643 -95 648 -1 q 593 -262 636 -198 q 454 -338 544 -338 m 749 -298 q 755 -355 758 -328 q 740 -403 753 -382 q 705 -435 727 -423 q 651 -448 682 -448 q 574 -416 608 -448 q 521 -315 541 -384 q 513 -260 511 -286 q 527 -214 515 -235 q 559 -182 538 -194 q 610 -171 581 -171 q 652 -183 631 -171 q 694 -214 674 -195 q 728 -256 713 -233 q 749 -298 743 -278 m 704 -326 q 688 -301 701 -315 q 656 -275 674 -288 q 621 -256 639 -263 q 589 -248 602 -248 q 555 -267 564 -248 q 552 -307 545 -285 q 565 -327 555 -317 q 588 -343 575 -336 q 616 -353 601 -350 q 646 -357 632 -357 q 666 -354 655 -357 q 686 -347 677 -351 q 701 -336 696 -342 q 704 -326 705 -331 z "},"ږ":{"ha":864,"x_min":245,"x_max":856,"o":"m 454 -338 q 376 -313 425 -338 q 294 -260 327 -289 q 506 -111 422 -220 q 564 68 587 -8 q 486 171 553 104 q 422 231 464 193 l 418 416 q 458 374 422 416 q 544 259 505 321 q 624 83 597 171 q 643 -95 648 -1 q 593 -262 636 -198 q 454 -338 544 -338 m 854 -316 l 800 -392 l 692 -309 l 745 -232 l 854 -316 m 410 60 l 355 -16 l 247 68 l 300 144 l 410 60 z "},"ژ":{"ha":864,"x_min":205,"x_max":644,"o":"m 454 -338 q 376 -313 425 -338 q 294 -260 327 -289 q 506 -111 422 -220 q 564 68 587 -8 q 486 171 553 104 q 422 231 464 193 l 418 416 q 458 374 422 416 q 544 259 505 321 q 624 83 597 171 q 643 -95 648 -1 q 593 -262 636 -198 q 454 -338 544 -338 m 368 505 l 313 426 l 206 510 l 260 589 l 368 505 m 575 507 l 521 429 l 412 513 l 465 591 l 575 507 m 425 635 l 372 559 l 263 643 l 317 719 l 425 635 z "},"ښ":{"ha":864,"x_min":18,"x_max":814,"o":"m 450 172 q 521 217 500 172 q 537 328 538 255 l 548 328 q 629 217 589 252 q 708 176 674 176 q 731 203 739 176 q 693 250 727 218 q 659 278 681 260 l 667 406 q 689 382 670 406 q 745 304 720 349 q 803 160 779 239 q 808 64 821 99 q 762 28 795 28 l 751 28 q 697 39 728 28 q 606 104 647 58 q 578 53 602 79 q 518 22 551 22 l 461 22 l 471 -7 q 450 -198 498 -100 q 376 -277 423 -255 q 293 -294 342 -292 q 132 -228 209 -297 q 30 -54 65 -171 q 20 94 12 4 q 41 193 27 170 l 58 193 q 58 117 56 156 q 72 18 62 52 q 168 -110 96 -61 q 275 -141 212 -140 q 332 -130 302 -141 q 399 -80 370 -117 q 416 -31 411 -66 q 336 81 403 14 q 273 138 315 103 l 290 305 q 366 220 320 259 q 450 172 423 172 m 761 -141 l 707 -217 l 598 -134 l 652 -57 l 761 -141 m 514 483 l 460 407 l 351 491 l 406 567 l 514 483 z "},"ڤ":{"ha":864,"x_min":-47,"x_max":840,"o":"m 464 590 l 410 513 l 302 597 l 355 673 l 464 590 m 639 597 l 585 519 l 476 602 l 529 681 l 639 597 m 507 709 l 454 632 l 345 716 l 397 793 l 507 709 m 704 236 q 633 313 671 282 q 570 345 594 345 q 549 334 560 345 q 533 305 538 323 q 633 263 556 294 q 704 236 682 244 m 187 0 q 49 38 102 0 q -39 171 -12 80 q -42 302 -54 220 q -4 415 -30 384 l 27 415 q 14 359 18 380 q 16 254 4 293 q 60 184 30 208 q 180 153 102 153 l 637 153 q 578 175 609 164 q 503 231 511 203 q 488 312 496 252 q 486 438 477 391 q 537 502 496 502 q 674 404 594 502 q 802 165 762 300 l 836 54 q 832 13 844 26 q 784 0 821 0 l 187 0 z "},"ک":{"ha":864,"x_min":-46,"x_max":723,"o":"m 156 0 q 56 30 100 0 q -26 152 0 66 q -45 285 -46 221 q -22 400 -43 349 l 11 400 q 4 351 5 372 q 14 250 3 286 q 60 182 26 209 q 155 153 95 153 l 620 153 q 532 234 589 193 q 412 304 475 275 q 351 326 378 320 q 301 332 324 332 q 259 326 274 332 q 231 316 247 320 q 172 376 212 321 q 123 457 132 431 q 199 627 141 525 q 350 826 264 738 q 549 975 454 933 l 598 808 q 446 720 525 783 q 330 604 380 669 q 256 490 288 552 q 319 472 308 476 q 391 441 359 457 q 614 282 540 362 q 713 114 685 205 q 722 47 724 75 q 682 0 716 0 l 156 0 z "},"ګ":{"ha":864,"x_min":-46,"x_max":723,"o":"m 156 0 q 56 30 100 0 q -26 152 0 66 q -45 285 -46 221 q -22 400 -43 349 l 11 400 q 4 351 5 372 q 14 250 3 286 q 60 182 26 209 q 155 153 95 153 l 620 153 q 532 234 589 193 q 412 304 475 275 q 351 326 378 320 q 301 332 324 332 q 259 326 274 332 q 231 316 247 320 q 172 376 212 321 q 123 457 132 431 q 199 627 141 525 q 350 826 264 738 q 549 975 454 933 l 598 808 q 446 720 525 783 q 330 604 380 669 q 256 490 288 552 q 319 472 308 476 q 391 441 359 457 q 614 282 540 362 q 713 114 685 205 q 722 47 724 75 q 682 0 716 0 l 156 0 m 591 651 q 598 594 601 621 q 583 547 595 567 q 547 514 570 526 q 494 502 525 502 q 417 534 450 502 q 363 635 384 566 q 356 689 354 663 q 370 735 358 715 q 402 767 381 755 q 453 779 423 779 q 495 766 473 779 q 536 735 517 754 q 571 694 556 716 q 591 651 586 671 m 547 624 q 530 648 544 635 q 499 674 517 662 q 463 694 481 686 q 431 701 445 701 q 397 683 407 701 q 395 643 388 665 q 408 623 397 632 q 431 606 418 613 q 459 596 444 600 q 488 593 475 593 q 509 595 498 593 q 529 603 519 598 q 543 613 538 608 q 547 624 548 618 z "},"گ":{"ha":864,"x_min":-46,"x_max":723,"o":"m 156 0 q 56 30 100 0 q -26 152 0 66 q -45 285 -46 221 q -22 400 -43 349 l 11 400 q 4 351 5 372 q 14 250 3 286 q 60 182 26 209 q 155 153 95 153 l 620 153 q 532 234 589 193 q 412 304 475 275 q 351 326 378 320 q 301 332 324 332 q 259 326 274 332 q 231 316 247 320 q 172 376 212 321 q 123 457 132 431 q 199 627 141 525 q 350 826 264 738 q 549 975 454 933 l 598 808 q 446 720 525 783 q 330 604 380 669 q 256 490 288 552 q 319 472 308 476 q 391 441 359 457 q 614 282 540 362 q 713 114 685 205 q 722 47 724 75 q 682 0 716 0 l 156 0 m 473 1090 q 488 1005 481 1054 q 255 798 358 922 q 107 532 152 673 l 65 595 q 223 884 109 749 q 473 1090 338 1019 z "},"ں":{"ha":864,"x_min":77,"x_max":732,"o":"m 673 94 q 602 186 644 137 q 536 254 559 235 l 536 406 q 572 362 537 406 q 647 259 614 309 q 709 127 692 186 l 727 68 q 688 -54 747 1 q 545 -129 636 -100 q 397 -153 467 -153 q 198 -94 275 -153 q 103 45 129 -42 q 79 236 75 140 q 95 334 81 307 l 114 334 q 115 255 109 316 q 133 157 122 194 q 232 30 160 68 q 380 0 290 0 q 567 31 481 0 q 673 94 639 57 z "},"ڼ":{"ha":864,"x_min":77,"x_max":732,"o":"m 673 94 q 602 186 644 137 q 536 254 559 235 l 536 406 q 572 362 537 406 q 647 259 614 309 q 709 127 692 186 l 727 68 q 688 -54 747 1 q 545 -129 636 -100 q 397 -153 467 -153 q 198 -94 275 -153 q 103 45 129 -42 q 79 236 75 140 q 95 334 81 307 l 114 334 q 115 255 109 316 q 133 157 122 194 q 232 30 160 68 q 380 0 290 0 q 567 31 481 0 q 673 94 639 57 m 635 -176 q 642 -233 644 -206 q 626 -281 639 -260 q 591 -313 613 -301 q 537 -326 568 -326 q 460 -294 494 -326 q 407 -193 427 -262 q 399 -138 397 -164 q 413 -92 401 -113 q 446 -60 425 -72 q 496 -49 467 -49 q 538 -61 517 -49 q 580 -92 560 -73 q 614 -134 600 -111 q 635 -176 629 -156 m 590 -203 q 574 -179 587 -193 q 543 -153 560 -165 q 507 -134 525 -141 q 475 -126 488 -126 q 441 -144 450 -126 q 438 -184 431 -163 q 451 -205 441 -195 q 474 -221 461 -214 q 503 -231 487 -228 q 532 -235 518 -235 q 552 -232 541 -235 q 572 -224 563 -229 q 587 -214 582 -220 q 590 -203 591 -209 m 378 416 l 324 339 l 216 423 l 269 500 l 378 416 z "},"ھ":{"ha":864,"x_min":39,"x_max":781,"o":"m 206 179 q 163 227 178 208 q 138 278 149 245 q 152 408 119 345 q 220 499 174 453 l 155 540 l 205 684 q 282 633 210 684 q 438 518 369 572 q 587 388 532 448 q 675 278 633 339 q 753 133 732 198 l 777 52 q 762 -16 788 12 q 692 -45 735 -45 q 509 3 639 -45 q 366 61 411 38 q 297 26 351 46 q 165 -1 229 -1 l 39 -1 l 45 159 l 79 159 q 151 164 117 159 q 206 179 184 170 m 666 141 q 591 236 639 184 q 486 323 536 294 q 496 245 496 288 q 479 176 495 202 q 553 146 529 155 q 627 130 600 130 q 652 132 642 130 q 666 141 663 134 m 420 334 q 371 379 399 359 q 321 399 343 399 q 263 372 300 399 q 206 315 229 345 q 294 260 237 289 q 346 236 313 250 q 385 269 363 243 q 420 334 411 298 z "},"ۀ":{"ha":864,"x_min":104,"x_max":559,"o":"m 537 153 q 550 4 571 42 q 441 -34 529 -34 q 330 -9 376 -34 q 259 75 277 19 q 254 178 245 123 q 285 271 262 222 q 324 339 298 305 l 271 380 l 338 475 q 397 396 362 445 q 479 275 444 334 q 537 153 524 201 m 488 160 q 449 204 480 183 q 401 225 418 225 q 335 201 357 225 q 305 152 319 187 q 355 127 328 137 q 416 117 382 117 q 465 130 445 117 q 488 160 486 142 m 315 732 l 282 712 q 216 667 239 684 q 164 620 178 639 l 157 643 q 159 684 156 655 q 164 713 160 694 q 136 732 148 720 q 110 776 118 750 q 121 884 96 823 q 191 952 146 952 q 225 940 212 952 q 244 906 239 926 q 248 869 250 888 q 240 849 248 852 q 229 857 232 856 q 201 868 213 868 q 156 845 179 868 q 137 802 132 822 q 170 784 140 792 q 222 776 199 776 q 275 798 243 776 l 316 825 l 315 732 z "},"ۃ":{"ha":864,"x_min":95,"x_max":559,"o":"m 537 153 q 550 4 571 42 q 441 -34 529 -34 q 330 -9 376 -34 q 259 75 277 19 q 254 178 245 123 q 285 271 262 222 q 324 339 298 305 l 271 380 l 338 475 q 397 396 362 445 q 479 275 444 334 q 537 153 524 201 m 488 160 q 449 204 480 183 q 401 225 418 225 q 335 201 357 225 q 305 152 319 187 q 355 127 328 137 q 416 117 382 117 q 465 130 445 117 q 488 160 486 142 m 258 708 l 203 631 l 96 715 l 149 792 l 258 708 m 433 715 l 378 637 l 269 720 l 323 799 l 433 715 z "},"ی":{"ha":864,"x_min":56,"x_max":697,"o":"m 426 256 q 528 227 449 245 q 669 144 652 197 l 688 81 q 655 -68 715 -8 q 515 -142 610 -117 q 366 -163 439 -163 q 172 -111 239 -163 q 75 49 109 -64 q 56 194 58 104 q 71 324 54 283 l 88 324 q 92 248 88 302 q 109 148 98 183 q 205 20 136 58 q 349 -8 260 -8 q 518 15 439 -8 q 620 64 575 34 q 514 92 593 75 q 381 153 391 122 q 362 273 363 210 q 372 395 361 330 q 416 518 382 461 q 511 590 458 590 q 579 574 552 590 q 620 513 608 553 q 633 427 629 484 q 627 351 637 362 q 598 400 612 376 q 543 434 575 434 q 480 400 510 434 q 438 326 450 366 q 430 294 431 304 q 426 256 426 274 z "},"ۍ":{"ha":864,"x_min":-7,"x_max":777,"o":"m 179 198 q 190 148 183 178 q 286 20 213 58 q 430 -8 342 -8 q 600 15 529 -8 q 701 64 656 34 q 595 92 685 71 q 463 153 472 122 q 443 273 444 216 q 453 395 442 330 q 498 518 464 461 q 593 590 540 590 q 661 574 637 590 q 701 513 689 553 q 715 427 712 476 q 708 351 719 362 q 680 400 694 376 q 624 434 659 434 q 562 400 591 434 q 519 326 532 366 q 511 294 513 304 q 507 256 507 274 q 609 227 530 245 q 750 144 734 197 l 769 81 q 736 -68 795 -4 q 597 -142 692 -117 q 448 -163 521 -163 q 254 -111 320 -163 q 156 49 190 -64 q 141 145 146 83 q 19 30 96 100 l -7 111 q 140 198 114 152 q 179 198 159 227 z "},"ې":{"ha":864,"x_min":56,"x_max":697,"o":"m 426 256 q 528 227 449 245 q 669 144 652 197 l 688 81 q 655 -68 715 -8 q 515 -142 610 -117 q 366 -163 439 -163 q 172 -111 239 -163 q 75 49 109 -64 q 56 194 58 104 q 71 324 54 283 l 88 324 q 92 248 88 302 q 109 148 98 183 q 205 20 136 58 q 349 -8 260 -8 q 518 15 439 -8 q 620 64 575 34 q 514 92 593 75 q 381 153 391 122 q 362 273 363 210 q 372 395 361 330 q 416 518 382 461 q 511 590 458 590 q 579 574 552 590 q 620 513 608 553 q 633 427 629 484 q 627 351 637 362 q 598 400 612 376 q 543 434 575 434 q 480 400 510 434 q 438 326 450 366 q 430 294 431 304 q 426 256 426 274 m 486 -345 l 376 -263 l 430 -184 l 538 -269 l 486 -345 m 545 -528 l 435 -444 l 491 -366 l 600 -450 l 545 -528 z "},"۔":{"ha":864,"x_min":252,"x_max":586,"o":"m 252 0 l 294 176 l 585 176 l 543 0 l 252 0 z "},"۰":{"ha":864,"x_min":262,"x_max":438,"o":"m 437 296 q 427 229 430 270 q 423 152 425 189 q 335 199 378 172 q 263 248 300 221 q 265 315 262 275 q 279 395 269 355 q 360 337 320 362 q 437 296 400 312 z "},"۱":{"ha":864,"x_min":161,"x_max":518,"o":"m 484 174 q 503 87 492 145 q 517 -11 513 30 l 494 -11 l 486 16 q 441 140 465 87 q 350 301 404 221 q 275 396 316 349 q 178 500 229 450 l 161 689 q 237 614 220 633 q 297 549 273 579 q 343 486 321 519 q 425 333 388 416 q 484 174 461 250 z "},"۲":{"ha":864,"x_min":57,"x_max":457,"o":"m 439 681 q 429 486 476 557 q 304 423 387 423 q 357 308 331 373 q 403 182 384 243 q 417 92 410 156 q 426 -11 425 27 l 395 -11 q 335 159 365 88 q 266 292 305 231 q 172 411 227 354 q 68 506 125 461 l 57 689 q 123 631 113 640 q 198 581 165 597 q 282 559 241 559 q 368 591 326 559 q 412 681 419 629 l 439 681 z "},"۳":{"ha":864,"x_min":33,"x_max":498,"o":"m 464 681 q 496 496 499 563 q 430 418 492 418 q 380 431 406 418 q 347 453 357 448 q 321 416 346 429 q 282 407 302 407 q 328 300 304 363 q 372 167 351 236 q 385 72 380 140 q 382 -11 389 4 l 359 -11 q 300 153 332 81 q 228 290 269 225 q 144 403 189 350 q 43 506 99 456 l 33 689 q 122 597 77 635 q 220 543 183 543 q 270 585 256 543 q 278 681 285 620 l 294 681 q 340 595 317 627 q 393 553 370 553 q 440 592 426 553 q 446 681 454 631 l 464 681 z "},"۴":{"ha":864,"x_min":41,"x_max":515,"o":"m 319 385 q 350 315 321 374 q 414 65 404 203 q 412 -18 419 -3 l 389 -18 q 163 403 309 248 q 71 488 121 448 l 53 502 l 41 720 l 133 639 q 160 616 146 627 q 188 685 163 648 q 273 722 213 722 q 416 669 355 722 q 442 637 439 648 q 407 601 453 601 q 383 606 401 601 q 334 610 365 610 q 296 553 275 612 q 324 521 305 530 q 373 511 340 511 q 419 522 408 511 q 471 547 449 553 q 486 540 481 543 q 513 501 506 530 q 507 450 519 472 q 392 384 476 391 q 319 385 353 380 z "},"۵":{"ha":864,"x_min":149,"x_max":583,"o":"m 159 575 q 203 667 168 667 q 312 623 245 667 q 441 499 384 572 q 540 313 510 411 q 581 94 590 148 q 566 47 575 64 q 509 14 547 15 q 438 57 484 14 q 418 11 438 26 q 389 3 404 1 q 167 254 213 24 q 159 575 138 399 m 487 283 q 377 418 471 339 q 239 496 283 496 q 210 415 208 496 q 229 288 212 350 q 305 168 258 186 q 347 164 336 156 q 358 209 363 172 q 377 252 350 254 q 433 203 411 250 q 490 176 444 179 q 487 283 509 216 z "},"۶":{"ha":864,"x_min":80,"x_max":522,"o":"m 260 298 q 157 352 210 309 q 85 458 104 395 q 115 608 66 522 q 240 693 163 693 q 340 661 285 693 q 419 578 406 624 q 377 555 427 555 q 345 562 373 555 q 220 549 258 583 q 206 513 201 530 q 304 445 232 445 q 372 469 328 445 l 437 506 q 495 515 473 528 q 517 491 513 505 q 522 468 522 475 l 515 347 l 502 342 q 365 245 416 309 q 309 136 336 209 q 271 -8 288 75 l 248 3 q 234 88 239 20 q 235 180 229 156 q 260 298 245 243 z "},"۷":{"ha":864,"x_min":11,"x_max":521,"o":"m 521 524 q 476 452 492 502 q 457 343 465 412 q 456 190 452 281 q 477 0 460 99 l 454 0 q 392 120 430 57 q 313 240 354 183 q 238 340 285 281 q 137 445 191 400 q 33 511 83 490 l 11 684 q 126 620 75 661 q 227 518 172 583 q 300 414 262 475 q 372 285 338 354 q 366 387 366 339 q 369 473 365 434 q 404 610 377 556 q 471 689 430 665 l 521 524 z "},"۸":{"ha":864,"x_min":138,"x_max":651,"o":"m 140 155 q 184 227 170 176 q 203 335 195 266 q 205 488 210 397 q 183 678 201 579 l 206 678 q 270 556 229 623 q 347 438 305 495 q 422 338 376 397 q 522 233 468 278 q 628 167 576 189 l 650 -5 q 536 58 587 18 q 434 160 488 95 q 361 264 399 203 q 289 393 323 326 q 296 292 294 339 q 292 205 297 244 q 258 68 283 122 q 189 -11 232 14 l 140 155 z "},"۹":{"ha":864,"x_min":90,"x_max":601,"o":"m 579 159 l 601 0 q 442 142 509 52 q 350 339 384 227 q 320 315 335 327 q 282 300 300 300 q 171 333 214 300 q 104 441 127 366 q 98 604 79 528 q 184 689 119 689 q 275 642 231 689 q 343 537 309 605 q 391 426 363 495 q 467 283 418 357 q 579 159 522 202 m 282 476 q 251 525 277 496 q 191 559 218 559 q 156 533 168 559 q 149 486 144 507 q 186 442 157 461 q 248 423 216 423 q 278 441 269 423 q 282 476 288 458 z "},"‌":{"ha":0,"x_min":-274,"x_max":274,"o":"m 258 922 q 167 968 212 954 q 72 987 122 983 l 209 852 l 180 822 l 9 990 l -11 990 l -179 823 l -209 854 l -73 987 q -168 969 -123 983 q -258 922 -212 955 l -274 944 q -171 1019 -222 990 q -54 1057 -119 1047 l -206 1208 l -176 1237 l 0 1061 l 179 1240 l 206 1210 l 53 1057 q 169 1019 117 1047 q 274 944 221 990 l 258 922 m 30 863 q 22 842 30 852 q 0 833 14 833 q -22 842 -14 833 q -30 863 -30 852 q -22 885 -30 876 q 0 894 -14 894 q 22 885 14 894 q 30 863 30 876 m 30 724 q 22 703 30 711 q 0 694 14 694 q -22 703 -14 694 q -30 724 -30 711 q -22 745 -30 736 q 0 753 -14 753 q 22 745 14 753 q 30 724 30 736 m 30 586 q 22 564 30 572 q 0 556 14 556 q -22 564 -14 556 q -30 586 -30 572 q -22 606 -30 597 q 0 616 -14 616 q 22 606 14 616 q 30 586 30 597 m 30 445 q 22 426 30 434 q 0 418 14 418 q -22 426 -14 418 q -30 445 -30 434 q -22 467 -30 458 q 0 476 -14 476 q 22 467 14 476 q 30 445 30 458 m 30 307 q 22 286 30 296 q 0 277 14 277 q -22 286 -14 277 q -30 307 -30 296 q -22 329 -30 320 q 0 338 -14 338 q 22 329 14 338 q 30 307 30 320 m 30 168 q 22 146 30 155 q 0 138 14 138 q -22 146 -14 138 q -30 168 -30 155 q -22 189 -30 180 q 0 198 -14 198 q 22 189 14 198 q 30 168 30 180 m 30 30 q 22 9 30 18 q 0 0 14 0 q -22 9 -14 0 q -30 30 -30 18 q -22 50 -30 41 q 0 58 -14 58 q 22 50 14 58 q 30 30 30 41 z "}}}
